<mxfile host="app.diagrams.net" modified="2023-06-02T07:38:06.816Z" agent="Mozilla/5.0 (Windows NT 10.0; Win64; x64) AppleWebKit/537.36 (KHTML, like Gecko) Chrome/113.0.0.0 Safari/537.36" etag="L1Y2_WRtlg2x_V-1we80" version="21.3.5" type="github">
  <diagram id="C5RBs43oDa-KdzZeNtuy" name="Page-1">
    <mxGraphModel dx="1147" dy="637" grid="1" gridSize="10" guides="1" tooltips="1" connect="1" arrows="1" fold="1" page="1" pageScale="1" pageWidth="827" pageHeight="1169" math="0" shadow="0">
      <root>
        <mxCell id="WIyWlLk6GJQsqaUBKTNV-0" />
        <mxCell id="WIyWlLk6GJQsqaUBKTNV-1" parent="WIyWlLk6GJQsqaUBKTNV-0" />
        <mxCell id="duncpzKBdpz41MOlvivD-23" value="&lt;font style=&quot;font-size: 24px;&quot;&gt;wiki&amp;nbsp; &amp;nbsp;数据源处理&lt;br&gt;&lt;/font&gt;" style="swimlane;horizontal=0;whiteSpace=wrap;html=1;startSize=23;" vertex="1" parent="WIyWlLk6GJQsqaUBKTNV-1">
          <mxGeometry x="30" y="80" width="400" height="3170" as="geometry">
            <mxRectangle x="30" y="295" width="70" height="270" as="alternateBounds" />
          </mxGeometry>
        </mxCell>
        <mxCell id="duncpzKBdpz41MOlvivD-24" value="wikidata数据来源" style="swimlane;whiteSpace=wrap;html=1;" vertex="1" parent="duncpzKBdpz41MOlvivD-23">
          <mxGeometry x="22" y="20" width="368" height="190" as="geometry">
            <mxRectangle x="70" y="64" width="140" height="30" as="alternateBounds" />
          </mxGeometry>
        </mxCell>
        <mxCell id="duncpzKBdpz41MOlvivD-26" value="下载地址:https://dumps.wikimedia.org/wikidatawiki/entities/latest-all.json.bz2" style="text;align=left;verticalAlign=top;spacingLeft=4;spacingRight=4;overflow=hidden;rotatable=0;points=[[0,0.5],[1,0.5]];portConstraint=eastwest;" vertex="1" parent="duncpzKBdpz41MOlvivD-24">
          <mxGeometry x="-1" y="29" width="361" height="21" as="geometry" />
        </mxCell>
        <mxCell id="duncpzKBdpz41MOlvivD-31" value="数据文件格式:json+bz2" style="text;align=left;verticalAlign=top;spacingLeft=4;spacingRight=4;overflow=hidden;rotatable=0;points=[[0,0.5],[1,0.5]];portConstraint=eastwest;" vertex="1" parent="duncpzKBdpz41MOlvivD-24">
          <mxGeometry y="55" width="200" height="26" as="geometry" />
        </mxCell>
        <mxCell id="duncpzKBdpz41MOlvivD-32" value="数据存储目录:/data8/wiki_20230321/latest-all.json.bz2" style="text;align=left;verticalAlign=top;spacingLeft=4;spacingRight=4;overflow=hidden;rotatable=0;points=[[0,0.5],[1,0.5]];portConstraint=eastwest;" vertex="1" parent="duncpzKBdpz41MOlvivD-24">
          <mxGeometry y="83" width="200" height="26" as="geometry" />
        </mxCell>
        <mxCell id="duncpzKBdpz41MOlvivD-33" value="数据处理程序:[1-1] wiki原始文件到ck_封库.py" style="text;align=left;verticalAlign=top;spacingLeft=4;spacingRight=4;overflow=hidden;rotatable=0;points=[[0,0.5],[1,0.5]];portConstraint=eastwest;" vertex="1" parent="duncpzKBdpz41MOlvivD-24">
          <mxGeometry y="139" width="370" height="28" as="geometry" />
        </mxCell>
        <mxCell id="duncpzKBdpz41MOlvivD-35" value="git地址:http://192.168.12.189:3100/liyi/wiki_update/src/master/[1-1]%20wiki%e5%8e%9f%e5%a7%8b%e6%96%87%e4%bb%b6%e5%88%b0ck_%e5%b0%81%e5%ba%93.py" style="text;align=left;verticalAlign=top;spacingLeft=4;spacingRight=4;overflow=hidden;rotatable=0;points=[[0,0.5],[1,0.5]];portConstraint=eastwest;" vertex="1" parent="duncpzKBdpz41MOlvivD-24">
          <mxGeometry x="-1" y="164" width="351" height="24" as="geometry" />
        </mxCell>
        <mxCell id="duncpzKBdpz41MOlvivD-50" value="命名规则:wiki_history.wiki_history_taskid  其中taskid=20230302&#xa;" style="text;align=left;verticalAlign=top;spacingLeft=4;spacingRight=4;overflow=hidden;rotatable=0;points=[[0,0.5],[1,0.5]];portConstraint=eastwest;" vertex="1" parent="duncpzKBdpz41MOlvivD-24">
          <mxGeometry x="-1" y="109" width="361" height="26" as="geometry" />
        </mxCell>
        <mxCell id="duncpzKBdpz41MOlvivD-36" value="dbpedia数据来源" style="swimlane;whiteSpace=wrap;html=1;" vertex="1" parent="duncpzKBdpz41MOlvivD-23">
          <mxGeometry x="23" y="1050" width="377" height="1600" as="geometry">
            <mxRectangle x="70" y="64" width="140" height="30" as="alternateBounds" />
          </mxGeometry>
        </mxCell>
        <mxCell id="duncpzKBdpz41MOlvivD-37" value="下载相对路径:ontologies » dbpedia.org » ontology" style="text;align=left;verticalAlign=top;spacingLeft=4;spacingRight=4;overflow=hidden;rotatable=0;points=[[0,0.5],[1,0.5]];portConstraint=eastwest;" vertex="1" parent="duncpzKBdpz41MOlvivD-36">
          <mxGeometry y="127" width="330" height="21" as="geometry" />
        </mxCell>
        <mxCell id="duncpzKBdpz41MOlvivD-38" value="数据文件格式:三元组格式" style="text;align=left;verticalAlign=top;spacingLeft=4;spacingRight=4;overflow=hidden;rotatable=0;points=[[0,0.5],[1,0.5]];portConstraint=eastwest;" vertex="1" parent="duncpzKBdpz41MOlvivD-36">
          <mxGeometry y="55" width="200" height="26" as="geometry" />
        </mxCell>
        <mxCell id="duncpzKBdpz41MOlvivD-39" value="数据存储目录:db_data/ontology_type=parsed_sorted.nt" style="text;align=left;verticalAlign=top;spacingLeft=4;spacingRight=4;overflow=hidden;rotatable=0;points=[[0,0.5],[1,0.5]];portConstraint=eastwest;" vertex="1" parent="duncpzKBdpz41MOlvivD-36">
          <mxGeometry y="148" width="370" height="26" as="geometry" />
        </mxCell>
        <mxCell id="duncpzKBdpz41MOlvivD-40" value="数据处理程序:[5-2]dbpedia_分类表生成_pool.py" style="text;align=left;verticalAlign=top;spacingLeft=4;spacingRight=4;overflow=hidden;rotatable=0;points=[[0,0.5],[1,0.5]];portConstraint=eastwest;" vertex="1" parent="duncpzKBdpz41MOlvivD-36">
          <mxGeometry y="30" width="340" height="28" as="geometry" />
        </mxCell>
        <mxCell id="duncpzKBdpz41MOlvivD-320" value="数据名称:属性三元组表" style="text;align=left;verticalAlign=top;spacingLeft=4;spacingRight=4;overflow=hidden;rotatable=0;points=[[0,0.5],[1,0.5]];portConstraint=eastwest;" vertex="1" parent="duncpzKBdpz41MOlvivD-36">
          <mxGeometry x="1" y="106" width="200" height="21" as="geometry" />
        </mxCell>
        <mxCell id="duncpzKBdpz41MOlvivD-321" value="" style="endArrow=none;html=1;rounded=0;exitX=-0.007;exitY=1.027;exitDx=0;exitDy=0;exitPerimeter=0;" edge="1" parent="duncpzKBdpz41MOlvivD-36">
          <mxGeometry width="50" height="50" relative="1" as="geometry">
            <mxPoint y="242" as="sourcePoint" />
            <mxPoint x="367" y="242" as="targetPoint" />
          </mxGeometry>
        </mxCell>
        <mxCell id="duncpzKBdpz41MOlvivD-323" value="下载相对路径: dbpedia » wikidata » ontology-subclassof" style="text;align=left;verticalAlign=top;spacingLeft=4;spacingRight=4;overflow=hidden;rotatable=0;points=[[0,0.5],[1,0.5]];portConstraint=eastwest;" vertex="1" parent="duncpzKBdpz41MOlvivD-36">
          <mxGeometry x="1" y="267" width="329" height="21" as="geometry" />
        </mxCell>
        <mxCell id="duncpzKBdpz41MOlvivD-324" value="数据存储目录:db_data/ontology-subclassof.ttl.bz2" style="text;align=left;verticalAlign=top;spacingLeft=4;spacingRight=4;overflow=hidden;rotatable=0;points=[[0,0.5],[1,0.5]];portConstraint=eastwest;" vertex="1" parent="duncpzKBdpz41MOlvivD-36">
          <mxGeometry x="1" y="288" width="370" height="26" as="geometry" />
        </mxCell>
        <mxCell id="duncpzKBdpz41MOlvivD-325" value="数据名称:类层级关系" style="text;align=left;verticalAlign=top;spacingLeft=4;spacingRight=4;overflow=hidden;rotatable=0;points=[[0,0.5],[1,0.5]];portConstraint=eastwest;" vertex="1" parent="duncpzKBdpz41MOlvivD-36">
          <mxGeometry x="2" y="246" width="200" height="21" as="geometry" />
        </mxCell>
        <mxCell id="duncpzKBdpz41MOlvivD-326" value="" style="endArrow=none;html=1;rounded=0;exitX=-0.007;exitY=1.027;exitDx=0;exitDy=0;exitPerimeter=0;" edge="1" parent="duncpzKBdpz41MOlvivD-36">
          <mxGeometry width="50" height="50" relative="1" as="geometry">
            <mxPoint x="3" y="176" as="sourcePoint" />
            <mxPoint x="369" y="176" as="targetPoint" />
          </mxGeometry>
        </mxCell>
        <mxCell id="duncpzKBdpz41MOlvivD-327" value="" style="endArrow=none;html=1;rounded=0;exitX=-0.007;exitY=1.027;exitDx=0;exitDy=0;exitPerimeter=0;entryX=0.983;entryY=0.931;entryDx=0;entryDy=0;entryPerimeter=0;" edge="1" parent="duncpzKBdpz41MOlvivD-36">
          <mxGeometry width="50" height="50" relative="1" as="geometry">
            <mxPoint x="1" y="313" as="sourcePoint" />
            <mxPoint x="365.71000000000004" y="312.20600000000013" as="targetPoint" />
          </mxGeometry>
        </mxCell>
        <mxCell id="duncpzKBdpz41MOlvivD-382" value="数据存储目录:db_data/long-abstracts_lang=zh.ttl.bz2" style="text;align=left;verticalAlign=top;spacingLeft=4;spacingRight=4;overflow=hidden;rotatable=0;points=[[0,0.5],[1,0.5]];portConstraint=eastwest;" vertex="1" parent="duncpzKBdpz41MOlvivD-36">
          <mxGeometry x="0.5" y="1000" width="370" height="26" as="geometry" />
        </mxCell>
        <mxCell id="duncpzKBdpz41MOlvivD-383" value="数据存储目录:db_data/short-abstracts_lang=en.ttl.bz2" style="text;align=left;verticalAlign=top;spacingLeft=4;spacingRight=4;overflow=hidden;rotatable=0;points=[[0,0.5],[1,0.5]];portConstraint=eastwest;" vertex="1" parent="duncpzKBdpz41MOlvivD-36">
          <mxGeometry y="1026" width="370" height="26" as="geometry" />
        </mxCell>
        <mxCell id="duncpzKBdpz41MOlvivD-384" value="数据存储目录:db_data/short-abstracts_lang=zh.ttl.bz2" style="text;align=left;verticalAlign=top;spacingLeft=4;spacingRight=4;overflow=hidden;rotatable=0;points=[[0,0.5],[1,0.5]];portConstraint=eastwest;" vertex="1" parent="duncpzKBdpz41MOlvivD-36">
          <mxGeometry x="0.5" y="1050" width="370" height="26" as="geometry" />
        </mxCell>
        <mxCell id="duncpzKBdpz41MOlvivD-416" value="下载地址:https://databus.dbpedia.org/ontologies/dbpedia.org/ontology/ontology_type=parsed_sorted.nt" style="text;align=left;verticalAlign=top;spacingLeft=4;spacingRight=4;overflow=hidden;rotatable=0;points=[[0,0.5],[1,0.5]];portConstraint=eastwest;" vertex="1" parent="duncpzKBdpz41MOlvivD-36">
          <mxGeometry x="-1" y="76" width="361" height="26" as="geometry" />
        </mxCell>
        <mxCell id="duncpzKBdpz41MOlvivD-417" value="下载相对路径:dbpedia » wikidata » instance-types/transitive" style="text;align=left;verticalAlign=top;spacingLeft=4;spacingRight=4;overflow=hidden;rotatable=0;points=[[0,0.5],[1,0.5]];portConstraint=eastwest;" vertex="1" parent="duncpzKBdpz41MOlvivD-36">
          <mxGeometry x="2" y="473" width="349" height="21" as="geometry" />
        </mxCell>
        <mxCell id="duncpzKBdpz41MOlvivD-418" value="下载相对路径:dbpedia » mappings » instance-types/transitive" style="text;align=left;verticalAlign=top;spacingLeft=4;spacingRight=4;overflow=hidden;rotatable=0;points=[[0,0.5],[1,0.5]];portConstraint=eastwest;" vertex="1" parent="duncpzKBdpz41MOlvivD-36">
          <mxGeometry x="1" y="1404" width="350" height="21" as="geometry" />
        </mxCell>
        <mxCell id="duncpzKBdpz41MOlvivD-341" value="" style="endArrow=none;html=1;rounded=0;exitX=-0.007;exitY=1.027;exitDx=0;exitDy=0;exitPerimeter=0;" edge="1" parent="duncpzKBdpz41MOlvivD-36">
          <mxGeometry width="50" height="50" relative="1" as="geometry">
            <mxPoint x="2" y="520" as="sourcePoint" />
            <mxPoint x="367" y="520" as="targetPoint" />
          </mxGeometry>
        </mxCell>
        <mxCell id="duncpzKBdpz41MOlvivD-340" value=" 数据名称:Qid实体类型表,一个实体对应多个分类(不全,没用上)" style="text;align=left;verticalAlign=top;spacingLeft=4;spacingRight=4;overflow=hidden;rotatable=0;points=[[0,0.5],[1,0.5]];portConstraint=eastwest;" vertex="1" parent="duncpzKBdpz41MOlvivD-36">
          <mxGeometry x="-1" y="452" width="308" height="21" as="geometry" />
        </mxCell>
        <mxCell id="duncpzKBdpz41MOlvivD-339" value="数据存储目录:db_data/instance-types_transitive.ttl.bz2" style="text;align=left;verticalAlign=top;spacingLeft=4;spacingRight=4;overflow=hidden;rotatable=0;points=[[0,0.5],[1,0.5]];portConstraint=eastwest;" vertex="1" parent="duncpzKBdpz41MOlvivD-36">
          <mxGeometry x="2" y="494" width="318" height="26" as="geometry" />
        </mxCell>
        <mxCell id="duncpzKBdpz41MOlvivD-364" value="" style="endArrow=none;html=1;rounded=0;exitX=-0.007;exitY=1.027;exitDx=0;exitDy=0;exitPerimeter=0;" edge="1" parent="duncpzKBdpz41MOlvivD-36">
          <mxGeometry width="50" height="50" relative="1" as="geometry">
            <mxPoint x="1" y="675" as="sourcePoint" />
            <mxPoint x="367" y="675" as="targetPoint" />
          </mxGeometry>
        </mxCell>
        <mxCell id="duncpzKBdpz41MOlvivD-363" value="" style="endArrow=none;html=1;rounded=0;exitX=-0.007;exitY=1.027;exitDx=0;exitDy=0;exitPerimeter=0;" edge="1" parent="duncpzKBdpz41MOlvivD-36">
          <mxGeometry width="50" height="50" relative="1" as="geometry">
            <mxPoint x="1" y="750" as="sourcePoint" />
            <mxPoint x="367" y="750" as="targetPoint" />
          </mxGeometry>
        </mxCell>
        <mxCell id="duncpzKBdpz41MOlvivD-365" value="数据名称:Qid实体类型表,一个实体对应多个分类(不全,没用上)" style="text;align=left;verticalAlign=top;spacingLeft=4;spacingRight=4;overflow=hidden;rotatable=0;points=[[0,0.5],[1,0.5]];portConstraint=eastwest;" vertex="1" parent="duncpzKBdpz41MOlvivD-36">
          <mxGeometry x="7" y="679" width="308" height="21" as="geometry" />
        </mxCell>
        <mxCell id="duncpzKBdpz41MOlvivD-366" value="下载相对路径:dbpedia » wikidata » instance-types/specific" style="text;align=left;verticalAlign=top;spacingLeft=4;spacingRight=4;overflow=hidden;rotatable=0;points=[[0,0.5],[1,0.5]];portConstraint=eastwest;" vertex="1" parent="duncpzKBdpz41MOlvivD-36">
          <mxGeometry x="5" y="700" width="349" height="21" as="geometry" />
        </mxCell>
        <mxCell id="duncpzKBdpz41MOlvivD-362" value="数据存储目录:db_data/instance-types_transitive.ttl.bz2" style="text;align=left;verticalAlign=top;spacingLeft=4;spacingRight=4;overflow=hidden;rotatable=0;points=[[0,0.5],[1,0.5]];portConstraint=eastwest;" vertex="1" parent="duncpzKBdpz41MOlvivD-36">
          <mxGeometry x="7" y="721" width="370" height="26" as="geometry" />
        </mxCell>
        <mxCell id="duncpzKBdpz41MOlvivD-379" value="数据名称:实体类型表,一个实体对应多个分类" style="text;align=left;verticalAlign=top;spacingLeft=4;spacingRight=4;overflow=hidden;rotatable=0;points=[[0,0.5],[1,0.5]];portConstraint=eastwest;" vertex="1" parent="duncpzKBdpz41MOlvivD-36">
          <mxGeometry x="1" y="934" width="308" height="21" as="geometry" />
        </mxCell>
        <mxCell id="duncpzKBdpz41MOlvivD-380" value="下载地址:dbpedia » text » short-abstracts/long-abstracts" style="text;align=left;verticalAlign=top;spacingLeft=4;spacingRight=4;overflow=hidden;rotatable=0;points=[[0,0.5],[1,0.5]];portConstraint=eastwest;" vertex="1" parent="duncpzKBdpz41MOlvivD-36">
          <mxGeometry x="0.5" y="955" width="349" height="21" as="geometry" />
        </mxCell>
        <mxCell id="duncpzKBdpz41MOlvivD-376" value="数据存储目录:db_data/long-abstracts_lang=en.ttl.bz2" style="text;align=left;verticalAlign=top;spacingLeft=4;spacingRight=4;overflow=hidden;rotatable=0;points=[[0,0.5],[1,0.5]];portConstraint=eastwest;" vertex="1" parent="duncpzKBdpz41MOlvivD-36">
          <mxGeometry x="2" y="976" width="370" height="26" as="geometry" />
        </mxCell>
        <mxCell id="duncpzKBdpz41MOlvivD-377" value="" style="endArrow=none;html=1;rounded=0;exitX=-0.007;exitY=1.027;exitDx=0;exitDy=0;exitPerimeter=0;entryX=1;entryY=1.008;entryDx=0;entryDy=0;entryPerimeter=0;" edge="1" parent="duncpzKBdpz41MOlvivD-36" target="duncpzKBdpz41MOlvivD-384">
          <mxGeometry width="50" height="50" relative="1" as="geometry">
            <mxPoint x="-1" y="1076" as="sourcePoint" />
            <mxPoint x="351" y="1076" as="targetPoint" />
            <Array as="points">
              <mxPoint x="181" y="1076" />
            </Array>
          </mxGeometry>
        </mxCell>
        <mxCell id="duncpzKBdpz41MOlvivD-378" value="" style="endArrow=none;html=1;rounded=0;exitX=-0.007;exitY=1.027;exitDx=0;exitDy=0;exitPerimeter=0;" edge="1" parent="duncpzKBdpz41MOlvivD-36">
          <mxGeometry width="50" height="50" relative="1" as="geometry">
            <mxPoint x="5" y="934" as="sourcePoint" />
            <mxPoint x="377" y="934" as="targetPoint" />
          </mxGeometry>
        </mxCell>
        <mxCell id="duncpzKBdpz41MOlvivD-389" value="下载相对路径:dbpedia » mappings » instance-types/specific" style="text;align=left;verticalAlign=top;spacingLeft=4;spacingRight=4;overflow=hidden;rotatable=0;points=[[0,0.5],[1,0.5]];portConstraint=eastwest;" vertex="1" parent="duncpzKBdpz41MOlvivD-36">
          <mxGeometry x="-0.5" y="1189" width="350" height="21" as="geometry" />
        </mxCell>
        <mxCell id="duncpzKBdpz41MOlvivD-401" value="数据名称:实体类型表,一个实体对应多个分类" style="text;align=left;verticalAlign=top;spacingLeft=4;spacingRight=4;overflow=hidden;rotatable=0;points=[[0,0.5],[1,0.5]];portConstraint=eastwest;" vertex="1" parent="duncpzKBdpz41MOlvivD-36">
          <mxGeometry x="7" y="1380" width="309" height="24" as="geometry" />
        </mxCell>
        <mxCell id="duncpzKBdpz41MOlvivD-398" value="数据存储目录:db_data/instance-types_lang=en_transitive.ttl.bz2" style="text;align=left;verticalAlign=top;spacingLeft=4;spacingRight=4;overflow=hidden;rotatable=0;points=[[0,0.5],[1,0.5]];portConstraint=eastwest;" vertex="1" parent="duncpzKBdpz41MOlvivD-36">
          <mxGeometry x="7" y="1425" width="351" height="25" as="geometry" />
        </mxCell>
        <mxCell id="duncpzKBdpz41MOlvivD-302" value="wikipedia数据来源" style="swimlane;whiteSpace=wrap;html=1;" vertex="1" parent="duncpzKBdpz41MOlvivD-23">
          <mxGeometry x="24" y="2766" width="376" height="224" as="geometry">
            <mxRectangle x="70" y="64" width="140" height="30" as="alternateBounds" />
          </mxGeometry>
        </mxCell>
        <mxCell id="duncpzKBdpz41MOlvivD-303" value="下载地址:https://dumps.wikimedia.org/enwiki/20230501" style="text;align=left;verticalAlign=top;spacingLeft=4;spacingRight=4;overflow=hidden;rotatable=0;points=[[0,0.5],[1,0.5]];portConstraint=eastwest;" vertex="1" parent="duncpzKBdpz41MOlvivD-302">
          <mxGeometry x="-1" y="29" width="391" height="21" as="geometry" />
        </mxCell>
        <mxCell id="duncpzKBdpz41MOlvivD-304" value="数据文件格式:bz2+页面特有格式" style="text;align=left;verticalAlign=top;spacingLeft=4;spacingRight=4;overflow=hidden;rotatable=0;points=[[0,0.5],[1,0.5]];portConstraint=eastwest;" vertex="1" parent="duncpzKBdpz41MOlvivD-302">
          <mxGeometry y="55" width="200" height="26" as="geometry" />
        </mxCell>
        <mxCell id="duncpzKBdpz41MOlvivD-305" value="数据存储目录:/wikipediadata/enwiki-20230501-pages-articles-multistream.xml.bz2" style="text;align=left;verticalAlign=top;spacingLeft=4;spacingRight=4;overflow=hidden;rotatable=0;points=[[0,0.5],[1,0.5]];portConstraint=eastwest;" vertex="1" parent="duncpzKBdpz41MOlvivD-302">
          <mxGeometry y="83" width="350" height="26" as="geometry" />
        </mxCell>
        <mxCell id="duncpzKBdpz41MOlvivD-306" value="数据处理程序:[7-1]wikipedia_0517.py" style="text;align=left;verticalAlign=top;spacingLeft=4;spacingRight=4;overflow=hidden;rotatable=0;points=[[0,0.5],[1,0.5]];portConstraint=eastwest;" vertex="1" parent="duncpzKBdpz41MOlvivD-302">
          <mxGeometry y="112" width="350" height="28" as="geometry" />
        </mxCell>
        <mxCell id="duncpzKBdpz41MOlvivD-435" value="下载程序入口:download_pediadata(proxies, dump_url, files, md5sumsref)" style="text;align=left;verticalAlign=top;spacingLeft=4;spacingRight=4;overflow=hidden;rotatable=0;points=[[0,0.5],[1,0.5]];portConstraint=eastwest;" vertex="1" parent="duncpzKBdpz41MOlvivD-302">
          <mxGeometry x="-1" y="140" width="351" height="28" as="geometry" />
        </mxCell>
        <mxCell id="duncpzKBdpz41MOlvivD-473" value="入库程序入口:WikiPageHadle(70)  " style="text;align=left;verticalAlign=top;spacingLeft=4;spacingRight=4;overflow=hidden;rotatable=0;points=[[0,0.5],[1,0.5]];portConstraint=eastwest;" vertex="1" parent="duncpzKBdpz41MOlvivD-302">
          <mxGeometry y="168" width="380" height="28" as="geometry" />
        </mxCell>
        <mxCell id="duncpzKBdpz41MOlvivD-42" value="                 wiki_history.wiki_20230302(数据表)" style="swimlane;fontStyle=2;align=center;verticalAlign=top;childLayout=stackLayout;horizontal=1;startSize=26;horizontalStack=0;resizeParent=1;resizeLast=0;collapsible=1;marginBottom=0;rounded=0;shadow=0;strokeWidth=1;" vertex="1" parent="WIyWlLk6GJQsqaUBKTNV-1">
          <mxGeometry x="503" y="240" width="277" height="810" as="geometry">
            <mxRectangle x="503" y="240" width="277" height="22" as="alternateBounds" />
          </mxGeometry>
        </mxCell>
        <mxCell id="duncpzKBdpz41MOlvivD-43" value="_id:id/例如Q6279,P31" style="text;align=left;verticalAlign=top;spacingLeft=4;spacingRight=4;overflow=hidden;rotatable=0;points=[[0,0.5],[1,0.5]];portConstraint=eastwest;" vertex="1" parent="duncpzKBdpz41MOlvivD-42">
          <mxGeometry y="26" width="277" height="26" as="geometry" />
        </mxCell>
        <mxCell id="duncpzKBdpz41MOlvivD-44" value="type:类型/item" style="text;align=left;verticalAlign=top;spacingLeft=4;spacingRight=4;overflow=hidden;rotatable=0;points=[[0,0.5],[1,0.5]];portConstraint=eastwest;rounded=0;shadow=0;html=0;" vertex="1" parent="duncpzKBdpz41MOlvivD-42">
          <mxGeometry y="52" width="277" height="26" as="geometry" />
        </mxCell>
        <mxCell id="duncpzKBdpz41MOlvivD-45" value="id:id/例如Q6279,P31" style="text;align=left;verticalAlign=top;spacingLeft=4;spacingRight=4;overflow=hidden;rotatable=0;points=[[0,0.5],[1,0.5]];portConstraint=eastwest;rounded=0;shadow=0;html=0;" vertex="1" parent="duncpzKBdpz41MOlvivD-42">
          <mxGeometry y="78" width="277" height="24" as="geometry" />
        </mxCell>
        <mxCell id="duncpzKBdpz41MOlvivD-63" value="labels:标签信息,各种语种的标签数据/{&#39;et&#39;: {&#39;language&#39;: &#39;et&#39;, &#39;value&#39;: &#39;Suurgildi hoone&#39;}, &#39;fr&#39;: {&#39;language&#39;: &#39;fr&#39;, &#39;value&#39;: &#39;Maison de la Grande Guilde&#39;}, &#39;en&#39;: {&#39;language&#39;: &#39;en&#39;, &#39;value&#39;: &#39;Great Guild Hall&#39;}, &#39;zh&#39;: {&#39;language&#39;: &#39;zh&#39;, &#39;value&#39;: &#39;大基爾特之屋&#39;}, &#39;ru&#39;: {&#39;language&#39;: &#39;ru&#39;, &#39;value&#39;: &#39;Здание Большой гильдии&#39;}, &#39;de&#39;: {&#39;language&#39;: &#39;de&#39;, &#39;value&#39;: &#39;Haus der Großen Gilde&#39;}, &#39;nl&#39;: {&#39;language&#39;: &#39;nl&#39;, &#39;value&#39;: &#39;Grote gildehal&#39;}, &#39;fi&#39;: {&#39;language&#39;: &#39;fi&#39;, &#39;value&#39;: &#39;Tallinnan suuren killan rakennus&#39;}}" style="text;align=left;verticalAlign=top;spacingLeft=4;spacingRight=4;overflow=hidden;rotatable=0;points=[[0,0.5],[1,0.5]];portConstraint=eastwest;rounded=0;shadow=0;html=0;" vertex="1" parent="duncpzKBdpz41MOlvivD-42">
          <mxGeometry y="102" width="277" height="24" as="geometry" />
        </mxCell>
        <mxCell id="duncpzKBdpz41MOlvivD-64" value="descriptions:各类语种的描述信息" style="text;align=left;verticalAlign=top;spacingLeft=4;spacingRight=4;overflow=hidden;rotatable=0;points=[[0,0.5],[1,0.5]];portConstraint=eastwest;rounded=0;shadow=0;html=0;" vertex="1" parent="duncpzKBdpz41MOlvivD-42">
          <mxGeometry y="126" width="277" height="24" as="geometry" />
        </mxCell>
        <mxCell id="duncpzKBdpz41MOlvivD-65" value="aliases:各类语种的别名信息" style="text;align=left;verticalAlign=top;spacingLeft=4;spacingRight=4;overflow=hidden;rotatable=0;points=[[0,0.5],[1,0.5]];portConstraint=eastwest;rounded=0;shadow=0;html=0;" vertex="1" parent="duncpzKBdpz41MOlvivD-42">
          <mxGeometry y="150" width="277" height="24" as="geometry" />
        </mxCell>
        <mxCell id="duncpzKBdpz41MOlvivD-66" value="claims:属性信息集合" style="text;align=left;verticalAlign=top;spacingLeft=4;spacingRight=4;overflow=hidden;rotatable=0;points=[[0,0.5],[1,0.5]];portConstraint=eastwest;rounded=0;shadow=0;html=0;" vertex="1" parent="duncpzKBdpz41MOlvivD-42">
          <mxGeometry y="174" width="277" height="24" as="geometry" />
        </mxCell>
        <mxCell id="duncpzKBdpz41MOlvivD-68" value="sitelinks:外链信息,包含wikipedia的关联信息" style="text;align=left;verticalAlign=top;spacingLeft=4;spacingRight=4;overflow=hidden;rotatable=0;points=[[0,0.5],[1,0.5]];portConstraint=eastwest;rounded=0;shadow=0;html=0;" vertex="1" parent="duncpzKBdpz41MOlvivD-42">
          <mxGeometry y="198" width="277" height="24" as="geometry" />
        </mxCell>
        <mxCell id="duncpzKBdpz41MOlvivD-69" value="pageid:页面id" style="text;align=left;verticalAlign=top;spacingLeft=4;spacingRight=4;overflow=hidden;rotatable=0;points=[[0,0.5],[1,0.5]];portConstraint=eastwest;rounded=0;shadow=0;html=0;" vertex="1" parent="duncpzKBdpz41MOlvivD-42">
          <mxGeometry y="222" width="277" height="24" as="geometry" />
        </mxCell>
        <mxCell id="duncpzKBdpz41MOlvivD-70" value="ns:未知" style="text;align=left;verticalAlign=top;spacingLeft=4;spacingRight=4;overflow=hidden;rotatable=0;points=[[0,0.5],[1,0.5]];portConstraint=eastwest;rounded=0;shadow=0;html=0;" vertex="1" parent="duncpzKBdpz41MOlvivD-42">
          <mxGeometry y="246" width="277" height="24" as="geometry" />
        </mxCell>
        <mxCell id="duncpzKBdpz41MOlvivD-71" value="title:等同于qid" style="text;align=left;verticalAlign=top;spacingLeft=4;spacingRight=4;overflow=hidden;rotatable=0;points=[[0,0.5],[1,0.5]];portConstraint=eastwest;rounded=0;shadow=0;html=0;" vertex="1" parent="duncpzKBdpz41MOlvivD-42">
          <mxGeometry y="270" width="277" height="24" as="geometry" />
        </mxCell>
        <mxCell id="duncpzKBdpz41MOlvivD-72" value="lastrevid:更新id/1842422562" style="text;align=left;verticalAlign=top;spacingLeft=4;spacingRight=4;overflow=hidden;rotatable=0;points=[[0,0.5],[1,0.5]];portConstraint=eastwest;rounded=0;shadow=0;html=0;" vertex="1" parent="duncpzKBdpz41MOlvivD-42">
          <mxGeometry y="294" width="277" height="24" as="geometry" />
        </mxCell>
        <mxCell id="duncpzKBdpz41MOlvivD-73" value="modified:修改时间/2022-08-26T05:47:04Z" style="text;align=left;verticalAlign=top;spacingLeft=4;spacingRight=4;overflow=hidden;rotatable=0;points=[[0,0.5],[1,0.5]];portConstraint=eastwest;rounded=0;shadow=0;html=0;" vertex="1" parent="duncpzKBdpz41MOlvivD-42">
          <mxGeometry y="318" width="277" height="24" as="geometry" />
        </mxCell>
        <mxCell id="duncpzKBdpz41MOlvivD-51" value="" style="shape=flexArrow;endArrow=classic;html=1;rounded=0;" edge="1" parent="WIyWlLk6GJQsqaUBKTNV-1">
          <mxGeometry width="50" height="50" relative="1" as="geometry">
            <mxPoint x="470" y="250" as="sourcePoint" />
            <mxPoint x="502" y="250" as="targetPoint" />
          </mxGeometry>
        </mxCell>
        <mxCell id="duncpzKBdpz41MOlvivD-54" value="                 wiki_history.wiki_history_20230302(版本管理表)" style="swimlane;fontStyle=2;align=center;verticalAlign=top;childLayout=stackLayout;horizontal=1;startSize=26;horizontalStack=0;resizeParent=1;resizeLast=0;collapsible=1;marginBottom=0;rounded=0;shadow=0;strokeWidth=1;" vertex="1" collapsed="1" parent="WIyWlLk6GJQsqaUBKTNV-1">
          <mxGeometry x="502" y="80" width="277" height="22" as="geometry">
            <mxRectangle x="502" y="80" width="158" height="130" as="alternateBounds" />
          </mxGeometry>
        </mxCell>
        <mxCell id="duncpzKBdpz41MOlvivD-55" value="_id:id/例如Q6279,P31" style="text;align=left;verticalAlign=top;spacingLeft=4;spacingRight=4;overflow=hidden;rotatable=0;points=[[0,0.5],[1,0.5]];portConstraint=eastwest;" vertex="1" parent="duncpzKBdpz41MOlvivD-54">
          <mxGeometry y="26" width="158" height="26" as="geometry" />
        </mxCell>
        <mxCell id="duncpzKBdpz41MOlvivD-56" value="instannce_of:分类/Q5" style="text;align=left;verticalAlign=top;spacingLeft=4;spacingRight=4;overflow=hidden;rotatable=0;points=[[0,0.5],[1,0.5]];portConstraint=eastwest;rounded=0;shadow=0;html=0;" vertex="1" parent="duncpzKBdpz41MOlvivD-54">
          <mxGeometry y="52" width="158" height="26" as="geometry" />
        </mxCell>
        <mxCell id="duncpzKBdpz41MOlvivD-57" value="fr.lastrevid:更新批次id/1844125169" style="text;align=left;verticalAlign=top;spacingLeft=4;spacingRight=4;overflow=hidden;rotatable=0;points=[[0,0.5],[1,0.5]];portConstraint=eastwest;rounded=0;shadow=0;html=0;" vertex="1" parent="duncpzKBdpz41MOlvivD-54">
          <mxGeometry y="78" width="158" height="24" as="geometry" />
        </mxCell>
        <mxCell id="duncpzKBdpz41MOlvivD-58" value="fr.modified:更新时间/2023-03-02" style="text;align=left;verticalAlign=top;spacingLeft=4;spacingRight=4;overflow=hidden;rotatable=0;points=[[0,0.5],[1,0.5]];portConstraint=eastwest;rounded=0;shadow=0;html=0;" vertex="1" parent="duncpzKBdpz41MOlvivD-54">
          <mxGeometry y="102" width="158" height="24" as="geometry" />
        </mxCell>
        <mxCell id="duncpzKBdpz41MOlvivD-62" value="" style="shape=flexArrow;endArrow=classic;html=1;rounded=0;" edge="1" parent="WIyWlLk6GJQsqaUBKTNV-1">
          <mxGeometry width="50" height="50" relative="1" as="geometry">
            <mxPoint x="470" y="90" as="sourcePoint" />
            <mxPoint x="502" y="90" as="targetPoint" />
          </mxGeometry>
        </mxCell>
        <mxCell id="duncpzKBdpz41MOlvivD-74" value="&lt;span style=&quot;font-size: 24px;&quot;&gt;wikidata&amp;nbsp; 数据加工清洗&lt;/span&gt;" style="swimlane;horizontal=0;whiteSpace=wrap;html=1;startSize=23;" vertex="1" parent="WIyWlLk6GJQsqaUBKTNV-1">
          <mxGeometry x="829" y="80" width="401" height="410" as="geometry">
            <mxRectangle x="30" y="295" width="70" height="270" as="alternateBounds" />
          </mxGeometry>
        </mxCell>
        <mxCell id="duncpzKBdpz41MOlvivD-75" value="拆解的属性表生成" style="swimlane;whiteSpace=wrap;html=1;" vertex="1" parent="duncpzKBdpz41MOlvivD-74">
          <mxGeometry x="30" y="20" width="370" height="360" as="geometry">
            <mxRectangle x="30" y="20" width="140" height="30" as="alternateBounds" />
          </mxGeometry>
        </mxCell>
        <mxCell id="duncpzKBdpz41MOlvivD-79" value="数据处理程序:[2-1] 双属性表生成pool_ck_20230411.py" style="text;align=left;verticalAlign=top;spacingLeft=4;spacingRight=4;overflow=hidden;rotatable=0;points=[[0,0.5],[1,0.5]];portConstraint=eastwest;" vertex="1" parent="duncpzKBdpz41MOlvivD-75">
          <mxGeometry y="30" width="370" height="28" as="geometry" />
        </mxCell>
        <mxCell id="duncpzKBdpz41MOlvivD-98" value="数据来源字段:claims" style="text;align=left;verticalAlign=top;spacingLeft=4;spacingRight=4;overflow=hidden;rotatable=0;points=[[0,0.5],[1,0.5]];portConstraint=eastwest;" vertex="1" parent="duncpzKBdpz41MOlvivD-75">
          <mxGeometry y="58" width="370" height="28" as="geometry" />
        </mxCell>
        <mxCell id="duncpzKBdpz41MOlvivD-99" value="功能说明:拆解claims,拆成pid,完全复原内部所有字段" style="text;align=left;verticalAlign=top;spacingLeft=4;spacingRight=4;overflow=hidden;rotatable=0;points=[[0,0.5],[1,0.5]];portConstraint=eastwest;" vertex="1" parent="duncpzKBdpz41MOlvivD-75">
          <mxGeometry y="86" width="370" height="28" as="geometry" />
        </mxCell>
        <mxCell id="duncpzKBdpz41MOlvivD-116" value="数据生成:属性表,属性的属性表" style="text;align=left;verticalAlign=top;spacingLeft=4;spacingRight=4;overflow=hidden;rotatable=0;points=[[0,0.5],[1,0.5]];portConstraint=eastwest;" vertex="1" parent="duncpzKBdpz41MOlvivD-75">
          <mxGeometry y="110" width="370" height="28" as="geometry" />
        </mxCell>
        <mxCell id="duncpzKBdpz41MOlvivD-136" value="" style="shape=flexArrow;endArrow=classic;html=1;rounded=0;entryX=0;entryY=0.25;entryDx=0;entryDy=0;" edge="1" parent="duncpzKBdpz41MOlvivD-75">
          <mxGeometry width="50" height="50" relative="1" as="geometry">
            <mxPoint x="355" y="270" as="sourcePoint" />
            <mxPoint x="485" y="272" as="targetPoint" />
          </mxGeometry>
        </mxCell>
        <mxCell id="duncpzKBdpz41MOlvivD-88" value="                 wiki_history.wiki_claims_v7(属性表)&#xa;" style="swimlane;fontStyle=2;align=center;verticalAlign=top;childLayout=stackLayout;horizontal=1;startSize=26;horizontalStack=0;resizeParent=1;resizeLast=0;collapsible=1;marginBottom=0;rounded=0;shadow=0;strokeWidth=1;" vertex="1" parent="WIyWlLk6GJQsqaUBKTNV-1">
          <mxGeometry x="1350" y="102" width="190" height="220" as="geometry">
            <mxRectangle x="1350" y="102" width="277" height="22" as="alternateBounds" />
          </mxGeometry>
        </mxCell>
        <mxCell id="duncpzKBdpz41MOlvivD-89" value="_id:id/例如Q6279,P31" style="text;align=left;verticalAlign=top;spacingLeft=4;spacingRight=4;overflow=hidden;rotatable=0;points=[[0,0.5],[1,0.5]];portConstraint=eastwest;" vertex="1" parent="duncpzKBdpz41MOlvivD-88">
          <mxGeometry y="26" width="190" height="26" as="geometry" />
        </mxCell>
        <mxCell id="duncpzKBdpz41MOlvivD-90" value="pid:属性id/P30" style="text;align=left;verticalAlign=top;spacingLeft=4;spacingRight=4;overflow=hidden;rotatable=0;points=[[0,0.5],[1,0.5]];portConstraint=eastwest;rounded=0;shadow=0;html=0;" vertex="1" parent="duncpzKBdpz41MOlvivD-88">
          <mxGeometry y="52" width="190" height="26" as="geometry" />
        </mxCell>
        <mxCell id="duncpzKBdpz41MOlvivD-91" value="mainsnak_snaktype:/value" style="text;align=left;verticalAlign=top;spacingLeft=4;spacingRight=4;overflow=hidden;rotatable=0;points=[[0,0.5],[1,0.5]];portConstraint=eastwest;rounded=0;shadow=0;html=0;" vertex="1" parent="duncpzKBdpz41MOlvivD-88">
          <mxGeometry y="78" width="190" height="24" as="geometry" />
        </mxCell>
        <mxCell id="duncpzKBdpz41MOlvivD-92" value="mainsnak_property:/P131" style="text;align=left;verticalAlign=top;spacingLeft=4;spacingRight=4;overflow=hidden;rotatable=0;points=[[0,0.5],[1,0.5]];portConstraint=eastwest;rounded=0;shadow=0;html=0;" vertex="1" parent="duncpzKBdpz41MOlvivD-88">
          <mxGeometry y="102" width="190" height="24" as="geometry" />
        </mxCell>
        <mxCell id="duncpzKBdpz41MOlvivD-100" value="mainsnak_datavalue_value:/Breighton South.jpg" style="text;align=left;verticalAlign=top;spacingLeft=4;spacingRight=4;overflow=hidden;rotatable=0;points=[[0,0.5],[1,0.5]];portConstraint=eastwest;rounded=0;shadow=0;html=0;" vertex="1" parent="duncpzKBdpz41MOlvivD-88">
          <mxGeometry y="126" width="190" height="24" as="geometry" />
        </mxCell>
        <mxCell id="duncpzKBdpz41MOlvivD-101" value="mainsnak_datavalue_type:/string" style="text;align=left;verticalAlign=top;spacingLeft=4;spacingRight=4;overflow=hidden;rotatable=0;points=[[0,0.5],[1,0.5]];portConstraint=eastwest;rounded=0;shadow=0;html=0;" vertex="1" parent="duncpzKBdpz41MOlvivD-88">
          <mxGeometry y="150" width="190" height="24" as="geometry" />
        </mxCell>
        <mxCell id="duncpzKBdpz41MOlvivD-102" value="mainsnak_datatype:/wikibase-item" style="text;align=left;verticalAlign=top;spacingLeft=4;spacingRight=4;overflow=hidden;rotatable=0;points=[[0,0.5],[1,0.5]];portConstraint=eastwest;rounded=0;shadow=0;html=0;" vertex="1" parent="duncpzKBdpz41MOlvivD-88">
          <mxGeometry y="174" width="190" height="24" as="geometry" />
        </mxCell>
        <mxCell id="duncpzKBdpz41MOlvivD-113" value="other:总计30多个属性" style="text;align=left;verticalAlign=top;spacingLeft=4;spacingRight=4;overflow=hidden;rotatable=0;points=[[0,0.5],[1,0.5]];portConstraint=eastwest;rounded=0;shadow=0;html=0;" vertex="1" parent="duncpzKBdpz41MOlvivD-88">
          <mxGeometry y="198" width="190" height="22" as="geometry" />
        </mxCell>
        <mxCell id="duncpzKBdpz41MOlvivD-115" value="" style="shape=flexArrow;endArrow=classic;html=1;rounded=0;" edge="1" parent="WIyWlLk6GJQsqaUBKTNV-1">
          <mxGeometry width="50" height="50" relative="1" as="geometry">
            <mxPoint x="1210" y="110" as="sourcePoint" />
            <mxPoint x="1340" y="110" as="targetPoint" />
          </mxGeometry>
        </mxCell>
        <mxCell id="duncpzKBdpz41MOlvivD-117" value="                 wiki_history.wiki_qualifiers_v7(属性的属性表)&#xa;" style="swimlane;fontStyle=2;align=center;verticalAlign=top;childLayout=stackLayout;horizontal=1;startSize=26;horizontalStack=0;resizeParent=1;resizeLast=0;collapsible=1;marginBottom=0;rounded=0;shadow=0;strokeWidth=1;" vertex="1" parent="WIyWlLk6GJQsqaUBKTNV-1">
          <mxGeometry x="1350" y="356" width="190" height="64" as="geometry">
            <mxRectangle x="1350" y="280" width="277" height="22" as="alternateBounds" />
          </mxGeometry>
        </mxCell>
        <mxCell id="duncpzKBdpz41MOlvivD-122" value="和上表类似" style="text;align=left;verticalAlign=top;spacingLeft=4;spacingRight=4;overflow=hidden;rotatable=0;points=[[0,0.5],[1,0.5]];portConstraint=eastwest;rounded=0;shadow=0;html=0;" vertex="1" parent="duncpzKBdpz41MOlvivD-117">
          <mxGeometry y="26" width="190" height="24" as="geometry" />
        </mxCell>
        <mxCell id="duncpzKBdpz41MOlvivD-137" value="&lt;span style=&quot;font-size: 24px;&quot;&gt;wikidata 实体结果表生成&lt;br&gt;&lt;/span&gt;" style="swimlane;horizontal=0;whiteSpace=wrap;html=1;startSize=23;" vertex="1" parent="WIyWlLk6GJQsqaUBKTNV-1">
          <mxGeometry x="1674" y="90" width="410" height="1200" as="geometry">
            <mxRectangle x="1674" y="90" width="70" height="270" as="alternateBounds" />
          </mxGeometry>
        </mxCell>
        <mxCell id="duncpzKBdpz41MOlvivD-138" value="wikidata 实体表生成" style="swimlane;whiteSpace=wrap;html=1;" vertex="1" parent="duncpzKBdpz41MOlvivD-137">
          <mxGeometry x="40" y="500" width="370" height="140" as="geometry">
            <mxRectangle x="30" y="20" width="140" height="30" as="alternateBounds" />
          </mxGeometry>
        </mxCell>
        <mxCell id="duncpzKBdpz41MOlvivD-139" value="数据处理程序:[3-1]wikidata基础表生成_item.py" style="text;align=left;verticalAlign=top;spacingLeft=4;spacingRight=4;overflow=hidden;rotatable=0;points=[[0,0.5],[1,0.5]];portConstraint=eastwest;" vertex="1" parent="duncpzKBdpz41MOlvivD-138">
          <mxGeometry y="30" width="370" height="28" as="geometry" />
        </mxCell>
        <mxCell id="duncpzKBdpz41MOlvivD-141" value="功能说明:生成实体表" style="text;align=left;verticalAlign=top;spacingLeft=4;spacingRight=4;overflow=hidden;rotatable=0;points=[[0,0.5],[1,0.5]];portConstraint=eastwest;" vertex="1" parent="duncpzKBdpz41MOlvivD-138">
          <mxGeometry y="59" width="370" height="28" as="geometry" />
        </mxCell>
        <mxCell id="duncpzKBdpz41MOlvivD-157" value="数据来源:wiki_20230302" style="text;align=left;verticalAlign=top;spacingLeft=4;spacingRight=4;overflow=hidden;rotatable=0;points=[[0,0.5],[1,0.5]];portConstraint=eastwest;" vertex="1" parent="duncpzKBdpz41MOlvivD-138">
          <mxGeometry y="87" width="370" height="28" as="geometry" />
        </mxCell>
        <mxCell id="duncpzKBdpz41MOlvivD-158" value="wikidata 属性表生成" style="swimlane;whiteSpace=wrap;html=1;" vertex="1" parent="duncpzKBdpz41MOlvivD-137">
          <mxGeometry x="38" y="10" width="370" height="140" as="geometry">
            <mxRectangle x="30" y="20" width="140" height="30" as="alternateBounds" />
          </mxGeometry>
        </mxCell>
        <mxCell id="duncpzKBdpz41MOlvivD-159" value="数据处理程序:[3-1]wikidata基础表生成_item_property_code_0412.py" style="text;align=left;verticalAlign=top;spacingLeft=4;spacingRight=4;overflow=hidden;rotatable=0;points=[[0,0.5],[1,0.5]];portConstraint=eastwest;" vertex="1" parent="duncpzKBdpz41MOlvivD-158">
          <mxGeometry y="30" width="370" height="28" as="geometry" />
        </mxCell>
        <mxCell id="duncpzKBdpz41MOlvivD-160" value="功能说明:生成属性表" style="text;align=left;verticalAlign=top;spacingLeft=4;spacingRight=4;overflow=hidden;rotatable=0;points=[[0,0.5],[1,0.5]];portConstraint=eastwest;" vertex="1" parent="duncpzKBdpz41MOlvivD-158">
          <mxGeometry y="59" width="370" height="28" as="geometry" />
        </mxCell>
        <mxCell id="duncpzKBdpz41MOlvivD-161" value="数据来源:wiki_claims_v7" style="text;align=left;verticalAlign=top;spacingLeft=4;spacingRight=4;overflow=hidden;rotatable=0;points=[[0,0.5],[1,0.5]];portConstraint=eastwest;" vertex="1" parent="duncpzKBdpz41MOlvivD-158">
          <mxGeometry y="87" width="370" height="28" as="geometry" />
        </mxCell>
        <mxCell id="duncpzKBdpz41MOlvivD-177" value="wikidata 属性的属性表生成" style="swimlane;whiteSpace=wrap;html=1;" vertex="1" parent="duncpzKBdpz41MOlvivD-137">
          <mxGeometry x="38" y="254" width="370" height="140" as="geometry">
            <mxRectangle x="30" y="20" width="140" height="30" as="alternateBounds" />
          </mxGeometry>
        </mxCell>
        <mxCell id="duncpzKBdpz41MOlvivD-178" value="数据处理程序:[3-1]wikidata基础表生成_item_property_property.py" style="text;align=left;verticalAlign=top;spacingLeft=4;spacingRight=4;overflow=hidden;rotatable=0;points=[[0,0.5],[1,0.5]];portConstraint=eastwest;" vertex="1" parent="duncpzKBdpz41MOlvivD-177">
          <mxGeometry y="30" width="370" height="28" as="geometry" />
        </mxCell>
        <mxCell id="duncpzKBdpz41MOlvivD-179" value="功能说明:生成属性的属性表" style="text;align=left;verticalAlign=top;spacingLeft=4;spacingRight=4;overflow=hidden;rotatable=0;points=[[0,0.5],[1,0.5]];portConstraint=eastwest;" vertex="1" parent="duncpzKBdpz41MOlvivD-177">
          <mxGeometry y="59" width="370" height="28" as="geometry" />
        </mxCell>
        <mxCell id="duncpzKBdpz41MOlvivD-180" value="数据来源:wiki_qualifiers_v7" style="text;align=left;verticalAlign=top;spacingLeft=4;spacingRight=4;overflow=hidden;rotatable=0;points=[[0,0.5],[1,0.5]];portConstraint=eastwest;" vertex="1" parent="duncpzKBdpz41MOlvivD-177">
          <mxGeometry y="87" width="370" height="28" as="geometry" />
        </mxCell>
        <mxCell id="duncpzKBdpz41MOlvivD-199" value="wikidata 属性字典表生成" style="swimlane;whiteSpace=wrap;html=1;" vertex="1" parent="duncpzKBdpz41MOlvivD-137">
          <mxGeometry x="38" y="700" width="370" height="140" as="geometry">
            <mxRectangle x="30" y="20" width="140" height="30" as="alternateBounds" />
          </mxGeometry>
        </mxCell>
        <mxCell id="duncpzKBdpz41MOlvivD-200" value="数据处理程序:[3-1]wikidata基础表生成_property.py" style="text;align=left;verticalAlign=top;spacingLeft=4;spacingRight=4;overflow=hidden;rotatable=0;points=[[0,0.5],[1,0.5]];portConstraint=eastwest;" vertex="1" parent="duncpzKBdpz41MOlvivD-199">
          <mxGeometry y="30" width="370" height="28" as="geometry" />
        </mxCell>
        <mxCell id="duncpzKBdpz41MOlvivD-201" value="功能说明:生成属性字典表" style="text;align=left;verticalAlign=top;spacingLeft=4;spacingRight=4;overflow=hidden;rotatable=0;points=[[0,0.5],[1,0.5]];portConstraint=eastwest;" vertex="1" parent="duncpzKBdpz41MOlvivD-199">
          <mxGeometry y="59" width="370" height="28" as="geometry" />
        </mxCell>
        <mxCell id="duncpzKBdpz41MOlvivD-202" value="数据来源:wiki_20230302" style="text;align=left;verticalAlign=top;spacingLeft=4;spacingRight=4;overflow=hidden;rotatable=0;points=[[0,0.5],[1,0.5]];portConstraint=eastwest;" vertex="1" parent="duncpzKBdpz41MOlvivD-199">
          <mxGeometry y="87" width="370" height="28" as="geometry" />
        </mxCell>
        <mxCell id="duncpzKBdpz41MOlvivD-419" value="wikidata,wikipedia关联表生成" style="swimlane;whiteSpace=wrap;html=1;" vertex="1" parent="duncpzKBdpz41MOlvivD-137">
          <mxGeometry x="38" y="897" width="370" height="140" as="geometry">
            <mxRectangle x="30" y="20" width="140" height="30" as="alternateBounds" />
          </mxGeometry>
        </mxCell>
        <mxCell id="duncpzKBdpz41MOlvivD-420" value="数据处理程序:[5-3]wikidata_wikipeida_关联_0420.py" style="text;align=left;verticalAlign=top;spacingLeft=4;spacingRight=4;overflow=hidden;rotatable=0;points=[[0,0.5],[1,0.5]];portConstraint=eastwest;" vertex="1" parent="duncpzKBdpz41MOlvivD-419">
          <mxGeometry y="30" width="370" height="28" as="geometry" />
        </mxCell>
        <mxCell id="duncpzKBdpz41MOlvivD-421" value="功能说明:生成wikidata_wikipedia对照表" style="text;align=left;verticalAlign=top;spacingLeft=4;spacingRight=4;overflow=hidden;rotatable=0;points=[[0,0.5],[1,0.5]];portConstraint=eastwest;" vertex="1" parent="duncpzKBdpz41MOlvivD-419">
          <mxGeometry y="59" width="370" height="28" as="geometry" />
        </mxCell>
        <mxCell id="duncpzKBdpz41MOlvivD-422" value="数据来源:wiki_20230302" style="text;align=left;verticalAlign=top;spacingLeft=4;spacingRight=4;overflow=hidden;rotatable=0;points=[[0,0.5],[1,0.5]];portConstraint=eastwest;" vertex="1" parent="duncpzKBdpz41MOlvivD-419">
          <mxGeometry y="87" width="370" height="28" as="geometry" />
        </mxCell>
        <mxCell id="duncpzKBdpz41MOlvivD-143" value="             wiki_history.item(实体表)" style="swimlane;fontStyle=2;align=center;verticalAlign=top;childLayout=stackLayout;horizontal=1;startSize=26;horizontalStack=0;resizeParent=1;resizeLast=0;collapsible=1;marginBottom=0;rounded=0;shadow=0;strokeWidth=1;" vertex="1" parent="WIyWlLk6GJQsqaUBKTNV-1">
          <mxGeometry x="2239" y="431" width="270" height="260" as="geometry">
            <mxRectangle x="503" y="240" width="277" height="22" as="alternateBounds" />
          </mxGeometry>
        </mxCell>
        <mxCell id="duncpzKBdpz41MOlvivD-144" value="id:id/例如Q6279" style="text;align=left;verticalAlign=top;spacingLeft=4;spacingRight=4;overflow=hidden;rotatable=0;points=[[0,0.5],[1,0.5]];portConstraint=eastwest;" vertex="1" parent="duncpzKBdpz41MOlvivD-143">
          <mxGeometry y="26" width="270" height="26" as="geometry" />
        </mxCell>
        <mxCell id="duncpzKBdpz41MOlvivD-145" value="modified:定义时间" style="text;align=left;verticalAlign=top;spacingLeft=4;spacingRight=4;overflow=hidden;rotatable=0;points=[[0,0.5],[1,0.5]];portConstraint=eastwest;rounded=0;shadow=0;html=0;" vertex="1" parent="duncpzKBdpz41MOlvivD-143">
          <mxGeometry y="52" width="270" height="26" as="geometry" />
        </mxCell>
        <mxCell id="duncpzKBdpz41MOlvivD-146" value="name:中文名称" style="text;align=left;verticalAlign=top;spacingLeft=4;spacingRight=4;overflow=hidden;rotatable=0;points=[[0,0.5],[1,0.5]];portConstraint=eastwest;rounded=0;shadow=0;html=0;" vertex="1" parent="duncpzKBdpz41MOlvivD-143">
          <mxGeometry y="78" width="270" height="24" as="geometry" />
        </mxCell>
        <mxCell id="duncpzKBdpz41MOlvivD-147" value="name_en:英文名称" style="text;align=left;verticalAlign=top;spacingLeft=4;spacingRight=4;overflow=hidden;rotatable=0;points=[[0,0.5],[1,0.5]];portConstraint=eastwest;rounded=0;shadow=0;html=0;" vertex="1" parent="duncpzKBdpz41MOlvivD-143">
          <mxGeometry y="102" width="270" height="24" as="geometry" />
        </mxCell>
        <mxCell id="duncpzKBdpz41MOlvivD-148" value="desc:中文描述" style="text;align=left;verticalAlign=top;spacingLeft=4;spacingRight=4;overflow=hidden;rotatable=0;points=[[0,0.5],[1,0.5]];portConstraint=eastwest;rounded=0;shadow=0;html=0;" vertex="1" parent="duncpzKBdpz41MOlvivD-143">
          <mxGeometry y="126" width="270" height="24" as="geometry" />
        </mxCell>
        <mxCell id="duncpzKBdpz41MOlvivD-149" value="desc_en:英文描述" style="text;align=left;verticalAlign=top;spacingLeft=4;spacingRight=4;overflow=hidden;rotatable=0;points=[[0,0.5],[1,0.5]];portConstraint=eastwest;rounded=0;shadow=0;html=0;" vertex="1" parent="duncpzKBdpz41MOlvivD-143">
          <mxGeometry y="150" width="270" height="24" as="geometry" />
        </mxCell>
        <mxCell id="duncpzKBdpz41MOlvivD-150" value="aliases:中文别名" style="text;align=left;verticalAlign=top;spacingLeft=4;spacingRight=4;overflow=hidden;rotatable=0;points=[[0,0.5],[1,0.5]];portConstraint=eastwest;rounded=0;shadow=0;html=0;" vertex="1" parent="duncpzKBdpz41MOlvivD-143">
          <mxGeometry y="174" width="270" height="24" as="geometry" />
        </mxCell>
        <mxCell id="duncpzKBdpz41MOlvivD-151" value="aliases_en:英文别名" style="text;align=left;verticalAlign=top;spacingLeft=4;spacingRight=4;overflow=hidden;rotatable=0;points=[[0,0.5],[1,0.5]];portConstraint=eastwest;rounded=0;shadow=0;html=0;" vertex="1" parent="duncpzKBdpz41MOlvivD-143">
          <mxGeometry y="198" width="270" height="24" as="geometry" />
        </mxCell>
        <mxCell id="duncpzKBdpz41MOlvivD-152" value="aliases_all:所有别名" style="text;align=left;verticalAlign=top;spacingLeft=4;spacingRight=4;overflow=hidden;rotatable=0;points=[[0,0.5],[1,0.5]];portConstraint=eastwest;rounded=0;shadow=0;html=0;" vertex="1" parent="duncpzKBdpz41MOlvivD-143">
          <mxGeometry y="222" width="270" height="24" as="geometry" />
        </mxCell>
        <mxCell id="duncpzKBdpz41MOlvivD-162" value="             wiki_history.item_property(属性表)" style="swimlane;fontStyle=2;align=center;verticalAlign=top;childLayout=stackLayout;horizontal=1;startSize=26;horizontalStack=0;resizeParent=1;resizeLast=0;collapsible=1;marginBottom=0;rounded=0;shadow=0;strokeWidth=1;" vertex="1" parent="WIyWlLk6GJQsqaUBKTNV-1">
          <mxGeometry x="2239" y="100" width="270" height="180" as="geometry">
            <mxRectangle x="503" y="240" width="277" height="22" as="alternateBounds" />
          </mxGeometry>
        </mxCell>
        <mxCell id="duncpzKBdpz41MOlvivD-163" value="id:属性对应的唯一id/例如Q74$a03e9b5a-4245-b92e-739a-815893e23f01" style="text;align=left;verticalAlign=top;spacingLeft=4;spacingRight=4;overflow=hidden;rotatable=0;points=[[0,0.5],[1,0.5]];portConstraint=eastwest;" vertex="1" parent="duncpzKBdpz41MOlvivD-162">
          <mxGeometry y="26" width="270" height="26" as="geometry" />
        </mxCell>
        <mxCell id="duncpzKBdpz41MOlvivD-164" value="qid:实体id/Q74" style="text;align=left;verticalAlign=top;spacingLeft=4;spacingRight=4;overflow=hidden;rotatable=0;points=[[0,0.5],[1,0.5]];portConstraint=eastwest;rounded=0;shadow=0;html=0;" vertex="1" parent="duncpzKBdpz41MOlvivD-162">
          <mxGeometry y="52" width="270" height="26" as="geometry" />
        </mxCell>
        <mxCell id="duncpzKBdpz41MOlvivD-654" value="" style="endArrow=classic;html=1;rounded=0;entryX=0;entryY=0.25;entryDx=0;entryDy=0;" edge="1" parent="duncpzKBdpz41MOlvivD-162" target="duncpzKBdpz41MOlvivD-637">
          <mxGeometry width="50" height="50" relative="1" as="geometry">
            <mxPoint x="1" y="130" as="sourcePoint" />
            <mxPoint x="51" y="80" as="targetPoint" />
            <Array as="points">
              <mxPoint x="-29" y="130" />
              <mxPoint x="-39" y="1420" />
            </Array>
          </mxGeometry>
        </mxCell>
        <mxCell id="duncpzKBdpz41MOlvivD-165" value="pid:属性id/P131" style="text;align=left;verticalAlign=top;spacingLeft=4;spacingRight=4;overflow=hidden;rotatable=0;points=[[0,0.5],[1,0.5]];portConstraint=eastwest;rounded=0;shadow=0;html=0;" vertex="1" parent="duncpzKBdpz41MOlvivD-162">
          <mxGeometry y="78" width="270" height="24" as="geometry" />
        </mxCell>
        <mxCell id="duncpzKBdpz41MOlvivD-166" value="datatype:数据类型/wikibase-item,external-id,commonsMedia等" style="text;align=left;verticalAlign=top;spacingLeft=4;spacingRight=4;overflow=hidden;rotatable=0;points=[[0,0.5],[1,0.5]];portConstraint=eastwest;rounded=0;shadow=0;html=0;" vertex="1" parent="duncpzKBdpz41MOlvivD-162">
          <mxGeometry y="102" width="270" height="24" as="geometry" />
        </mxCell>
        <mxCell id="duncpzKBdpz41MOlvivD-167" value="valuetype:值类型/Q_item,String" style="text;align=left;verticalAlign=top;spacingLeft=4;spacingRight=4;overflow=hidden;rotatable=0;points=[[0,0.5],[1,0.5]];portConstraint=eastwest;rounded=0;shadow=0;html=0;" vertex="1" parent="duncpzKBdpz41MOlvivD-162">
          <mxGeometry y="126" width="270" height="24" as="geometry" />
        </mxCell>
        <mxCell id="duncpzKBdpz41MOlvivD-168" value="datavalue:值/-3.386 | Q22137107 | -3.347 | -3.425" style="text;align=left;verticalAlign=top;spacingLeft=4;spacingRight=4;overflow=hidden;rotatable=0;points=[[0,0.5],[1,0.5]];portConstraint=eastwest;rounded=0;shadow=0;html=0;" vertex="1" parent="duncpzKBdpz41MOlvivD-162">
          <mxGeometry y="150" width="270" height="20" as="geometry" />
        </mxCell>
        <mxCell id="duncpzKBdpz41MOlvivD-181" value="             wiki_history.item_property_property(属性的属性表)" style="swimlane;fontStyle=2;align=center;verticalAlign=top;childLayout=stackLayout;horizontal=1;startSize=26;horizontalStack=0;resizeParent=1;resizeLast=0;collapsible=1;marginBottom=0;rounded=0;shadow=0;strokeWidth=1;" vertex="1" parent="WIyWlLk6GJQsqaUBKTNV-1">
          <mxGeometry x="2239" y="341" width="271" height="60" as="geometry">
            <mxRectangle x="503" y="240" width="277" height="22" as="alternateBounds" />
          </mxGeometry>
        </mxCell>
        <mxCell id="duncpzKBdpz41MOlvivD-182" value="同上图" style="text;align=left;verticalAlign=top;spacingLeft=4;spacingRight=4;overflow=hidden;rotatable=0;points=[[0,0.5],[1,0.5]];portConstraint=eastwest;" vertex="1" parent="duncpzKBdpz41MOlvivD-181">
          <mxGeometry y="26" width="271" height="24" as="geometry" />
        </mxCell>
        <mxCell id="duncpzKBdpz41MOlvivD-203" value="             wiki_history.property(属性字典表)" style="swimlane;fontStyle=2;align=center;verticalAlign=top;childLayout=stackLayout;horizontal=1;startSize=26;horizontalStack=0;resizeParent=1;resizeLast=0;collapsible=1;marginBottom=0;rounded=0;shadow=0;strokeWidth=1;" vertex="1" parent="WIyWlLk6GJQsqaUBKTNV-1">
          <mxGeometry x="2239" y="724" width="270" height="260" as="geometry">
            <mxRectangle x="503" y="240" width="277" height="22" as="alternateBounds" />
          </mxGeometry>
        </mxCell>
        <mxCell id="duncpzKBdpz41MOlvivD-204" value="id:id/例如Q6279" style="text;align=left;verticalAlign=top;spacingLeft=4;spacingRight=4;overflow=hidden;rotatable=0;points=[[0,0.5],[1,0.5]];portConstraint=eastwest;" vertex="1" parent="duncpzKBdpz41MOlvivD-203">
          <mxGeometry y="26" width="270" height="26" as="geometry" />
        </mxCell>
        <mxCell id="duncpzKBdpz41MOlvivD-205" value="modified:定义时间" style="text;align=left;verticalAlign=top;spacingLeft=4;spacingRight=4;overflow=hidden;rotatable=0;points=[[0,0.5],[1,0.5]];portConstraint=eastwest;rounded=0;shadow=0;html=0;" vertex="1" parent="duncpzKBdpz41MOlvivD-203">
          <mxGeometry y="52" width="270" height="26" as="geometry" />
        </mxCell>
        <mxCell id="duncpzKBdpz41MOlvivD-206" value="name:中文名称" style="text;align=left;verticalAlign=top;spacingLeft=4;spacingRight=4;overflow=hidden;rotatable=0;points=[[0,0.5],[1,0.5]];portConstraint=eastwest;rounded=0;shadow=0;html=0;" vertex="1" parent="duncpzKBdpz41MOlvivD-203">
          <mxGeometry y="78" width="270" height="24" as="geometry" />
        </mxCell>
        <mxCell id="duncpzKBdpz41MOlvivD-207" value="name_en:英文名称" style="text;align=left;verticalAlign=top;spacingLeft=4;spacingRight=4;overflow=hidden;rotatable=0;points=[[0,0.5],[1,0.5]];portConstraint=eastwest;rounded=0;shadow=0;html=0;" vertex="1" parent="duncpzKBdpz41MOlvivD-203">
          <mxGeometry y="102" width="270" height="24" as="geometry" />
        </mxCell>
        <mxCell id="duncpzKBdpz41MOlvivD-208" value="desc:中文描述" style="text;align=left;verticalAlign=top;spacingLeft=4;spacingRight=4;overflow=hidden;rotatable=0;points=[[0,0.5],[1,0.5]];portConstraint=eastwest;rounded=0;shadow=0;html=0;" vertex="1" parent="duncpzKBdpz41MOlvivD-203">
          <mxGeometry y="126" width="270" height="24" as="geometry" />
        </mxCell>
        <mxCell id="duncpzKBdpz41MOlvivD-209" value="desc_en:英文描述" style="text;align=left;verticalAlign=top;spacingLeft=4;spacingRight=4;overflow=hidden;rotatable=0;points=[[0,0.5],[1,0.5]];portConstraint=eastwest;rounded=0;shadow=0;html=0;" vertex="1" parent="duncpzKBdpz41MOlvivD-203">
          <mxGeometry y="150" width="270" height="24" as="geometry" />
        </mxCell>
        <mxCell id="duncpzKBdpz41MOlvivD-210" value="aliases:中文别名" style="text;align=left;verticalAlign=top;spacingLeft=4;spacingRight=4;overflow=hidden;rotatable=0;points=[[0,0.5],[1,0.5]];portConstraint=eastwest;rounded=0;shadow=0;html=0;" vertex="1" parent="duncpzKBdpz41MOlvivD-203">
          <mxGeometry y="174" width="270" height="24" as="geometry" />
        </mxCell>
        <mxCell id="duncpzKBdpz41MOlvivD-211" value="aliases_en:英文别名" style="text;align=left;verticalAlign=top;spacingLeft=4;spacingRight=4;overflow=hidden;rotatable=0;points=[[0,0.5],[1,0.5]];portConstraint=eastwest;rounded=0;shadow=0;html=0;" vertex="1" parent="duncpzKBdpz41MOlvivD-203">
          <mxGeometry y="198" width="270" height="24" as="geometry" />
        </mxCell>
        <mxCell id="duncpzKBdpz41MOlvivD-212" value="aliases_all:所有别名" style="text;align=left;verticalAlign=top;spacingLeft=4;spacingRight=4;overflow=hidden;rotatable=0;points=[[0,0.5],[1,0.5]];portConstraint=eastwest;rounded=0;shadow=0;html=0;" vertex="1" parent="duncpzKBdpz41MOlvivD-203">
          <mxGeometry y="222" width="270" height="24" as="geometry" />
        </mxCell>
        <mxCell id="duncpzKBdpz41MOlvivD-221" value="" style="shape=flexArrow;endArrow=classic;html=1;rounded=0;entryX=0.002;entryY=0.78;entryDx=0;entryDy=0;entryPerimeter=0;" edge="1" parent="WIyWlLk6GJQsqaUBKTNV-1" target="duncpzKBdpz41MOlvivD-74">
          <mxGeometry width="50" height="50" relative="1" as="geometry">
            <mxPoint x="780" y="400" as="sourcePoint" />
            <mxPoint x="820" y="400" as="targetPoint" />
          </mxGeometry>
        </mxCell>
        <mxCell id="duncpzKBdpz41MOlvivD-222" value="" style="shape=flexArrow;endArrow=classic;html=1;rounded=0;" edge="1" parent="WIyWlLk6GJQsqaUBKTNV-1">
          <mxGeometry width="50" height="50" relative="1" as="geometry">
            <mxPoint x="1540" y="150" as="sourcePoint" />
            <mxPoint x="1660" y="150" as="targetPoint" />
          </mxGeometry>
        </mxCell>
        <mxCell id="duncpzKBdpz41MOlvivD-224" value="" style="shape=flexArrow;endArrow=classic;html=1;rounded=0;" edge="1" parent="WIyWlLk6GJQsqaUBKTNV-1">
          <mxGeometry width="50" height="50" relative="1" as="geometry">
            <mxPoint x="1540" y="390" as="sourcePoint" />
            <mxPoint x="1660" y="390" as="targetPoint" />
          </mxGeometry>
        </mxCell>
        <mxCell id="duncpzKBdpz41MOlvivD-225" value="" style="shape=flexArrow;endArrow=classic;html=1;rounded=0;" edge="1" parent="WIyWlLk6GJQsqaUBKTNV-1">
          <mxGeometry width="50" height="50" relative="1" as="geometry">
            <mxPoint x="2084" y="180" as="sourcePoint" />
            <mxPoint x="2204" y="180" as="targetPoint" />
          </mxGeometry>
        </mxCell>
        <mxCell id="duncpzKBdpz41MOlvivD-226" value="" style="shape=flexArrow;endArrow=classic;html=1;rounded=0;" edge="1" parent="WIyWlLk6GJQsqaUBKTNV-1">
          <mxGeometry width="50" height="50" relative="1" as="geometry">
            <mxPoint x="2084" y="360" as="sourcePoint" />
            <mxPoint x="2204" y="360" as="targetPoint" />
          </mxGeometry>
        </mxCell>
        <mxCell id="duncpzKBdpz41MOlvivD-227" value="" style="shape=flexArrow;endArrow=classic;html=1;rounded=0;" edge="1" parent="WIyWlLk6GJQsqaUBKTNV-1">
          <mxGeometry width="50" height="50" relative="1" as="geometry">
            <mxPoint x="2084" y="630" as="sourcePoint" />
            <mxPoint x="2204" y="630" as="targetPoint" />
          </mxGeometry>
        </mxCell>
        <mxCell id="duncpzKBdpz41MOlvivD-228" value="" style="shape=flexArrow;endArrow=classic;html=1;rounded=0;" edge="1" parent="WIyWlLk6GJQsqaUBKTNV-1">
          <mxGeometry width="50" height="50" relative="1" as="geometry">
            <mxPoint x="2084" y="840" as="sourcePoint" />
            <mxPoint x="2204" y="840" as="targetPoint" />
            <Array as="points">
              <mxPoint x="2140" y="840" />
            </Array>
          </mxGeometry>
        </mxCell>
        <mxCell id="duncpzKBdpz41MOlvivD-229" value="" style="shape=flexArrow;endArrow=classic;html=1;rounded=0;entryX=-0.014;entryY=0.513;entryDx=0;entryDy=0;entryPerimeter=0;" edge="1" parent="WIyWlLk6GJQsqaUBKTNV-1">
          <mxGeometry width="50" height="50" relative="1" as="geometry">
            <mxPoint x="780" y="600" as="sourcePoint" />
            <mxPoint x="1658.2600000000002" y="608.1300000000001" as="targetPoint" />
          </mxGeometry>
        </mxCell>
        <mxCell id="duncpzKBdpz41MOlvivD-231" value="" style="shape=flexArrow;endArrow=classic;html=1;rounded=0;" edge="1" parent="WIyWlLk6GJQsqaUBKTNV-1">
          <mxGeometry width="50" height="50" relative="1" as="geometry">
            <mxPoint x="780" y="835" as="sourcePoint" />
            <mxPoint x="1660" y="845" as="targetPoint" />
          </mxGeometry>
        </mxCell>
        <mxCell id="duncpzKBdpz41MOlvivD-232" value="&lt;span style=&quot;font-size: 24px;&quot;&gt;应用表生成&lt;br&gt;&lt;/span&gt;" style="swimlane;horizontal=0;whiteSpace=wrap;html=1;startSize=23;" vertex="1" parent="WIyWlLk6GJQsqaUBKTNV-1">
          <mxGeometry x="2640" y="100" width="410" height="890" as="geometry">
            <mxRectangle x="1674" y="90" width="70" height="270" as="alternateBounds" />
          </mxGeometry>
        </mxCell>
        <mxCell id="duncpzKBdpz41MOlvivD-237" value="类实体生成" style="swimlane;whiteSpace=wrap;html=1;" vertex="1" parent="duncpzKBdpz41MOlvivD-232">
          <mxGeometry x="38" y="10" width="370" height="140" as="geometry">
            <mxRectangle x="30" y="20" width="140" height="30" as="alternateBounds" />
          </mxGeometry>
        </mxCell>
        <mxCell id="duncpzKBdpz41MOlvivD-238" value="数据处理程序:[4-2]生成分类表code_0412.py" style="text;align=left;verticalAlign=top;spacingLeft=4;spacingRight=4;overflow=hidden;rotatable=0;points=[[0,0.5],[1,0.5]];portConstraint=eastwest;" vertex="1" parent="duncpzKBdpz41MOlvivD-237">
          <mxGeometry y="30" width="370" height="28" as="geometry" />
        </mxCell>
        <mxCell id="duncpzKBdpz41MOlvivD-239" value="功能说明:生成类实体,通过筛选属性P31获取所有类型" style="text;align=left;verticalAlign=top;spacingLeft=4;spacingRight=4;overflow=hidden;rotatable=0;points=[[0,0.5],[1,0.5]];portConstraint=eastwest;" vertex="1" parent="duncpzKBdpz41MOlvivD-237">
          <mxGeometry y="59" width="370" height="28" as="geometry" />
        </mxCell>
        <mxCell id="duncpzKBdpz41MOlvivD-240" value="数据来源:item 实体表&#xa;               item_property实体属性表" style="text;align=left;verticalAlign=top;spacingLeft=4;spacingRight=4;overflow=hidden;rotatable=0;points=[[0,0.5],[1,0.5]];portConstraint=eastwest;" vertex="1" parent="duncpzKBdpz41MOlvivD-237">
          <mxGeometry y="87" width="370" height="28" as="geometry" />
        </mxCell>
        <mxCell id="duncpzKBdpz41MOlvivD-276" value="类实体的schema生成" style="swimlane;whiteSpace=wrap;html=1;startSize=23;" vertex="1" parent="duncpzKBdpz41MOlvivD-232">
          <mxGeometry x="38" y="345" width="370" height="140" as="geometry">
            <mxRectangle x="30" y="20" width="140" height="30" as="alternateBounds" />
          </mxGeometry>
        </mxCell>
        <mxCell id="duncpzKBdpz41MOlvivD-277" value="数据处理程序:[4-3]共同属性生成code_0412.py" style="text;align=left;verticalAlign=top;spacingLeft=4;spacingRight=4;overflow=hidden;rotatable=0;points=[[0,0.5],[1,0.5]];portConstraint=eastwest;" vertex="1" parent="duncpzKBdpz41MOlvivD-276">
          <mxGeometry y="30" width="370" height="28" as="geometry" />
        </mxCell>
        <mxCell id="duncpzKBdpz41MOlvivD-278" value="功能说明:生成schema对应列,以及列的属性拥有率" style="text;align=left;verticalAlign=top;spacingLeft=4;spacingRight=4;overflow=hidden;rotatable=0;points=[[0,0.5],[1,0.5]];portConstraint=eastwest;" vertex="1" parent="duncpzKBdpz41MOlvivD-276">
          <mxGeometry y="59" width="370" height="28" as="geometry" />
        </mxCell>
        <mxCell id="duncpzKBdpz41MOlvivD-279" value="数据来源:property  属性字典表&#xa;               item_property实体属性表" style="text;align=left;verticalAlign=top;spacingLeft=4;spacingRight=4;overflow=hidden;rotatable=0;points=[[0,0.5],[1,0.5]];portConstraint=eastwest;" vertex="1" parent="duncpzKBdpz41MOlvivD-276">
          <mxGeometry y="87" width="370" height="28" as="geometry" />
        </mxCell>
        <mxCell id="duncpzKBdpz41MOlvivD-293" value="实体的类型可靠性分析" style="swimlane;whiteSpace=wrap;html=1;startSize=23;" vertex="1" parent="duncpzKBdpz41MOlvivD-232">
          <mxGeometry x="38" y="660" width="370" height="140" as="geometry">
            <mxRectangle x="30" y="20" width="140" height="30" as="alternateBounds" />
          </mxGeometry>
        </mxCell>
        <mxCell id="duncpzKBdpz41MOlvivD-294" value="数据处理程序:[4-4]实体分类准确率生成code_0413.py" style="text;align=left;verticalAlign=top;spacingLeft=4;spacingRight=4;overflow=hidden;rotatable=0;points=[[0,0.5],[1,0.5]];portConstraint=eastwest;" vertex="1" parent="duncpzKBdpz41MOlvivD-293">
          <mxGeometry y="30" width="370" height="28" as="geometry" />
        </mxCell>
        <mxCell id="duncpzKBdpz41MOlvivD-295" value="功能说明:生成实体分类得分" style="text;align=left;verticalAlign=top;spacingLeft=4;spacingRight=4;overflow=hidden;rotatable=0;points=[[0,0.5],[1,0.5]];portConstraint=eastwest;" vertex="1" parent="duncpzKBdpz41MOlvivD-293">
          <mxGeometry y="59" width="370" height="28" as="geometry" />
        </mxCell>
        <mxCell id="duncpzKBdpz41MOlvivD-296" value="数据来源:item_classpro  类属性表&#xa;               item_property实体属性表" style="text;align=left;verticalAlign=top;spacingLeft=4;spacingRight=4;overflow=hidden;rotatable=0;points=[[0,0.5],[1,0.5]];portConstraint=eastwest;" vertex="1" parent="duncpzKBdpz41MOlvivD-293">
          <mxGeometry y="87" width="370" height="28" as="geometry" />
        </mxCell>
        <mxCell id="duncpzKBdpz41MOlvivD-249" value="             wiki_history.item_class(类属性表)" style="swimlane;fontStyle=2;align=center;verticalAlign=top;childLayout=stackLayout;horizontal=1;startSize=26;horizontalStack=0;resizeParent=1;resizeLast=0;collapsible=1;marginBottom=0;rounded=0;shadow=0;strokeWidth=1;" vertex="1" parent="WIyWlLk6GJQsqaUBKTNV-1">
          <mxGeometry x="3190" y="110" width="270" height="280" as="geometry">
            <mxRectangle x="503" y="240" width="277" height="22" as="alternateBounds" />
          </mxGeometry>
        </mxCell>
        <mxCell id="duncpzKBdpz41MOlvivD-250" value="no:编号,1开头递增的id" style="text;align=left;verticalAlign=top;spacingLeft=4;spacingRight=4;overflow=hidden;rotatable=0;points=[[0,0.5],[1,0.5]];portConstraint=eastwest;" vertex="1" parent="duncpzKBdpz41MOlvivD-249">
          <mxGeometry y="26" width="270" height="26" as="geometry" />
        </mxCell>
        <mxCell id="duncpzKBdpz41MOlvivD-251" value="classcount:统计类总量" style="text;align=left;verticalAlign=top;spacingLeft=4;spacingRight=4;overflow=hidden;rotatable=0;points=[[0,0.5],[1,0.5]];portConstraint=eastwest;rounded=0;shadow=0;html=0;" vertex="1" parent="duncpzKBdpz41MOlvivD-249">
          <mxGeometry y="52" width="270" height="26" as="geometry" />
        </mxCell>
        <mxCell id="duncpzKBdpz41MOlvivD-252" value="id:类的qid" style="text;align=left;verticalAlign=top;spacingLeft=4;spacingRight=4;overflow=hidden;rotatable=0;points=[[0,0.5],[1,0.5]];portConstraint=eastwest;rounded=0;shadow=0;html=0;" vertex="1" parent="duncpzKBdpz41MOlvivD-249">
          <mxGeometry y="78" width="270" height="24" as="geometry" />
        </mxCell>
        <mxCell id="duncpzKBdpz41MOlvivD-253" value="modified:修改时间" style="text;align=left;verticalAlign=top;spacingLeft=4;spacingRight=4;overflow=hidden;rotatable=0;points=[[0,0.5],[1,0.5]];portConstraint=eastwest;rounded=0;shadow=0;html=0;" vertex="1" parent="duncpzKBdpz41MOlvivD-249">
          <mxGeometry y="102" width="270" height="24" as="geometry" />
        </mxCell>
        <mxCell id="duncpzKBdpz41MOlvivD-254" value="name:中文名" style="text;align=left;verticalAlign=top;spacingLeft=4;spacingRight=4;overflow=hidden;rotatable=0;points=[[0,0.5],[1,0.5]];portConstraint=eastwest;rounded=0;shadow=0;html=0;" vertex="1" parent="duncpzKBdpz41MOlvivD-249">
          <mxGeometry y="126" width="270" height="24" as="geometry" />
        </mxCell>
        <mxCell id="duncpzKBdpz41MOlvivD-255" value="name_en:英文名" style="text;align=left;verticalAlign=top;spacingLeft=4;spacingRight=4;overflow=hidden;rotatable=0;points=[[0,0.5],[1,0.5]];portConstraint=eastwest;rounded=0;shadow=0;html=0;" vertex="1" parent="duncpzKBdpz41MOlvivD-249">
          <mxGeometry y="150" width="270" height="20" as="geometry" />
        </mxCell>
        <mxCell id="duncpzKBdpz41MOlvivD-256" value="desc:中文描述信息" style="text;align=left;verticalAlign=top;spacingLeft=4;spacingRight=4;overflow=hidden;rotatable=0;points=[[0,0.5],[1,0.5]];portConstraint=eastwest;rounded=0;shadow=0;html=0;" vertex="1" parent="duncpzKBdpz41MOlvivD-249">
          <mxGeometry y="170" width="270" height="20" as="geometry" />
        </mxCell>
        <mxCell id="duncpzKBdpz41MOlvivD-257" value="desc_en:英文描述信息" style="text;align=left;verticalAlign=top;spacingLeft=4;spacingRight=4;overflow=hidden;rotatable=0;points=[[0,0.5],[1,0.5]];portConstraint=eastwest;rounded=0;shadow=0;html=0;" vertex="1" parent="duncpzKBdpz41MOlvivD-249">
          <mxGeometry y="190" width="270" height="20" as="geometry" />
        </mxCell>
        <mxCell id="duncpzKBdpz41MOlvivD-258" value="aliases:中文别名" style="text;align=left;verticalAlign=top;spacingLeft=4;spacingRight=4;overflow=hidden;rotatable=0;points=[[0,0.5],[1,0.5]];portConstraint=eastwest;rounded=0;shadow=0;html=0;" vertex="1" parent="duncpzKBdpz41MOlvivD-249">
          <mxGeometry y="210" width="270" height="20" as="geometry" />
        </mxCell>
        <mxCell id="duncpzKBdpz41MOlvivD-259" value="aliases_en:英文别名" style="text;align=left;verticalAlign=top;spacingLeft=4;spacingRight=4;overflow=hidden;rotatable=0;points=[[0,0.5],[1,0.5]];portConstraint=eastwest;rounded=0;shadow=0;html=0;" vertex="1" parent="duncpzKBdpz41MOlvivD-249">
          <mxGeometry y="230" width="270" height="20" as="geometry" />
        </mxCell>
        <mxCell id="duncpzKBdpz41MOlvivD-260" value="aliases_all:所有别名" style="text;align=left;verticalAlign=top;spacingLeft=4;spacingRight=4;overflow=hidden;rotatable=0;points=[[0,0.5],[1,0.5]];portConstraint=eastwest;rounded=0;shadow=0;html=0;" vertex="1" parent="duncpzKBdpz41MOlvivD-249">
          <mxGeometry y="250" width="270" height="20" as="geometry" />
        </mxCell>
        <mxCell id="duncpzKBdpz41MOlvivD-261" value="" style="endArrow=classic;html=1;rounded=0;entryX=0.001;entryY=0.153;entryDx=0;entryDy=0;entryPerimeter=0;" edge="1" parent="WIyWlLk6GJQsqaUBKTNV-1" target="duncpzKBdpz41MOlvivD-237">
          <mxGeometry width="50" height="50" relative="1" as="geometry">
            <mxPoint x="2510" y="490" as="sourcePoint" />
            <mxPoint x="2570" y="490" as="targetPoint" />
            <Array as="points">
              <mxPoint x="2570" y="490" />
              <mxPoint x="2570" y="130" />
            </Array>
          </mxGeometry>
        </mxCell>
        <mxCell id="duncpzKBdpz41MOlvivD-262" value="" style="endArrow=classic;html=1;rounded=0;entryX=0.01;entryY=-0.149;entryDx=0;entryDy=0;entryPerimeter=0;exitX=1;exitY=0.5;exitDx=0;exitDy=0;" edge="1" parent="WIyWlLk6GJQsqaUBKTNV-1" source="duncpzKBdpz41MOlvivD-163" target="duncpzKBdpz41MOlvivD-238">
          <mxGeometry width="50" height="50" relative="1" as="geometry">
            <mxPoint x="2510" y="180" as="sourcePoint" />
            <mxPoint x="2560" y="130" as="targetPoint" />
          </mxGeometry>
        </mxCell>
        <mxCell id="duncpzKBdpz41MOlvivD-263" value="" style="endArrow=classic;html=1;rounded=0;" edge="1" parent="WIyWlLk6GJQsqaUBKTNV-1">
          <mxGeometry width="50" height="50" relative="1" as="geometry">
            <mxPoint x="3050" y="130" as="sourcePoint" />
            <mxPoint x="3180" y="130" as="targetPoint" />
          </mxGeometry>
        </mxCell>
        <mxCell id="duncpzKBdpz41MOlvivD-264" value="             wiki_history.item_classpro(类属性表)" style="swimlane;fontStyle=2;align=center;verticalAlign=top;childLayout=stackLayout;horizontal=1;startSize=26;horizontalStack=0;resizeParent=1;resizeLast=0;collapsible=1;marginBottom=0;rounded=0;shadow=0;strokeWidth=1;" vertex="1" parent="WIyWlLk6GJQsqaUBKTNV-1">
          <mxGeometry x="3190" y="445" width="270" height="280" as="geometry">
            <mxRectangle x="503" y="240" width="277" height="22" as="alternateBounds" />
          </mxGeometry>
        </mxCell>
        <mxCell id="duncpzKBdpz41MOlvivD-265" value="no:编号,1开头递增的id" style="text;align=left;verticalAlign=top;spacingLeft=4;spacingRight=4;overflow=hidden;rotatable=0;points=[[0,0.5],[1,0.5]];portConstraint=eastwest;" vertex="1" parent="duncpzKBdpz41MOlvivD-264">
          <mxGeometry y="26" width="270" height="26" as="geometry" />
        </mxCell>
        <mxCell id="duncpzKBdpz41MOlvivD-266" value="classify_order:同一类型属性排序" style="text;align=left;verticalAlign=top;spacingLeft=4;spacingRight=4;overflow=hidden;rotatable=0;points=[[0,0.5],[1,0.5]];portConstraint=eastwest;rounded=0;shadow=0;html=0;" vertex="1" parent="duncpzKBdpz41MOlvivD-264">
          <mxGeometry y="52" width="270" height="26" as="geometry" />
        </mxCell>
        <mxCell id="duncpzKBdpz41MOlvivD-267" value="classify_qid:qid/例如Q5" style="text;align=left;verticalAlign=top;spacingLeft=4;spacingRight=4;overflow=hidden;rotatable=0;points=[[0,0.5],[1,0.5]];portConstraint=eastwest;rounded=0;shadow=0;html=0;" vertex="1" parent="duncpzKBdpz41MOlvivD-264">
          <mxGeometry y="78" width="270" height="24" as="geometry" />
        </mxCell>
        <mxCell id="duncpzKBdpz41MOlvivD-268" value="classify_name:分类中文名称" style="text;align=left;verticalAlign=top;spacingLeft=4;spacingRight=4;overflow=hidden;rotatable=0;points=[[0,0.5],[1,0.5]];portConstraint=eastwest;rounded=0;shadow=0;html=0;" vertex="1" parent="duncpzKBdpz41MOlvivD-264">
          <mxGeometry y="102" width="270" height="24" as="geometry" />
        </mxCell>
        <mxCell id="duncpzKBdpz41MOlvivD-269" value="classify_nameen:分类英文名称" style="text;align=left;verticalAlign=top;spacingLeft=4;spacingRight=4;overflow=hidden;rotatable=0;points=[[0,0.5],[1,0.5]];portConstraint=eastwest;rounded=0;shadow=0;html=0;" vertex="1" parent="duncpzKBdpz41MOlvivD-264">
          <mxGeometry y="126" width="270" height="24" as="geometry" />
        </mxCell>
        <mxCell id="duncpzKBdpz41MOlvivD-270" value="classify_count:数据总量" style="text;align=left;verticalAlign=top;spacingLeft=4;spacingRight=4;overflow=hidden;rotatable=0;points=[[0,0.5],[1,0.5]];portConstraint=eastwest;rounded=0;shadow=0;html=0;" vertex="1" parent="duncpzKBdpz41MOlvivD-264">
          <mxGeometry y="150" width="270" height="20" as="geometry" />
        </mxCell>
        <mxCell id="duncpzKBdpz41MOlvivD-271" value="pid:列名称" style="text;align=left;verticalAlign=top;spacingLeft=4;spacingRight=4;overflow=hidden;rotatable=0;points=[[0,0.5],[1,0.5]];portConstraint=eastwest;rounded=0;shadow=0;html=0;" vertex="1" parent="duncpzKBdpz41MOlvivD-264">
          <mxGeometry y="170" width="270" height="20" as="geometry" />
        </mxCell>
        <mxCell id="duncpzKBdpz41MOlvivD-272" value="pid_count:属性总量" style="text;align=left;verticalAlign=top;spacingLeft=4;spacingRight=4;overflow=hidden;rotatable=0;points=[[0,0.5],[1,0.5]];portConstraint=eastwest;rounded=0;shadow=0;html=0;" vertex="1" parent="duncpzKBdpz41MOlvivD-264">
          <mxGeometry y="190" width="270" height="20" as="geometry" />
        </mxCell>
        <mxCell id="duncpzKBdpz41MOlvivD-273" value="pid_count_per:同类型实体,拥有当前属性列的百分比" style="text;align=left;verticalAlign=top;spacingLeft=4;spacingRight=4;overflow=hidden;rotatable=0;points=[[0,0.5],[1,0.5]];portConstraint=eastwest;rounded=0;shadow=0;html=0;" vertex="1" parent="duncpzKBdpz41MOlvivD-264">
          <mxGeometry y="210" width="270" height="20" as="geometry" />
        </mxCell>
        <mxCell id="duncpzKBdpz41MOlvivD-274" value="pid_name:pid列名称" style="text;align=left;verticalAlign=top;spacingLeft=4;spacingRight=4;overflow=hidden;rotatable=0;points=[[0,0.5],[1,0.5]];portConstraint=eastwest;rounded=0;shadow=0;html=0;" vertex="1" parent="duncpzKBdpz41MOlvivD-264">
          <mxGeometry y="230" width="270" height="20" as="geometry" />
        </mxCell>
        <mxCell id="duncpzKBdpz41MOlvivD-275" value="pid_nameen:pid列名称英文名" style="text;align=left;verticalAlign=top;spacingLeft=4;spacingRight=4;overflow=hidden;rotatable=0;points=[[0,0.5],[1,0.5]];portConstraint=eastwest;rounded=0;shadow=0;html=0;" vertex="1" parent="duncpzKBdpz41MOlvivD-264">
          <mxGeometry y="250" width="270" height="20" as="geometry" />
        </mxCell>
        <mxCell id="duncpzKBdpz41MOlvivD-280" value="" style="endArrow=classic;html=1;rounded=0;" edge="1" parent="WIyWlLk6GJQsqaUBKTNV-1">
          <mxGeometry width="50" height="50" relative="1" as="geometry">
            <mxPoint x="3050" y="460" as="sourcePoint" />
            <mxPoint x="3180" y="460" as="targetPoint" />
          </mxGeometry>
        </mxCell>
        <mxCell id="duncpzKBdpz41MOlvivD-281" value="             wiki_history.item_class_scorse(实体分类得分)" style="swimlane;fontStyle=2;align=center;verticalAlign=top;childLayout=stackLayout;horizontal=1;startSize=26;horizontalStack=0;resizeParent=1;resizeLast=0;collapsible=1;marginBottom=0;rounded=0;shadow=0;strokeWidth=1;" vertex="1" parent="WIyWlLk6GJQsqaUBKTNV-1">
          <mxGeometry x="3190" y="750" width="270" height="180" as="geometry">
            <mxRectangle x="503" y="240" width="277" height="22" as="alternateBounds" />
          </mxGeometry>
        </mxCell>
        <mxCell id="duncpzKBdpz41MOlvivD-282" value="qid:实体qid/Q62000" style="text;align=left;verticalAlign=top;spacingLeft=4;spacingRight=4;overflow=hidden;rotatable=0;points=[[0,0.5],[1,0.5]];portConstraint=eastwest;" vertex="1" parent="duncpzKBdpz41MOlvivD-281">
          <mxGeometry y="26" width="270" height="26" as="geometry" />
        </mxCell>
        <mxCell id="duncpzKBdpz41MOlvivD-283" value="classtype:实体类型/Q5" style="text;align=left;verticalAlign=top;spacingLeft=4;spacingRight=4;overflow=hidden;rotatable=0;points=[[0,0.5],[1,0.5]];portConstraint=eastwest;rounded=0;shadow=0;html=0;" vertex="1" parent="duncpzKBdpz41MOlvivD-281">
          <mxGeometry y="52" width="270" height="26" as="geometry" />
        </mxCell>
        <mxCell id="duncpzKBdpz41MOlvivD-284" value="classify_name:实体类型名称/人类" style="text;align=left;verticalAlign=top;spacingLeft=4;spacingRight=4;overflow=hidden;rotatable=0;points=[[0,0.5],[1,0.5]];portConstraint=eastwest;rounded=0;shadow=0;html=0;" vertex="1" parent="duncpzKBdpz41MOlvivD-281">
          <mxGeometry y="78" width="270" height="24" as="geometry" />
        </mxCell>
        <mxCell id="duncpzKBdpz41MOlvivD-285" value="classify_nameen:实体类型名称英文/" style="text;align=left;verticalAlign=top;spacingLeft=4;spacingRight=4;overflow=hidden;rotatable=0;points=[[0,0.5],[1,0.5]];portConstraint=eastwest;rounded=0;shadow=0;html=0;" vertex="1" parent="duncpzKBdpz41MOlvivD-281">
          <mxGeometry y="102" width="270" height="24" as="geometry" />
        </mxCell>
        <mxCell id="duncpzKBdpz41MOlvivD-286" value="classify_score:分类得分" style="text;align=left;verticalAlign=top;spacingLeft=4;spacingRight=4;overflow=hidden;rotatable=0;points=[[0,0.5],[1,0.5]];portConstraint=eastwest;rounded=0;shadow=0;html=0;" vertex="1" parent="duncpzKBdpz41MOlvivD-281">
          <mxGeometry y="126" width="270" height="24" as="geometry" />
        </mxCell>
        <mxCell id="duncpzKBdpz41MOlvivD-287" value="classify_count:含有核心属性总数" style="text;align=left;verticalAlign=top;spacingLeft=4;spacingRight=4;overflow=hidden;rotatable=0;points=[[0,0.5],[1,0.5]];portConstraint=eastwest;rounded=0;shadow=0;html=0;" vertex="1" parent="duncpzKBdpz41MOlvivD-281">
          <mxGeometry y="150" width="270" height="20" as="geometry" />
        </mxCell>
        <mxCell id="duncpzKBdpz41MOlvivD-297" value="" style="endArrow=classic;html=1;rounded=0;" edge="1" parent="WIyWlLk6GJQsqaUBKTNV-1">
          <mxGeometry width="50" height="50" relative="1" as="geometry">
            <mxPoint x="3050" y="770" as="sourcePoint" />
            <mxPoint x="3180" y="770" as="targetPoint" />
          </mxGeometry>
        </mxCell>
        <mxCell id="duncpzKBdpz41MOlvivD-298" value="" style="endArrow=classic;html=1;rounded=0;" edge="1" parent="WIyWlLk6GJQsqaUBKTNV-1">
          <mxGeometry width="50" height="50" relative="1" as="geometry">
            <mxPoint x="3308" y="727" as="sourcePoint" />
            <mxPoint x="3308" y="747" as="targetPoint" />
            <Array as="points">
              <mxPoint x="3308" y="747" />
            </Array>
          </mxGeometry>
        </mxCell>
        <mxCell id="duncpzKBdpz41MOlvivD-299" value="" style="endArrow=classic;html=1;rounded=0;" edge="1" parent="WIyWlLk6GJQsqaUBKTNV-1">
          <mxGeometry width="50" height="50" relative="1" as="geometry">
            <mxPoint x="2510" y="830" as="sourcePoint" />
            <mxPoint x="2670" y="460" as="targetPoint" />
            <Array as="points">
              <mxPoint x="2600" y="830" />
              <mxPoint x="2600" y="460" />
            </Array>
          </mxGeometry>
        </mxCell>
        <mxCell id="duncpzKBdpz41MOlvivD-300" value="" style="endArrow=classic;html=1;rounded=0;" edge="1" parent="WIyWlLk6GJQsqaUBKTNV-1">
          <mxGeometry width="50" height="50" relative="1" as="geometry">
            <mxPoint x="2510" y="180" as="sourcePoint" />
            <mxPoint x="2670" y="470" as="targetPoint" />
            <Array as="points">
              <mxPoint x="2610" y="180" />
              <mxPoint x="2610" y="470" />
            </Array>
          </mxGeometry>
        </mxCell>
        <mxCell id="duncpzKBdpz41MOlvivD-301" value="" style="endArrow=classic;html=1;rounded=0;entryX=-0.004;entryY=0.082;entryDx=0;entryDy=0;entryPerimeter=0;" edge="1" parent="WIyWlLk6GJQsqaUBKTNV-1" target="duncpzKBdpz41MOlvivD-293">
          <mxGeometry width="50" height="50" relative="1" as="geometry">
            <mxPoint x="2510" y="180" as="sourcePoint" />
            <mxPoint x="2560" y="130" as="targetPoint" />
            <Array as="points">
              <mxPoint x="2540" y="180" />
              <mxPoint x="2550" y="771" />
            </Array>
          </mxGeometry>
        </mxCell>
        <mxCell id="duncpzKBdpz41MOlvivD-308" value="                 wiki_history.db_ontology_type(dbpedia属性三元组表)&#xa;" style="swimlane;fontStyle=2;align=center;verticalAlign=top;childLayout=stackLayout;horizontal=1;startSize=26;horizontalStack=0;resizeParent=1;resizeLast=0;collapsible=1;marginBottom=0;rounded=0;shadow=0;strokeWidth=1;" vertex="1" parent="WIyWlLk6GJQsqaUBKTNV-1">
          <mxGeometry x="503" y="1120" width="187" height="200" as="geometry">
            <mxRectangle x="1350" y="102" width="277" height="22" as="alternateBounds" />
          </mxGeometry>
        </mxCell>
        <mxCell id="duncpzKBdpz41MOlvivD-309" value="subject:/22-rdf-syntax-ns#langString" style="text;align=left;verticalAlign=top;spacingLeft=4;spacingRight=4;overflow=hidden;rotatable=0;points=[[0,0.5],[1,0.5]];portConstraint=eastwest;" vertex="1" parent="duncpzKBdpz41MOlvivD-308">
          <mxGeometry y="26" width="187" height="26" as="geometry" />
        </mxCell>
        <mxCell id="duncpzKBdpz41MOlvivD-310" value="predicate:/isDefinedBy" style="text;align=left;verticalAlign=top;spacingLeft=4;spacingRight=4;overflow=hidden;rotatable=0;points=[[0,0.5],[1,0.5]];portConstraint=eastwest;rounded=0;shadow=0;html=0;" vertex="1" parent="duncpzKBdpz41MOlvivD-308">
          <mxGeometry y="52" width="187" height="26" as="geometry" />
        </mxCell>
        <mxCell id="duncpzKBdpz41MOlvivD-311" value="object:/ontology" style="text;align=left;verticalAlign=top;spacingLeft=4;spacingRight=4;overflow=hidden;rotatable=0;points=[[0,0.5],[1,0.5]];portConstraint=eastwest;rounded=0;shadow=0;html=0;" vertex="1" parent="duncpzKBdpz41MOlvivD-308">
          <mxGeometry y="78" width="187" height="24" as="geometry" />
        </mxCell>
        <mxCell id="duncpzKBdpz41MOlvivD-312" value="object_type:/resource" style="text;align=left;verticalAlign=top;spacingLeft=4;spacingRight=4;overflow=hidden;rotatable=0;points=[[0,0.5],[1,0.5]];portConstraint=eastwest;rounded=0;shadow=0;html=0;" vertex="1" parent="duncpzKBdpz41MOlvivD-308">
          <mxGeometry y="102" width="187" height="24" as="geometry" />
        </mxCell>
        <mxCell id="duncpzKBdpz41MOlvivD-313" value="subject_src:http://www.w3.org/1999/02/22-rdf-syntax-ns#langString" style="text;align=left;verticalAlign=top;spacingLeft=4;spacingRight=4;overflow=hidden;rotatable=0;points=[[0,0.5],[1,0.5]];portConstraint=eastwest;rounded=0;shadow=0;html=0;" vertex="1" parent="duncpzKBdpz41MOlvivD-308">
          <mxGeometry y="126" width="187" height="24" as="geometry" />
        </mxCell>
        <mxCell id="duncpzKBdpz41MOlvivD-314" value="predicate_src:http://www.w3.org/2000/01/rdf-schema#isDefinedBy" style="text;align=left;verticalAlign=top;spacingLeft=4;spacingRight=4;overflow=hidden;rotatable=0;points=[[0,0.5],[1,0.5]];portConstraint=eastwest;rounded=0;shadow=0;html=0;" vertex="1" parent="duncpzKBdpz41MOlvivD-308">
          <mxGeometry y="150" width="187" height="24" as="geometry" />
        </mxCell>
        <mxCell id="duncpzKBdpz41MOlvivD-315" value="object_src:http://dbpedia.org/ontology" style="text;align=left;verticalAlign=top;spacingLeft=4;spacingRight=4;overflow=hidden;rotatable=0;points=[[0,0.5],[1,0.5]];portConstraint=eastwest;rounded=0;shadow=0;html=0;" vertex="1" parent="duncpzKBdpz41MOlvivD-308">
          <mxGeometry y="174" width="187" height="24" as="geometry" />
        </mxCell>
        <mxCell id="duncpzKBdpz41MOlvivD-322" value="" style="shape=flexArrow;endArrow=classic;html=1;rounded=0;entryX=-0.005;entryY=0.749;entryDx=0;entryDy=0;entryPerimeter=0;" edge="1" parent="WIyWlLk6GJQsqaUBKTNV-1">
          <mxGeometry width="50" height="50" relative="1" as="geometry">
            <mxPoint x="430" y="1266" as="sourcePoint" />
            <mxPoint x="492.06500000000005" y="1265.9759999999999" as="targetPoint" />
          </mxGeometry>
        </mxCell>
        <mxCell id="duncpzKBdpz41MOlvivD-328" value="                 wiki_history.db_wiki_subclassof(类层级关系)&#xa;" style="swimlane;fontStyle=2;align=center;verticalAlign=top;childLayout=stackLayout;horizontal=1;startSize=26;horizontalStack=0;resizeParent=1;resizeLast=0;collapsible=1;marginBottom=0;rounded=0;shadow=0;strokeWidth=1;" vertex="1" parent="WIyWlLk6GJQsqaUBKTNV-1">
          <mxGeometry x="500" y="1340" width="187" height="200" as="geometry">
            <mxRectangle x="1350" y="102" width="277" height="22" as="alternateBounds" />
          </mxGeometry>
        </mxCell>
        <mxCell id="duncpzKBdpz41MOlvivD-329" value="subject:/Q100039327" style="text;align=left;verticalAlign=top;spacingLeft=4;spacingRight=4;overflow=hidden;rotatable=0;points=[[0,0.5],[1,0.5]];portConstraint=eastwest;" vertex="1" parent="duncpzKBdpz41MOlvivD-328">
          <mxGeometry y="26" width="187" height="26" as="geometry" />
        </mxCell>
        <mxCell id="duncpzKBdpz41MOlvivD-330" value="predicate:/subClassOf" style="text;align=left;verticalAlign=top;spacingLeft=4;spacingRight=4;overflow=hidden;rotatable=0;points=[[0,0.5],[1,0.5]];portConstraint=eastwest;rounded=0;shadow=0;html=0;" vertex="1" parent="duncpzKBdpz41MOlvivD-328">
          <mxGeometry y="52" width="187" height="26" as="geometry" />
        </mxCell>
        <mxCell id="duncpzKBdpz41MOlvivD-331" value="object:/GovernmentAgency" style="text;align=left;verticalAlign=top;spacingLeft=4;spacingRight=4;overflow=hidden;rotatable=0;points=[[0,0.5],[1,0.5]];portConstraint=eastwest;rounded=0;shadow=0;html=0;" vertex="1" parent="duncpzKBdpz41MOlvivD-328">
          <mxGeometry y="78" width="187" height="24" as="geometry" />
        </mxCell>
        <mxCell id="duncpzKBdpz41MOlvivD-332" value="object_type:/resource" style="text;align=left;verticalAlign=top;spacingLeft=4;spacingRight=4;overflow=hidden;rotatable=0;points=[[0,0.5],[1,0.5]];portConstraint=eastwest;rounded=0;shadow=0;html=0;" vertex="1" parent="duncpzKBdpz41MOlvivD-328">
          <mxGeometry y="102" width="187" height="24" as="geometry" />
        </mxCell>
        <mxCell id="duncpzKBdpz41MOlvivD-333" value="subject_src:http://wikidata.dbpedia.org/resource/Q100039327" style="text;align=left;verticalAlign=top;spacingLeft=4;spacingRight=4;overflow=hidden;rotatable=0;points=[[0,0.5],[1,0.5]];portConstraint=eastwest;rounded=0;shadow=0;html=0;" vertex="1" parent="duncpzKBdpz41MOlvivD-328">
          <mxGeometry y="126" width="187" height="24" as="geometry" />
        </mxCell>
        <mxCell id="duncpzKBdpz41MOlvivD-334" value="predicate_src:http://www.w3.org/2000/01/rdf-schema#subClassOf" style="text;align=left;verticalAlign=top;spacingLeft=4;spacingRight=4;overflow=hidden;rotatable=0;points=[[0,0.5],[1,0.5]];portConstraint=eastwest;rounded=0;shadow=0;html=0;" vertex="1" parent="duncpzKBdpz41MOlvivD-328">
          <mxGeometry y="150" width="187" height="24" as="geometry" />
        </mxCell>
        <mxCell id="duncpzKBdpz41MOlvivD-335" value="object_src:http://dbpedia.org/ontology/GovernmentAgency" style="text;align=left;verticalAlign=top;spacingLeft=4;spacingRight=4;overflow=hidden;rotatable=0;points=[[0,0.5],[1,0.5]];portConstraint=eastwest;rounded=0;shadow=0;html=0;" vertex="1" parent="duncpzKBdpz41MOlvivD-328">
          <mxGeometry y="174" width="187" height="24" as="geometry" />
        </mxCell>
        <mxCell id="duncpzKBdpz41MOlvivD-336" value="" style="shape=flexArrow;endArrow=classic;html=1;rounded=0;entryX=-0.005;entryY=0.749;entryDx=0;entryDy=0;entryPerimeter=0;" edge="1" parent="WIyWlLk6GJQsqaUBKTNV-1">
          <mxGeometry width="50" height="50" relative="1" as="geometry">
            <mxPoint x="430" y="1400" as="sourcePoint" />
            <mxPoint x="492" y="1400" as="targetPoint" />
          </mxGeometry>
        </mxCell>
        <mxCell id="duncpzKBdpz41MOlvivD-337" value="" style="endArrow=none;html=1;rounded=0;exitX=-0.007;exitY=1.027;exitDx=0;exitDy=0;exitPerimeter=0;" edge="1" parent="WIyWlLk6GJQsqaUBKTNV-1">
          <mxGeometry width="50" height="50" relative="1" as="geometry">
            <mxPoint x="54" y="1579" as="sourcePoint" />
            <mxPoint x="420" y="1580" as="targetPoint" />
          </mxGeometry>
        </mxCell>
        <mxCell id="duncpzKBdpz41MOlvivD-342" value="                                       wiki_history.db_instance_types_en_transitive(实体的类型表)&#xa;" style="swimlane;fontStyle=2;align=center;verticalAlign=top;childLayout=stackLayout;horizontal=1;startSize=26;horizontalStack=0;resizeParent=1;resizeLast=0;collapsible=1;marginBottom=0;rounded=0;shadow=0;strokeWidth=1;" vertex="1" parent="WIyWlLk6GJQsqaUBKTNV-1">
          <mxGeometry x="500" y="1560" width="187" height="200" as="geometry">
            <mxRectangle x="1350" y="102" width="277" height="22" as="alternateBounds" />
          </mxGeometry>
        </mxCell>
        <mxCell id="duncpzKBdpz41MOlvivD-343" value="subject:/Q100000002" style="text;align=left;verticalAlign=top;spacingLeft=4;spacingRight=4;overflow=hidden;rotatable=0;points=[[0,0.5],[1,0.5]];portConstraint=eastwest;" vertex="1" parent="duncpzKBdpz41MOlvivD-342">
          <mxGeometry y="26" width="187" height="26" as="geometry" />
        </mxCell>
        <mxCell id="duncpzKBdpz41MOlvivD-344" value="predicate:/type" style="text;align=left;verticalAlign=top;spacingLeft=4;spacingRight=4;overflow=hidden;rotatable=0;points=[[0,0.5],[1,0.5]];portConstraint=eastwest;rounded=0;shadow=0;html=0;" vertex="1" parent="duncpzKBdpz41MOlvivD-342">
          <mxGeometry y="52" width="187" height="26" as="geometry" />
        </mxCell>
        <mxCell id="duncpzKBdpz41MOlvivD-345" value="object:/DUL.owl#Agent" style="text;align=left;verticalAlign=top;spacingLeft=4;spacingRight=4;overflow=hidden;rotatable=0;points=[[0,0.5],[1,0.5]];portConstraint=eastwest;rounded=0;shadow=0;html=0;" vertex="1" parent="duncpzKBdpz41MOlvivD-342">
          <mxGeometry y="78" width="187" height="24" as="geometry" />
        </mxCell>
        <mxCell id="duncpzKBdpz41MOlvivD-346" value="object_type:/resource" style="text;align=left;verticalAlign=top;spacingLeft=4;spacingRight=4;overflow=hidden;rotatable=0;points=[[0,0.5],[1,0.5]];portConstraint=eastwest;rounded=0;shadow=0;html=0;" vertex="1" parent="duncpzKBdpz41MOlvivD-342">
          <mxGeometry y="102" width="187" height="24" as="geometry" />
        </mxCell>
        <mxCell id="duncpzKBdpz41MOlvivD-347" value="subject_src:http://wikidata.dbpedia.org/resource/Q100000002" style="text;align=left;verticalAlign=top;spacingLeft=4;spacingRight=4;overflow=hidden;rotatable=0;points=[[0,0.5],[1,0.5]];portConstraint=eastwest;rounded=0;shadow=0;html=0;" vertex="1" parent="duncpzKBdpz41MOlvivD-342">
          <mxGeometry y="126" width="187" height="24" as="geometry" />
        </mxCell>
        <mxCell id="duncpzKBdpz41MOlvivD-348" value="predicate_src:http://www.w3.org/1999/02/22-rdf-syntax-ns#type" style="text;align=left;verticalAlign=top;spacingLeft=4;spacingRight=4;overflow=hidden;rotatable=0;points=[[0,0.5],[1,0.5]];portConstraint=eastwest;rounded=0;shadow=0;html=0;" vertex="1" parent="duncpzKBdpz41MOlvivD-342">
          <mxGeometry y="150" width="187" height="24" as="geometry" />
        </mxCell>
        <mxCell id="duncpzKBdpz41MOlvivD-349" value="object_src:http://www.ontologydesignpatterns.org/ont/dul/DUL.owl#Agent" style="text;align=left;verticalAlign=top;spacingLeft=4;spacingRight=4;overflow=hidden;rotatable=0;points=[[0,0.5],[1,0.5]];portConstraint=eastwest;rounded=0;shadow=0;html=0;" vertex="1" parent="duncpzKBdpz41MOlvivD-342">
          <mxGeometry y="174" width="187" height="24" as="geometry" />
        </mxCell>
        <mxCell id="duncpzKBdpz41MOlvivD-350" value="" style="shape=flexArrow;endArrow=classic;html=1;rounded=0;entryX=-0.005;entryY=0.749;entryDx=0;entryDy=0;entryPerimeter=0;" edge="1" parent="WIyWlLk6GJQsqaUBKTNV-1">
          <mxGeometry width="50" height="50" relative="1" as="geometry">
            <mxPoint x="430" y="1614.16" as="sourcePoint" />
            <mxPoint x="492" y="1614.16" as="targetPoint" />
          </mxGeometry>
        </mxCell>
        <mxCell id="duncpzKBdpz41MOlvivD-351" value="                                       wiki_history.db_instance_types_en_specific(实体最细分类表)&#xa;" style="swimlane;fontStyle=2;align=center;verticalAlign=top;childLayout=stackLayout;horizontal=1;startSize=26;horizontalStack=0;resizeParent=1;resizeLast=0;collapsible=1;marginBottom=0;rounded=0;shadow=0;strokeWidth=1;" vertex="1" parent="WIyWlLk6GJQsqaUBKTNV-1">
          <mxGeometry x="502" y="1790" width="187" height="200" as="geometry">
            <mxRectangle x="1350" y="102" width="277" height="22" as="alternateBounds" />
          </mxGeometry>
        </mxCell>
        <mxCell id="duncpzKBdpz41MOlvivD-352" value="subject:/Q100000002" style="text;align=left;verticalAlign=top;spacingLeft=4;spacingRight=4;overflow=hidden;rotatable=0;points=[[0,0.5],[1,0.5]];portConstraint=eastwest;" vertex="1" parent="duncpzKBdpz41MOlvivD-351">
          <mxGeometry y="26" width="187" height="26" as="geometry" />
        </mxCell>
        <mxCell id="duncpzKBdpz41MOlvivD-353" value="predicate:/type" style="text;align=left;verticalAlign=top;spacingLeft=4;spacingRight=4;overflow=hidden;rotatable=0;points=[[0,0.5],[1,0.5]];portConstraint=eastwest;rounded=0;shadow=0;html=0;" vertex="1" parent="duncpzKBdpz41MOlvivD-351">
          <mxGeometry y="52" width="187" height="26" as="geometry" />
        </mxCell>
        <mxCell id="duncpzKBdpz41MOlvivD-354" value="object:/School" style="text;align=left;verticalAlign=top;spacingLeft=4;spacingRight=4;overflow=hidden;rotatable=0;points=[[0,0.5],[1,0.5]];portConstraint=eastwest;rounded=0;shadow=0;html=0;" vertex="1" parent="duncpzKBdpz41MOlvivD-351">
          <mxGeometry y="78" width="187" height="24" as="geometry" />
        </mxCell>
        <mxCell id="duncpzKBdpz41MOlvivD-355" value="object_type:/resource" style="text;align=left;verticalAlign=top;spacingLeft=4;spacingRight=4;overflow=hidden;rotatable=0;points=[[0,0.5],[1,0.5]];portConstraint=eastwest;rounded=0;shadow=0;html=0;" vertex="1" parent="duncpzKBdpz41MOlvivD-351">
          <mxGeometry y="102" width="187" height="24" as="geometry" />
        </mxCell>
        <mxCell id="duncpzKBdpz41MOlvivD-356" value="subject_src:http://wikidata.dbpedia.org/resource/Q100000002" style="text;align=left;verticalAlign=top;spacingLeft=4;spacingRight=4;overflow=hidden;rotatable=0;points=[[0,0.5],[1,0.5]];portConstraint=eastwest;rounded=0;shadow=0;html=0;" vertex="1" parent="duncpzKBdpz41MOlvivD-351">
          <mxGeometry y="126" width="187" height="24" as="geometry" />
        </mxCell>
        <mxCell id="duncpzKBdpz41MOlvivD-357" value="predicate_src:http://www.w3.org/1999/02/22-rdf-syntax-ns#type" style="text;align=left;verticalAlign=top;spacingLeft=4;spacingRight=4;overflow=hidden;rotatable=0;points=[[0,0.5],[1,0.5]];portConstraint=eastwest;rounded=0;shadow=0;html=0;" vertex="1" parent="duncpzKBdpz41MOlvivD-351">
          <mxGeometry y="150" width="187" height="24" as="geometry" />
        </mxCell>
        <mxCell id="duncpzKBdpz41MOlvivD-358" value="object_src:http://dbpedia.org/ontology/School" style="text;align=left;verticalAlign=top;spacingLeft=4;spacingRight=4;overflow=hidden;rotatable=0;points=[[0,0.5],[1,0.5]];portConstraint=eastwest;rounded=0;shadow=0;html=0;" vertex="1" parent="duncpzKBdpz41MOlvivD-351">
          <mxGeometry y="174" width="187" height="24" as="geometry" />
        </mxCell>
        <mxCell id="duncpzKBdpz41MOlvivD-367" value="" style="shape=flexArrow;endArrow=classic;html=1;rounded=0;entryX=-0.005;entryY=0.749;entryDx=0;entryDy=0;entryPerimeter=0;" edge="1" parent="WIyWlLk6GJQsqaUBKTNV-1">
          <mxGeometry width="50" height="50" relative="1" as="geometry">
            <mxPoint x="430" y="1830" as="sourcePoint" />
            <mxPoint x="492" y="1830" as="targetPoint" />
          </mxGeometry>
        </mxCell>
        <mxCell id="duncpzKBdpz41MOlvivD-368" value="                                       wiki_history.db_long_abstracts_lang_en(长短中英文描述数据)&#xa;" style="swimlane;fontStyle=2;align=center;verticalAlign=top;childLayout=stackLayout;horizontal=1;startSize=26;horizontalStack=0;resizeParent=1;resizeLast=0;collapsible=1;marginBottom=0;rounded=0;shadow=0;strokeWidth=1;" vertex="1" parent="WIyWlLk6GJQsqaUBKTNV-1">
          <mxGeometry x="503" y="2040" width="187" height="200" as="geometry">
            <mxRectangle x="1350" y="102" width="277" height="22" as="alternateBounds" />
          </mxGeometry>
        </mxCell>
        <mxCell id="duncpzKBdpz41MOlvivD-369" value="subject:/Joe_Biden" style="text;align=left;verticalAlign=top;spacingLeft=4;spacingRight=4;overflow=hidden;rotatable=0;points=[[0,0.5],[1,0.5]];portConstraint=eastwest;" vertex="1" parent="duncpzKBdpz41MOlvivD-368">
          <mxGeometry y="26" width="187" height="26" as="geometry" />
        </mxCell>
        <mxCell id="duncpzKBdpz41MOlvivD-370" value="predicate:/abstract" style="text;align=left;verticalAlign=top;spacingLeft=4;spacingRight=4;overflow=hidden;rotatable=0;points=[[0,0.5],[1,0.5]];portConstraint=eastwest;rounded=0;shadow=0;html=0;" vertex="1" parent="duncpzKBdpz41MOlvivD-368">
          <mxGeometry y="52" width="187" height="26" as="geometry" />
        </mxCell>
        <mxCell id="duncpzKBdpz41MOlvivD-371" value="object:/; born November 20, 1942) is an American politician who is the 46th and current president of the United States. A member of the Democratic Party, he previously served as the 47th vice president from 2009 to 2017 under President Barack Obama, and represented Delaware in the United States Senate from 1973 to 2009. Biden was born and raised in Scranton, Pennsylvania, and moved with his family to Delaware in 1953 when he was ten years old. He studied at the University of Delaware before earning his law degree from Syracuse University. He was elected to the New Castle County Council in 1970 and became the sixth-youngest senator in U.S. history after he was elected to the United States Senate from Delaware in 1972, at age 29. Biden was the chair or ranking member of the Senate Foreign Relations Committee for 12 years. He also chaired the Senate Judiciary Committee from 1987 to 1995; led the effort to pass the Violent Crime Control and Law Enforcement Act and the Violence Against Women Act; and oversaw six U.S. Supreme Court confirmation hearings, including the contentious hearings for Robert Bork and Clarence Thomas. Biden ran unsuccessfully for the Democratic presidential nomination in 1988 and 2008, before becoming Obama&#39;s vice president after they won the 2008 presidential election. During his two terms as vice president, Biden frequently represented the administration in negotiations with congressional Republicans and was a close counselor to President Obama. Biden and his running mate, Kamala Harris, defeated incumbent Donald Trump in the 2020 presidential election. Upon inauguration, he became the oldest president in U.S. history and the first to have a female vice president. Biden signed the American Rescue Plan Act to help the U.S. recover from the COVID-19 pandemic and subsequent recession. He proposed the American Jobs Plan, aspects of which were incorporated into the bipartisan Infrastructure Investment and Jobs Act. He proposed the American Families Plan, which was merged with other aspects of the American Jobs Plan into the proposed Build Back Better Act. After facing opposition in the Senate, the Build Back Better Act&#39;s size was reduced and it was comprehensively reworked into the Inflation Reduction Act of 2022, covering deficit reduction, climate change, healthcare, and tax reform. Biden appointed Ketanji Brown Jackson to the Supreme Court. In foreign policy, he restored the U.S. into the Paris Agreement on climate change. He completed the withdrawal of U.S. troops from Afghanistan, during which the Afghan government collapsed and the Taliban seized control. He responded to the 2022 Russian invasion of Ukraine by imposing sanctions on Russia and authorizing foreign aid and weapons shipments to Ukraine." style="text;align=left;verticalAlign=top;spacingLeft=4;spacingRight=4;overflow=hidden;rotatable=0;points=[[0,0.5],[1,0.5]];portConstraint=eastwest;rounded=0;shadow=0;html=0;" vertex="1" parent="duncpzKBdpz41MOlvivD-368">
          <mxGeometry y="78" width="187" height="24" as="geometry" />
        </mxCell>
        <mxCell id="duncpzKBdpz41MOlvivD-372" value="object_type:/resource" style="text;align=left;verticalAlign=top;spacingLeft=4;spacingRight=4;overflow=hidden;rotatable=0;points=[[0,0.5],[1,0.5]];portConstraint=eastwest;rounded=0;shadow=0;html=0;" vertex="1" parent="duncpzKBdpz41MOlvivD-368">
          <mxGeometry y="102" width="187" height="24" as="geometry" />
        </mxCell>
        <mxCell id="duncpzKBdpz41MOlvivD-373" value="subject_src:http://dbpedia.org/resource/Joe_Biden" style="text;align=left;verticalAlign=top;spacingLeft=4;spacingRight=4;overflow=hidden;rotatable=0;points=[[0,0.5],[1,0.5]];portConstraint=eastwest;rounded=0;shadow=0;html=0;" vertex="1" parent="duncpzKBdpz41MOlvivD-368">
          <mxGeometry y="126" width="187" height="24" as="geometry" />
        </mxCell>
        <mxCell id="duncpzKBdpz41MOlvivD-374" value="predicate_src:http://dbpedia.org/ontology/abstract" style="text;align=left;verticalAlign=top;spacingLeft=4;spacingRight=4;overflow=hidden;rotatable=0;points=[[0,0.5],[1,0.5]];portConstraint=eastwest;rounded=0;shadow=0;html=0;" vertex="1" parent="duncpzKBdpz41MOlvivD-368">
          <mxGeometry y="150" width="187" height="24" as="geometry" />
        </mxCell>
        <mxCell id="duncpzKBdpz41MOlvivD-375" value="object_src:Joseph Robinette Biden Jr. (/ˈbaɪdən/; born November 20, 1942) is an American politician who is the 46th and current president of the United States. A member of the Democratic Party, he previously served as the 47th vice president from 2009 to 2017 under President Barack Obama, and represented Delaware in the United States Senate from 1973 to 2009. Biden was born and raised in Scranton, Pennsylvania, and moved with his family to Delaware in 1953 when he was ten years old. He studied at the University of Delaware before earning his law degree from Syracuse University. He was elected to the New Castle County Council in 1970 and became the sixth-youngest senator in U.S. history after he was elected to the United States Senate from Delaware in 1972, at age 29. Biden was the chair or ranking member of the Senate Foreign Relations Committee for 12 years. He also chaired the Senate Judiciary Committee from 1987 to 1995; led the effort to pass the Violent Crime Control and Law Enforcement Act and the Violence Against Women Act; and oversaw six U.S. Supreme Court confirmation hearings, including the contentious hearings for Robert Bork and Clarence Thomas. Biden ran unsuccessfully for the Democratic presidential nomination in 1988 and 2008, before becoming Obama&#39;s vice president after they won the 2008 presidential election. During his two terms as vice president, Biden frequently represented the administration in negotiations with congressional Republicans and was a close counselor to President Obama. Biden and his running mate, Kamala Harris, defeated incumbent Donald Trump in the 2020 presidential election. Upon inauguration, he became the oldest president in U.S. history and the first to have a female vice president. Biden signed the American Rescue Plan Act to help the U.S. recover from the COVID-19 pandemic and subsequent recession. He proposed the American Jobs Plan, aspects of which were incorporated into the bipartisan Infrastructure Investment and Jobs Act. He proposed the American Families Plan, which was merged with other aspects of the American Jobs Plan into the proposed Build Back Better Act. After facing opposition in the Senate, the Build Back Better Act&#39;s size was reduced and it was comprehensively reworked into the Inflation Reduction Act of 2022, covering deficit reduction, climate change, healthcare, and tax reform. Biden appointed Ketanji Brown Jackson to the Supreme Court. In foreign policy, he restored the U.S. into the Paris Agreement on climate change. He completed the withdrawal of U.S. troops from Afghanistan, during which the Afghan government collapsed and the Taliban seized control. He responded to the 2022 Russian invasion of Ukraine by imposing sanctions on Russia and authorizing foreign aid and weapons shipments to Ukraine." style="text;align=left;verticalAlign=top;spacingLeft=4;spacingRight=4;overflow=hidden;rotatable=0;points=[[0,0.5],[1,0.5]];portConstraint=eastwest;rounded=0;shadow=0;html=0;" vertex="1" parent="duncpzKBdpz41MOlvivD-368">
          <mxGeometry y="174" width="187" height="24" as="geometry" />
        </mxCell>
        <mxCell id="duncpzKBdpz41MOlvivD-381" value="" style="shape=flexArrow;endArrow=classic;html=1;rounded=0;entryX=-0.005;entryY=0.749;entryDx=0;entryDy=0;entryPerimeter=0;" edge="1" parent="WIyWlLk6GJQsqaUBKTNV-1">
          <mxGeometry width="50" height="50" relative="1" as="geometry">
            <mxPoint x="430" y="2089" as="sourcePoint" />
            <mxPoint x="492" y="2089" as="targetPoint" />
          </mxGeometry>
        </mxCell>
        <mxCell id="duncpzKBdpz41MOlvivD-385" value="数据存储目录:db_data/instance-types_lang=en_specific.ttl.bz2" style="text;align=left;verticalAlign=top;spacingLeft=4;spacingRight=4;overflow=hidden;rotatable=0;points=[[0,0.5],[1,0.5]];portConstraint=eastwest;" vertex="1" parent="WIyWlLk6GJQsqaUBKTNV-1">
          <mxGeometry x="55" y="2342" width="370" height="26" as="geometry" />
        </mxCell>
        <mxCell id="duncpzKBdpz41MOlvivD-386" value="" style="endArrow=none;html=1;rounded=0;exitX=-0.007;exitY=1.027;exitDx=0;exitDy=0;exitPerimeter=0;entryX=0.991;entryY=0.992;entryDx=0;entryDy=0;entryPerimeter=0;" edge="1" parent="WIyWlLk6GJQsqaUBKTNV-1" target="duncpzKBdpz41MOlvivD-385">
          <mxGeometry width="50" height="50" relative="1" as="geometry">
            <mxPoint x="53" y="2367" as="sourcePoint" />
            <mxPoint x="404" y="2367" as="targetPoint" />
          </mxGeometry>
        </mxCell>
        <mxCell id="duncpzKBdpz41MOlvivD-387" value="" style="endArrow=none;html=1;rounded=0;exitX=-0.007;exitY=1.027;exitDx=0;exitDy=0;exitPerimeter=0;" edge="1" parent="WIyWlLk6GJQsqaUBKTNV-1">
          <mxGeometry width="50" height="50" relative="1" as="geometry">
            <mxPoint x="53" y="2302" as="sourcePoint" />
            <mxPoint x="425" y="2300" as="targetPoint" />
          </mxGeometry>
        </mxCell>
        <mxCell id="duncpzKBdpz41MOlvivD-388" value="数据名称:实体类型表,一个实体对应多个分类" style="text;align=left;verticalAlign=top;spacingLeft=4;spacingRight=4;overflow=hidden;rotatable=0;points=[[0,0.5],[1,0.5]];portConstraint=eastwest;" vertex="1" parent="WIyWlLk6GJQsqaUBKTNV-1">
          <mxGeometry x="53" y="2300" width="308" height="21" as="geometry" />
        </mxCell>
        <mxCell id="duncpzKBdpz41MOlvivD-390" value="                                       wiki_history.db_dbpedia_type_specific_en(实体最细分类表)&#xa;" style="swimlane;fontStyle=2;align=center;verticalAlign=top;childLayout=stackLayout;horizontal=1;startSize=26;horizontalStack=0;resizeParent=1;resizeLast=0;collapsible=1;marginBottom=0;rounded=0;shadow=0;strokeWidth=1;" vertex="1" parent="WIyWlLk6GJQsqaUBKTNV-1">
          <mxGeometry x="504" y="2280" width="187" height="200" as="geometry">
            <mxRectangle x="1350" y="102" width="277" height="22" as="alternateBounds" />
          </mxGeometry>
        </mxCell>
        <mxCell id="duncpzKBdpz41MOlvivD-391" value="subject:/!!!" style="text;align=left;verticalAlign=top;spacingLeft=4;spacingRight=4;overflow=hidden;rotatable=0;points=[[0,0.5],[1,0.5]];portConstraint=eastwest;" vertex="1" parent="duncpzKBdpz41MOlvivD-390">
          <mxGeometry y="26" width="187" height="26" as="geometry" />
        </mxCell>
        <mxCell id="duncpzKBdpz41MOlvivD-392" value="predicate:/type" style="text;align=left;verticalAlign=top;spacingLeft=4;spacingRight=4;overflow=hidden;rotatable=0;points=[[0,0.5],[1,0.5]];portConstraint=eastwest;rounded=0;shadow=0;html=0;" vertex="1" parent="duncpzKBdpz41MOlvivD-390">
          <mxGeometry y="52" width="187" height="26" as="geometry" />
        </mxCell>
        <mxCell id="duncpzKBdpz41MOlvivD-393" value="object:/Band" style="text;align=left;verticalAlign=top;spacingLeft=4;spacingRight=4;overflow=hidden;rotatable=0;points=[[0,0.5],[1,0.5]];portConstraint=eastwest;rounded=0;shadow=0;html=0;" vertex="1" parent="duncpzKBdpz41MOlvivD-390">
          <mxGeometry y="78" width="187" height="24" as="geometry" />
        </mxCell>
        <mxCell id="duncpzKBdpz41MOlvivD-394" value="object_type:/resource" style="text;align=left;verticalAlign=top;spacingLeft=4;spacingRight=4;overflow=hidden;rotatable=0;points=[[0,0.5],[1,0.5]];portConstraint=eastwest;rounded=0;shadow=0;html=0;" vertex="1" parent="duncpzKBdpz41MOlvivD-390">
          <mxGeometry y="102" width="187" height="24" as="geometry" />
        </mxCell>
        <mxCell id="duncpzKBdpz41MOlvivD-395" value="subject_src:/http://dbpedia.org/resource/!!!" style="text;align=left;verticalAlign=top;spacingLeft=4;spacingRight=4;overflow=hidden;rotatable=0;points=[[0,0.5],[1,0.5]];portConstraint=eastwest;rounded=0;shadow=0;html=0;" vertex="1" parent="duncpzKBdpz41MOlvivD-390">
          <mxGeometry y="126" width="187" height="24" as="geometry" />
        </mxCell>
        <mxCell id="duncpzKBdpz41MOlvivD-396" value="predicate_src:/http://www.w3.org/1999/02/22-rdf-syntax-ns#type" style="text;align=left;verticalAlign=top;spacingLeft=4;spacingRight=4;overflow=hidden;rotatable=0;points=[[0,0.5],[1,0.5]];portConstraint=eastwest;rounded=0;shadow=0;html=0;" vertex="1" parent="duncpzKBdpz41MOlvivD-390">
          <mxGeometry y="150" width="187" height="24" as="geometry" />
        </mxCell>
        <mxCell id="duncpzKBdpz41MOlvivD-397" value="object_src:/http://dbpedia.org/ontology/Band" style="text;align=left;verticalAlign=top;spacingLeft=4;spacingRight=4;overflow=hidden;rotatable=0;points=[[0,0.5],[1,0.5]];portConstraint=eastwest;rounded=0;shadow=0;html=0;" vertex="1" parent="duncpzKBdpz41MOlvivD-390">
          <mxGeometry y="174" width="187" height="24" as="geometry" />
        </mxCell>
        <mxCell id="duncpzKBdpz41MOlvivD-399" value="" style="endArrow=none;html=1;rounded=0;exitX=-0.006;exitY=1.056;exitDx=0;exitDy=0;exitPerimeter=0;" edge="1" parent="WIyWlLk6GJQsqaUBKTNV-1">
          <mxGeometry width="50" height="50" relative="1" as="geometry">
            <mxPoint x="53.894000000000005" y="2581.4" as="sourcePoint" />
            <mxPoint x="430" y="2580" as="targetPoint" />
          </mxGeometry>
        </mxCell>
        <mxCell id="duncpzKBdpz41MOlvivD-400" value="" style="endArrow=none;html=1;rounded=0;exitX=-0.007;exitY=1.027;exitDx=0;exitDy=0;exitPerimeter=0;" edge="1" parent="WIyWlLk6GJQsqaUBKTNV-1">
          <mxGeometry width="50" height="50" relative="1" as="geometry">
            <mxPoint x="54" y="2509" as="sourcePoint" />
            <mxPoint x="430" y="2509" as="targetPoint" />
          </mxGeometry>
        </mxCell>
        <mxCell id="duncpzKBdpz41MOlvivD-403" value="                                       wiki_history.db_dbpedia_type_transitive_en(实体的类型表)&#xa;" style="swimlane;fontStyle=2;align=center;verticalAlign=top;childLayout=stackLayout;horizontal=1;startSize=26;horizontalStack=0;resizeParent=1;resizeLast=0;collapsible=1;marginBottom=0;rounded=0;shadow=0;strokeWidth=1;" vertex="1" parent="WIyWlLk6GJQsqaUBKTNV-1">
          <mxGeometry x="504" y="2507" width="187" height="200" as="geometry">
            <mxRectangle x="1350" y="102" width="277" height="22" as="alternateBounds" />
          </mxGeometry>
        </mxCell>
        <mxCell id="duncpzKBdpz41MOlvivD-404" value="subject:/!!!" style="text;align=left;verticalAlign=top;spacingLeft=4;spacingRight=4;overflow=hidden;rotatable=0;points=[[0,0.5],[1,0.5]];portConstraint=eastwest;" vertex="1" parent="duncpzKBdpz41MOlvivD-403">
          <mxGeometry y="26" width="187" height="26" as="geometry" />
        </mxCell>
        <mxCell id="duncpzKBdpz41MOlvivD-405" value="predicate:/type" style="text;align=left;verticalAlign=top;spacingLeft=4;spacingRight=4;overflow=hidden;rotatable=0;points=[[0,0.5],[1,0.5]];portConstraint=eastwest;rounded=0;shadow=0;html=0;" vertex="1" parent="duncpzKBdpz41MOlvivD-403">
          <mxGeometry y="52" width="187" height="26" as="geometry" />
        </mxCell>
        <mxCell id="duncpzKBdpz41MOlvivD-406" value="object:/MusicGroup " style="text;align=left;verticalAlign=top;spacingLeft=4;spacingRight=4;overflow=hidden;rotatable=0;points=[[0,0.5],[1,0.5]];portConstraint=eastwest;rounded=0;shadow=0;html=0;" vertex="1" parent="duncpzKBdpz41MOlvivD-403">
          <mxGeometry y="78" width="187" height="24" as="geometry" />
        </mxCell>
        <mxCell id="duncpzKBdpz41MOlvivD-407" value="object_type:/resource" style="text;align=left;verticalAlign=top;spacingLeft=4;spacingRight=4;overflow=hidden;rotatable=0;points=[[0,0.5],[1,0.5]];portConstraint=eastwest;rounded=0;shadow=0;html=0;" vertex="1" parent="duncpzKBdpz41MOlvivD-403">
          <mxGeometry y="102" width="187" height="24" as="geometry" />
        </mxCell>
        <mxCell id="duncpzKBdpz41MOlvivD-408" value="subject_src:/http://dbpedia.org/resource/!!!" style="text;align=left;verticalAlign=top;spacingLeft=4;spacingRight=4;overflow=hidden;rotatable=0;points=[[0,0.5],[1,0.5]];portConstraint=eastwest;rounded=0;shadow=0;html=0;" vertex="1" parent="duncpzKBdpz41MOlvivD-403">
          <mxGeometry y="126" width="187" height="24" as="geometry" />
        </mxCell>
        <mxCell id="duncpzKBdpz41MOlvivD-409" value="predicate_src:/http://www.w3.org/1999/02/22-rdf-syntax-ns#type" style="text;align=left;verticalAlign=top;spacingLeft=4;spacingRight=4;overflow=hidden;rotatable=0;points=[[0,0.5],[1,0.5]];portConstraint=eastwest;rounded=0;shadow=0;html=0;" vertex="1" parent="duncpzKBdpz41MOlvivD-403">
          <mxGeometry y="150" width="187" height="24" as="geometry" />
        </mxCell>
        <mxCell id="duncpzKBdpz41MOlvivD-410" value="object_src:/http://schema.org/MusicGroup" style="text;align=left;verticalAlign=top;spacingLeft=4;spacingRight=4;overflow=hidden;rotatable=0;points=[[0,0.5],[1,0.5]];portConstraint=eastwest;rounded=0;shadow=0;html=0;" vertex="1" parent="duncpzKBdpz41MOlvivD-403">
          <mxGeometry y="174" width="187" height="24" as="geometry" />
        </mxCell>
        <mxCell id="duncpzKBdpz41MOlvivD-411" value="" style="shape=flexArrow;endArrow=classic;html=1;rounded=0;entryX=-0.005;entryY=0.749;entryDx=0;entryDy=0;entryPerimeter=0;" edge="1" parent="WIyWlLk6GJQsqaUBKTNV-1">
          <mxGeometry width="50" height="50" relative="1" as="geometry">
            <mxPoint x="430" y="2321" as="sourcePoint" />
            <mxPoint x="492" y="2321" as="targetPoint" />
          </mxGeometry>
        </mxCell>
        <mxCell id="duncpzKBdpz41MOlvivD-412" value="" style="shape=flexArrow;endArrow=classic;html=1;rounded=0;entryX=-0.005;entryY=0.749;entryDx=0;entryDy=0;entryPerimeter=0;" edge="1" parent="WIyWlLk6GJQsqaUBKTNV-1">
          <mxGeometry width="50" height="50" relative="1" as="geometry">
            <mxPoint x="430" y="2544.16" as="sourcePoint" />
            <mxPoint x="492" y="2544.16" as="targetPoint" />
            <Array as="points">
              <mxPoint x="470" y="2544" />
            </Array>
          </mxGeometry>
        </mxCell>
        <mxCell id="duncpzKBdpz41MOlvivD-423" value="             wiki_history.wiki_relation_title(wikidata-wikipedia关系表)" style="swimlane;fontStyle=2;align=center;verticalAlign=top;childLayout=stackLayout;horizontal=1;startSize=26;horizontalStack=0;resizeParent=1;resizeLast=0;collapsible=1;marginBottom=0;rounded=0;shadow=0;strokeWidth=1;" vertex="1" parent="WIyWlLk6GJQsqaUBKTNV-1">
          <mxGeometry x="2238" y="1030" width="271" height="110" as="geometry">
            <mxRectangle x="2238" y="1030" width="277" height="22" as="alternateBounds" />
          </mxGeometry>
        </mxCell>
        <mxCell id="duncpzKBdpz41MOlvivD-424" value="id:id/例如Q6279" style="text;align=left;verticalAlign=top;spacingLeft=4;spacingRight=4;overflow=hidden;rotatable=0;points=[[0,0.5],[1,0.5]];portConstraint=eastwest;" vertex="1" parent="duncpzKBdpz41MOlvivD-423">
          <mxGeometry y="26" width="271" height="26" as="geometry" />
        </mxCell>
        <mxCell id="duncpzKBdpz41MOlvivD-425" value="title_zh:/乔·拜登" style="text;align=left;verticalAlign=top;spacingLeft=4;spacingRight=4;overflow=hidden;rotatable=0;points=[[0,0.5],[1,0.5]];portConstraint=eastwest;rounded=0;shadow=0;html=0;" vertex="1" parent="duncpzKBdpz41MOlvivD-423">
          <mxGeometry y="52" width="271" height="26" as="geometry" />
        </mxCell>
        <mxCell id="duncpzKBdpz41MOlvivD-426" value="title_en:Joe Biden" style="text;align=left;verticalAlign=top;spacingLeft=4;spacingRight=4;overflow=hidden;rotatable=0;points=[[0,0.5],[1,0.5]];portConstraint=eastwest;rounded=0;shadow=0;html=0;" vertex="1" parent="duncpzKBdpz41MOlvivD-423">
          <mxGeometry y="78" width="271" height="24" as="geometry" />
        </mxCell>
        <mxCell id="duncpzKBdpz41MOlvivD-433" value="" style="shape=flexArrow;endArrow=classic;html=1;rounded=0;" edge="1" parent="WIyWlLk6GJQsqaUBKTNV-1">
          <mxGeometry width="50" height="50" relative="1" as="geometry">
            <mxPoint x="2084" y="1040" as="sourcePoint" />
            <mxPoint x="2204" y="1040" as="targetPoint" />
            <Array as="points">
              <mxPoint x="2140" y="1040" />
            </Array>
          </mxGeometry>
        </mxCell>
        <mxCell id="duncpzKBdpz41MOlvivD-436" value="      wiki_history.pedia_page_v2（pedia拆解表）" style="swimlane;fontStyle=2;align=center;verticalAlign=top;childLayout=stackLayout;horizontal=1;startSize=26;horizontalStack=0;resizeParent=1;resizeLast=0;collapsible=1;marginBottom=0;rounded=0;shadow=0;strokeWidth=1;" vertex="1" parent="WIyWlLk6GJQsqaUBKTNV-1">
          <mxGeometry x="508" y="2840" width="182" height="260" as="geometry">
            <mxRectangle x="1350" y="102" width="277" height="22" as="alternateBounds" />
          </mxGeometry>
        </mxCell>
        <mxCell id="duncpzKBdpz41MOlvivD-437" value="_id:页面的一个数字id/51" style="text;align=left;verticalAlign=top;spacingLeft=4;spacingRight=4;overflow=hidden;rotatable=0;points=[[0,0.5],[1,0.5]];portConstraint=eastwest;" vertex="1" parent="duncpzKBdpz41MOlvivD-436">
          <mxGeometry y="26" width="182" height="26" as="geometry" />
        </mxCell>
        <mxCell id="duncpzKBdpz41MOlvivD-438" value="page_title:wikipedia的英文名称/AbbeY" style="text;align=left;verticalAlign=top;spacingLeft=4;spacingRight=4;overflow=hidden;rotatable=0;points=[[0,0.5],[1,0.5]];portConstraint=eastwest;rounded=0;shadow=0;html=0;" vertex="1" parent="duncpzKBdpz41MOlvivD-436">
          <mxGeometry y="52" width="182" height="26" as="geometry" />
        </mxCell>
        <mxCell id="duncpzKBdpz41MOlvivD-439" value="redirect:部分属于跳转的名称" style="text;align=left;verticalAlign=top;spacingLeft=4;spacingRight=4;overflow=hidden;rotatable=0;points=[[0,0.5],[1,0.5]];portConstraint=eastwest;rounded=0;shadow=0;html=0;" vertex="1" parent="duncpzKBdpz41MOlvivD-436">
          <mxGeometry y="78" width="182" height="24" as="geometry" />
        </mxCell>
        <mxCell id="duncpzKBdpz41MOlvivD-440" value="text:页面原始全量文本" style="text;align=left;verticalAlign=top;spacingLeft=4;spacingRight=4;overflow=hidden;rotatable=0;points=[[0,0.5],[1,0.5]];portConstraint=eastwest;rounded=0;shadow=0;html=0;" vertex="1" parent="duncpzKBdpz41MOlvivD-436">
          <mxGeometry y="102" width="182" height="24" as="geometry" />
        </mxCell>
        <mxCell id="duncpzKBdpz41MOlvivD-441" value="timestamp:页面修改时间撮" style="text;align=left;verticalAlign=top;spacingLeft=4;spacingRight=4;overflow=hidden;rotatable=0;points=[[0,0.5],[1,0.5]];portConstraint=eastwest;rounded=0;shadow=0;html=0;" vertex="1" parent="duncpzKBdpz41MOlvivD-436">
          <mxGeometry y="126" width="182" height="24" as="geometry" />
        </mxCell>
        <mxCell id="duncpzKBdpz41MOlvivD-442" value="infobox_name:infobox类别名称" style="text;align=left;verticalAlign=top;spacingLeft=4;spacingRight=4;overflow=hidden;rotatable=0;points=[[0,0.5],[1,0.5]];portConstraint=eastwest;rounded=0;shadow=0;html=0;" vertex="1" parent="duncpzKBdpz41MOlvivD-436">
          <mxGeometry y="150" width="182" height="24" as="geometry" />
        </mxCell>
        <mxCell id="duncpzKBdpz41MOlvivD-443" value="infobox:对应信息框原文" style="text;align=left;verticalAlign=top;spacingLeft=4;spacingRight=4;overflow=hidden;rotatable=0;points=[[0,0.5],[1,0.5]];portConstraint=eastwest;rounded=0;shadow=0;html=0;" vertex="1" parent="duncpzKBdpz41MOlvivD-436">
          <mxGeometry y="174" width="182" height="26" as="geometry" />
        </mxCell>
        <mxCell id="duncpzKBdpz41MOlvivD-444" value="infobox_list:带结构的解析" style="text;align=left;verticalAlign=top;spacingLeft=4;spacingRight=4;overflow=hidden;rotatable=0;points=[[0,0.5],[1,0.5]];portConstraint=eastwest;rounded=0;shadow=0;html=0;" vertex="1" parent="duncpzKBdpz41MOlvivD-436">
          <mxGeometry y="200" width="182" height="26" as="geometry" />
        </mxCell>
        <mxCell id="duncpzKBdpz41MOlvivD-445" value="infobox_list_tostr:文本解析" style="text;align=left;verticalAlign=top;spacingLeft=4;spacingRight=4;overflow=hidden;rotatable=0;points=[[0,0.5],[1,0.5]];portConstraint=eastwest;rounded=0;shadow=0;html=0;" vertex="1" parent="duncpzKBdpz41MOlvivD-436">
          <mxGeometry y="226" width="182" height="26" as="geometry" />
        </mxCell>
        <mxCell id="duncpzKBdpz41MOlvivD-448" value="      wiki_history.pedia_infobox(infobox拆解表)" style="swimlane;fontStyle=2;align=center;verticalAlign=top;childLayout=stackLayout;horizontal=1;startSize=26;horizontalStack=0;resizeParent=1;resizeLast=0;collapsible=1;marginBottom=0;rounded=0;shadow=0;strokeWidth=1;" vertex="1" parent="WIyWlLk6GJQsqaUBKTNV-1">
          <mxGeometry x="1387" y="2645" width="182" height="140" as="geometry">
            <mxRectangle x="1350" y="102" width="277" height="22" as="alternateBounds" />
          </mxGeometry>
        </mxCell>
        <mxCell id="duncpzKBdpz41MOlvivD-449" value="_id:页面的一个数字id/51" style="text;align=left;verticalAlign=top;spacingLeft=4;spacingRight=4;overflow=hidden;rotatable=0;points=[[0,0.5],[1,0.5]];portConstraint=eastwest;" vertex="1" parent="duncpzKBdpz41MOlvivD-448">
          <mxGeometry y="26" width="182" height="26" as="geometry" />
        </mxCell>
        <mxCell id="duncpzKBdpz41MOlvivD-456" value="infobox:对应信息框原文" style="text;align=left;verticalAlign=top;spacingLeft=4;spacingRight=4;overflow=hidden;rotatable=0;points=[[0,0.5],[1,0.5]];portConstraint=eastwest;rounded=0;shadow=0;html=0;" vertex="1" parent="duncpzKBdpz41MOlvivD-448">
          <mxGeometry y="52" width="182" height="26" as="geometry" />
        </mxCell>
        <mxCell id="duncpzKBdpz41MOlvivD-457" value="infobox_list:带结构的解析" style="text;align=left;verticalAlign=top;spacingLeft=4;spacingRight=4;overflow=hidden;rotatable=0;points=[[0,0.5],[1,0.5]];portConstraint=eastwest;rounded=0;shadow=0;html=0;" vertex="1" parent="duncpzKBdpz41MOlvivD-448">
          <mxGeometry y="78" width="182" height="26" as="geometry" />
        </mxCell>
        <mxCell id="duncpzKBdpz41MOlvivD-458" value="infobox_list_tostr:文本解析" style="text;align=left;verticalAlign=top;spacingLeft=4;spacingRight=4;overflow=hidden;rotatable=0;points=[[0,0.5],[1,0.5]];portConstraint=eastwest;rounded=0;shadow=0;html=0;" vertex="1" parent="duncpzKBdpz41MOlvivD-448">
          <mxGeometry y="104" width="182" height="26" as="geometry" />
        </mxCell>
        <mxCell id="duncpzKBdpz41MOlvivD-459" value="&lt;span style=&quot;font-size: 24px;&quot;&gt;wikipedia&amp;nbsp; 数据加工清洗&lt;/span&gt;" style="swimlane;horizontal=0;whiteSpace=wrap;html=1;startSize=23;" vertex="1" parent="WIyWlLk6GJQsqaUBKTNV-1">
          <mxGeometry x="829" y="2650" width="411" height="410" as="geometry">
            <mxRectangle x="30" y="295" width="70" height="270" as="alternateBounds" />
          </mxGeometry>
        </mxCell>
        <mxCell id="duncpzKBdpz41MOlvivD-460" value="拆解wikipedia的infobox数据框" style="swimlane;whiteSpace=wrap;html=1;" vertex="1" parent="duncpzKBdpz41MOlvivD-459">
          <mxGeometry x="30" y="20" width="381" height="140" as="geometry">
            <mxRectangle x="30" y="20" width="140" height="30" as="alternateBounds" />
          </mxGeometry>
        </mxCell>
        <mxCell id="duncpzKBdpz41MOlvivD-474" value="数据来源字段:pedia_page_v2/infobox" style="text;align=left;verticalAlign=top;spacingLeft=4;spacingRight=4;overflow=hidden;rotatable=0;points=[[0,0.5],[1,0.5]];portConstraint=eastwest;" vertex="1" parent="duncpzKBdpz41MOlvivD-460">
          <mxGeometry x="2" y="83" width="370" height="28" as="geometry" />
        </mxCell>
        <mxCell id="duncpzKBdpz41MOlvivD-494" value="数据处理程序:[7-1]wikipedia_0517.py" style="text;align=left;verticalAlign=top;spacingLeft=4;spacingRight=4;overflow=hidden;rotatable=0;points=[[0,0.5],[1,0.5]];portConstraint=eastwest;" vertex="1" parent="duncpzKBdpz41MOlvivD-460">
          <mxGeometry x="1" y="27" width="380" height="28" as="geometry" />
        </mxCell>
        <mxCell id="duncpzKBdpz41MOlvivD-467" value="" style="shape=flexArrow;endArrow=classic;html=1;rounded=0;entryX=-0.01;entryY=0.485;entryDx=0;entryDy=0;entryPerimeter=0;" edge="1" parent="WIyWlLk6GJQsqaUBKTNV-1" target="duncpzKBdpz41MOlvivD-459">
          <mxGeometry width="50" height="50" relative="1" as="geometry">
            <mxPoint x="690" y="2850" as="sourcePoint" />
            <mxPoint x="740" y="2800" as="targetPoint" />
          </mxGeometry>
        </mxCell>
        <mxCell id="duncpzKBdpz41MOlvivD-471" value="数据处理程序:[7-1]wikipedia_0517.py" style="text;align=left;verticalAlign=top;spacingLeft=4;spacingRight=4;overflow=hidden;rotatable=0;points=[[0,0.5],[1,0.5]];portConstraint=eastwest;" vertex="1" parent="WIyWlLk6GJQsqaUBKTNV-1">
          <mxGeometry x="861" y="2697" width="380" height="28" as="geometry" />
        </mxCell>
        <mxCell id="duncpzKBdpz41MOlvivD-472" value="程序入口:WikiPedia_detail_infobox()" style="text;align=left;verticalAlign=top;spacingLeft=4;spacingRight=4;overflow=hidden;rotatable=0;points=[[0,0.5],[1,0.5]];portConstraint=eastwest;" vertex="1" parent="WIyWlLk6GJQsqaUBKTNV-1">
          <mxGeometry x="860" y="2725" width="380" height="28" as="geometry" />
        </mxCell>
        <mxCell id="duncpzKBdpz41MOlvivD-475" value="" style="shape=flexArrow;endArrow=classic;html=1;rounded=0;entryX=-0.01;entryY=0.485;entryDx=0;entryDy=0;entryPerimeter=0;" edge="1" parent="WIyWlLk6GJQsqaUBKTNV-1">
          <mxGeometry width="50" height="50" relative="1" as="geometry">
            <mxPoint x="1241" y="2661" as="sourcePoint" />
            <mxPoint x="1376" y="2660" as="targetPoint" />
          </mxGeometry>
        </mxCell>
        <mxCell id="duncpzKBdpz41MOlvivD-476" value="&lt;span style=&quot;font-size: 24px;&quot;&gt;应用表生成&lt;br&gt;&lt;/span&gt;" style="swimlane;horizontal=0;whiteSpace=wrap;html=1;startSize=23;" vertex="1" parent="WIyWlLk6GJQsqaUBKTNV-1">
          <mxGeometry x="2638" y="1050" width="412" height="350" as="geometry">
            <mxRectangle x="1674" y="90" width="70" height="270" as="alternateBounds" />
          </mxGeometry>
        </mxCell>
        <mxCell id="duncpzKBdpz41MOlvivD-485" value="wikipeida的id和wikidata汇总" style="swimlane;whiteSpace=wrap;html=1;startSize=23;" vertex="1" parent="duncpzKBdpz41MOlvivD-476">
          <mxGeometry x="38" y="10" width="372" height="240" as="geometry">
            <mxRectangle x="30" y="20" width="140" height="30" as="alternateBounds" />
          </mxGeometry>
        </mxCell>
        <mxCell id="duncpzKBdpz41MOlvivD-488" value="数据来源:wiki_relation_title(wikidata-wikipedia关系表)&#xa;               pedia_page_v2  实体属性表" style="text;align=left;verticalAlign=top;spacingLeft=4;spacingRight=4;overflow=hidden;rotatable=0;points=[[0,0.5],[1,0.5]];portConstraint=eastwest;" vertex="1" parent="duncpzKBdpz41MOlvivD-485">
          <mxGeometry y="84" width="370" height="46" as="geometry" />
        </mxCell>
        <mxCell id="duncpzKBdpz41MOlvivD-496" value="数据处理程序:[7-1]wikipedia_0517.py" style="text;align=left;verticalAlign=top;spacingLeft=4;spacingRight=4;overflow=hidden;rotatable=0;points=[[0,0.5],[1,0.5]];portConstraint=eastwest;" vertex="1" parent="duncpzKBdpz41MOlvivD-485">
          <mxGeometry x="4" y="28" width="380" height="28" as="geometry" />
        </mxCell>
        <mxCell id="duncpzKBdpz41MOlvivD-497" value="程序入口:WikiPedia_relation（）" style="text;align=left;verticalAlign=top;spacingLeft=4;spacingRight=4;overflow=hidden;rotatable=0;points=[[0,0.5],[1,0.5]];portConstraint=eastwest;" vertex="1" parent="duncpzKBdpz41MOlvivD-485">
          <mxGeometry x="3" y="56" width="380" height="28" as="geometry" />
        </mxCell>
        <mxCell id="duncpzKBdpz41MOlvivD-489" value="             wiki_history.wiki_relation_title_v1(wikidata-wikipedia关系表)" style="swimlane;fontStyle=2;align=center;verticalAlign=top;childLayout=stackLayout;horizontal=1;startSize=26;horizontalStack=0;resizeParent=1;resizeLast=0;collapsible=1;marginBottom=0;rounded=0;shadow=0;strokeWidth=1;" vertex="1" parent="WIyWlLk6GJQsqaUBKTNV-1">
          <mxGeometry x="3189" y="1050" width="271" height="230" as="geometry">
            <mxRectangle x="503" y="240" width="277" height="22" as="alternateBounds" />
          </mxGeometry>
        </mxCell>
        <mxCell id="duncpzKBdpz41MOlvivD-490" value="id:id/例如Q6279" style="text;align=left;verticalAlign=top;spacingLeft=4;spacingRight=4;overflow=hidden;rotatable=0;points=[[0,0.5],[1,0.5]];portConstraint=eastwest;" vertex="1" parent="duncpzKBdpz41MOlvivD-489">
          <mxGeometry y="26" width="271" height="26" as="geometry" />
        </mxCell>
        <mxCell id="duncpzKBdpz41MOlvivD-491" value="title_zh:/乔·拜登" style="text;align=left;verticalAlign=top;spacingLeft=4;spacingRight=4;overflow=hidden;rotatable=0;points=[[0,0.5],[1,0.5]];portConstraint=eastwest;rounded=0;shadow=0;html=0;" vertex="1" parent="duncpzKBdpz41MOlvivD-489">
          <mxGeometry y="52" width="271" height="26" as="geometry" />
        </mxCell>
        <mxCell id="duncpzKBdpz41MOlvivD-492" value="title_en:Joe Biden" style="text;align=left;verticalAlign=top;spacingLeft=4;spacingRight=4;overflow=hidden;rotatable=0;points=[[0,0.5],[1,0.5]];portConstraint=eastwest;rounded=0;shadow=0;html=0;" vertex="1" parent="duncpzKBdpz41MOlvivD-489">
          <mxGeometry y="78" width="271" height="24" as="geometry" />
        </mxCell>
        <mxCell id="duncpzKBdpz41MOlvivD-493" value="title_en_id:145422" style="text;align=left;verticalAlign=top;spacingLeft=4;spacingRight=4;overflow=hidden;rotatable=0;points=[[0,0.5],[1,0.5]];portConstraint=eastwest;rounded=0;shadow=0;html=0;" vertex="1" parent="duncpzKBdpz41MOlvivD-489">
          <mxGeometry y="102" width="271" height="24" as="geometry" />
        </mxCell>
        <mxCell id="duncpzKBdpz41MOlvivD-498" value="" style="endArrow=classic;html=1;rounded=0;" edge="1" parent="WIyWlLk6GJQsqaUBKTNV-1">
          <mxGeometry width="50" height="50" relative="1" as="geometry">
            <mxPoint x="2510" y="1080" as="sourcePoint" />
            <mxPoint x="2630" y="1080" as="targetPoint" />
          </mxGeometry>
        </mxCell>
        <mxCell id="duncpzKBdpz41MOlvivD-499" value="" style="endArrow=classic;html=1;rounded=0;entryX=0;entryY=0.5;entryDx=0;entryDy=0;" edge="1" parent="WIyWlLk6GJQsqaUBKTNV-1" target="duncpzKBdpz41MOlvivD-500">
          <mxGeometry width="50" height="50" relative="1" as="geometry">
            <mxPoint x="691" y="3100" as="sourcePoint" />
            <mxPoint x="2520" y="3093" as="targetPoint" />
          </mxGeometry>
        </mxCell>
        <mxCell id="duncpzKBdpz41MOlvivD-500" value="" style="triangle;whiteSpace=wrap;html=1;" vertex="1" parent="WIyWlLk6GJQsqaUBKTNV-1">
          <mxGeometry x="2540" y="3053" width="60" height="80" as="geometry" />
        </mxCell>
        <mxCell id="duncpzKBdpz41MOlvivD-501" value="" style="triangle;whiteSpace=wrap;html=1;" vertex="1" parent="WIyWlLk6GJQsqaUBKTNV-1">
          <mxGeometry x="2549" y="1162" width="25" height="48" as="geometry" />
        </mxCell>
        <mxCell id="duncpzKBdpz41MOlvivD-502" value="" style="endArrow=classic;html=1;rounded=0;exitX=0.5;exitY=0;exitDx=0;exitDy=0;entryX=0.5;entryY=1;entryDx=0;entryDy=0;" edge="1" parent="WIyWlLk6GJQsqaUBKTNV-1" source="duncpzKBdpz41MOlvivD-500" target="duncpzKBdpz41MOlvivD-501">
          <mxGeometry width="50" height="50" relative="1" as="geometry">
            <mxPoint x="2420" y="2560" as="sourcePoint" />
            <mxPoint x="1700" y="1220" as="targetPoint" />
          </mxGeometry>
        </mxCell>
        <mxCell id="duncpzKBdpz41MOlvivD-506" value="" style="endArrow=classic;html=1;rounded=0;" edge="1" parent="WIyWlLk6GJQsqaUBKTNV-1">
          <mxGeometry width="50" height="50" relative="1" as="geometry">
            <mxPoint x="3050" y="1070" as="sourcePoint" />
            <mxPoint x="3180" y="1070" as="targetPoint" />
          </mxGeometry>
        </mxCell>
        <mxCell id="duncpzKBdpz41MOlvivD-508" value="             wiki_history.lable_table_list(标签数据来源字典表)" style="swimlane;fontStyle=2;align=center;verticalAlign=top;childLayout=stackLayout;horizontal=1;startSize=26;horizontalStack=0;resizeParent=1;resizeLast=0;collapsible=1;marginBottom=0;rounded=0;shadow=0;strokeWidth=1;" vertex="1" parent="WIyWlLk6GJQsqaUBKTNV-1">
          <mxGeometry x="2229" y="1900" width="261" height="270" as="geometry">
            <mxRectangle x="2229" y="1330" width="277" height="22" as="alternateBounds" />
          </mxGeometry>
        </mxCell>
        <mxCell id="duncpzKBdpz41MOlvivD-509" value="db_id:db_01" style="text;align=left;verticalAlign=top;spacingLeft=4;spacingRight=4;overflow=hidden;rotatable=0;points=[[0,0.5],[1,0.5]];portConstraint=eastwest;" vertex="1" parent="duncpzKBdpz41MOlvivD-508">
          <mxGeometry y="26" width="261" height="26" as="geometry" />
        </mxCell>
        <mxCell id="duncpzKBdpz41MOlvivD-510" value="dbname:表名/wiki基础信息表" style="text;align=left;verticalAlign=top;spacingLeft=4;spacingRight=4;overflow=hidden;rotatable=0;points=[[0,0.5],[1,0.5]];portConstraint=eastwest;rounded=0;shadow=0;html=0;" vertex="1" parent="duncpzKBdpz41MOlvivD-508">
          <mxGeometry y="52" width="261" height="26" as="geometry" />
        </mxCell>
        <mxCell id="duncpzKBdpz41MOlvivD-511" value="database_name:数据库名/wiki_history" style="text;align=left;verticalAlign=top;spacingLeft=4;spacingRight=4;overflow=hidden;rotatable=0;points=[[0,0.5],[1,0.5]];portConstraint=eastwest;rounded=0;shadow=0;html=0;" vertex="1" parent="duncpzKBdpz41MOlvivD-508">
          <mxGeometry y="78" width="261" height="24" as="geometry" />
        </mxCell>
        <mxCell id="duncpzKBdpz41MOlvivD-512" value="table_name:数据表名/db_wikitype_v2" style="text;align=left;verticalAlign=top;spacingLeft=4;spacingRight=4;overflow=hidden;rotatable=0;points=[[0,0.5],[1,0.5]];portConstraint=eastwest;rounded=0;shadow=0;html=0;" vertex="1" parent="duncpzKBdpz41MOlvivD-508">
          <mxGeometry y="102" width="261" height="24" as="geometry" />
        </mxCell>
        <mxCell id="duncpzKBdpz41MOlvivD-513" value="database_type:数据库类型/clickhouse" style="text;align=left;verticalAlign=top;spacingLeft=4;spacingRight=4;overflow=hidden;rotatable=0;points=[[0,0.5],[1,0.5]];portConstraint=eastwest;rounded=0;shadow=0;html=0;" vertex="1" parent="duncpzKBdpz41MOlvivD-508">
          <mxGeometry y="126" width="261" height="24" as="geometry" />
        </mxCell>
        <mxCell id="duncpzKBdpz41MOlvivD-514" value="ip:/192.168.12.223" style="text;align=left;verticalAlign=top;spacingLeft=4;spacingRight=4;overflow=hidden;rotatable=0;points=[[0,0.5],[1,0.5]];portConstraint=eastwest;rounded=0;shadow=0;html=0;" vertex="1" parent="duncpzKBdpz41MOlvivD-508">
          <mxGeometry y="150" width="261" height="24" as="geometry" />
        </mxCell>
        <mxCell id="duncpzKBdpz41MOlvivD-515" value="port:/端口" style="text;align=left;verticalAlign=top;spacingLeft=4;spacingRight=4;overflow=hidden;rotatable=0;points=[[0,0.5],[1,0.5]];portConstraint=eastwest;rounded=0;shadow=0;html=0;" vertex="1" parent="duncpzKBdpz41MOlvivD-508">
          <mxGeometry y="174" width="261" height="24" as="geometry" />
        </mxCell>
        <mxCell id="duncpzKBdpz41MOlvivD-516" value="connect_str:连接字符串/jdbc:clickhouse://192.168.12.223:19000" style="text;align=left;verticalAlign=top;spacingLeft=4;spacingRight=4;overflow=hidden;rotatable=0;points=[[0,0.5],[1,0.5]];portConstraint=eastwest;rounded=0;shadow=0;html=0;" vertex="1" parent="duncpzKBdpz41MOlvivD-508">
          <mxGeometry y="198" width="261" height="24" as="geometry" />
        </mxCell>
        <mxCell id="duncpzKBdpz41MOlvivD-517" value="version:版本号/1" style="text;align=left;verticalAlign=top;spacingLeft=4;spacingRight=4;overflow=hidden;rotatable=0;points=[[0,0.5],[1,0.5]];portConstraint=eastwest;rounded=0;shadow=0;html=0;" vertex="1" parent="duncpzKBdpz41MOlvivD-508">
          <mxGeometry y="222" width="261" height="24" as="geometry" />
        </mxCell>
        <mxCell id="duncpzKBdpz41MOlvivD-568" value="其他：insert_time/enable/is_del" style="text;align=left;verticalAlign=top;spacingLeft=4;spacingRight=4;overflow=hidden;rotatable=0;points=[[0,0.5],[1,0.5]];portConstraint=eastwest;rounded=0;shadow=0;html=0;" vertex="1" parent="duncpzKBdpz41MOlvivD-508">
          <mxGeometry y="246" width="261" height="24" as="geometry" />
        </mxCell>
        <mxCell id="duncpzKBdpz41MOlvivD-521" value="             wiki_history.lable_meta_list(数据来源列管理表)" style="swimlane;fontStyle=2;align=center;verticalAlign=top;childLayout=stackLayout;horizontal=1;startSize=26;horizontalStack=0;resizeParent=1;resizeLast=0;collapsible=1;marginBottom=0;rounded=0;shadow=0;strokeWidth=1;" vertex="1" parent="WIyWlLk6GJQsqaUBKTNV-1">
          <mxGeometry x="2229" y="2195" width="261" height="270" as="geometry">
            <mxRectangle x="503" y="240" width="277" height="22" as="alternateBounds" />
          </mxGeometry>
        </mxCell>
        <mxCell id="duncpzKBdpz41MOlvivD-522" value="metadata_id:/me_001" style="text;align=left;verticalAlign=top;spacingLeft=4;spacingRight=4;overflow=hidden;rotatable=0;points=[[0,0.5],[1,0.5]];portConstraint=eastwest;" vertex="1" parent="duncpzKBdpz41MOlvivD-521">
          <mxGeometry y="26" width="261" height="26" as="geometry" />
        </mxCell>
        <mxCell id="duncpzKBdpz41MOlvivD-523" value="metaname:名称/wikidata分类" style="text;align=left;verticalAlign=top;spacingLeft=4;spacingRight=4;overflow=hidden;rotatable=0;points=[[0,0.5],[1,0.5]];portConstraint=eastwest;rounded=0;shadow=0;html=0;" vertex="1" parent="duncpzKBdpz41MOlvivD-521">
          <mxGeometry y="52" width="261" height="26" as="geometry" />
        </mxCell>
        <mxCell id="duncpzKBdpz41MOlvivD-524" value="use_type:类型/0" style="text;align=left;verticalAlign=top;spacingLeft=4;spacingRight=4;overflow=hidden;rotatable=0;points=[[0,0.5],[1,0.5]];portConstraint=eastwest;rounded=0;shadow=0;html=0;" vertex="1" parent="duncpzKBdpz41MOlvivD-521">
          <mxGeometry y="78" width="261" height="24" as="geometry" />
        </mxCell>
        <mxCell id="duncpzKBdpz41MOlvivD-525" value="db_id:数据库/db_01" style="text;align=left;verticalAlign=top;spacingLeft=4;spacingRight=4;overflow=hidden;rotatable=0;points=[[0,0.5],[1,0.5]];portConstraint=eastwest;rounded=0;shadow=0;html=0;" vertex="1" parent="duncpzKBdpz41MOlvivD-521">
          <mxGeometry y="102" width="261" height="24" as="geometry" />
        </mxCell>
        <mxCell id="duncpzKBdpz41MOlvivD-526" value="col_name:对应数据库列名/instance_str" style="text;align=left;verticalAlign=top;spacingLeft=4;spacingRight=4;overflow=hidden;rotatable=0;points=[[0,0.5],[1,0.5]];portConstraint=eastwest;rounded=0;shadow=0;html=0;" vertex="1" parent="duncpzKBdpz41MOlvivD-521">
          <mxGeometry y="126" width="261" height="24" as="geometry" />
        </mxCell>
        <mxCell id="duncpzKBdpz41MOlvivD-527" value="ip:/192.168.12.223" style="text;align=left;verticalAlign=top;spacingLeft=4;spacingRight=4;overflow=hidden;rotatable=0;points=[[0,0.5],[1,0.5]];portConstraint=eastwest;rounded=0;shadow=0;html=0;" vertex="1" parent="duncpzKBdpz41MOlvivD-521">
          <mxGeometry y="150" width="261" height="24" as="geometry" />
        </mxCell>
        <mxCell id="duncpzKBdpz41MOlvivD-528" value="port:/端口" style="text;align=left;verticalAlign=top;spacingLeft=4;spacingRight=4;overflow=hidden;rotatable=0;points=[[0,0.5],[1,0.5]];portConstraint=eastwest;rounded=0;shadow=0;html=0;" vertex="1" parent="duncpzKBdpz41MOlvivD-521">
          <mxGeometry y="174" width="261" height="24" as="geometry" />
        </mxCell>
        <mxCell id="duncpzKBdpz41MOlvivD-529" value="connect_str:连接字符串/jdbc:clickhouse://192.168.12.223:19000" style="text;align=left;verticalAlign=top;spacingLeft=4;spacingRight=4;overflow=hidden;rotatable=0;points=[[0,0.5],[1,0.5]];portConstraint=eastwest;rounded=0;shadow=0;html=0;" vertex="1" parent="duncpzKBdpz41MOlvivD-521">
          <mxGeometry y="198" width="261" height="24" as="geometry" />
        </mxCell>
        <mxCell id="duncpzKBdpz41MOlvivD-530" value="version:版本号/1" style="text;align=left;verticalAlign=top;spacingLeft=4;spacingRight=4;overflow=hidden;rotatable=0;points=[[0,0.5],[1,0.5]];portConstraint=eastwest;rounded=0;shadow=0;html=0;" vertex="1" parent="duncpzKBdpz41MOlvivD-521">
          <mxGeometry y="222" width="261" height="24" as="geometry" />
        </mxCell>
        <mxCell id="duncpzKBdpz41MOlvivD-567" value="其他：insert_time/enable/is_del" style="text;align=left;verticalAlign=top;spacingLeft=4;spacingRight=4;overflow=hidden;rotatable=0;points=[[0,0.5],[1,0.5]];portConstraint=eastwest;rounded=0;shadow=0;html=0;" vertex="1" parent="duncpzKBdpz41MOlvivD-521">
          <mxGeometry y="246" width="261" height="24" as="geometry" />
        </mxCell>
        <mxCell id="duncpzKBdpz41MOlvivD-534" value="" style="endArrow=classic;html=1;rounded=0;exitX=0;exitY=0.5;exitDx=0;exitDy=0;entryX=0;entryY=0.5;entryDx=0;entryDy=0;" edge="1" parent="WIyWlLk6GJQsqaUBKTNV-1" source="duncpzKBdpz41MOlvivD-525" target="duncpzKBdpz41MOlvivD-509">
          <mxGeometry width="50" height="50" relative="1" as="geometry">
            <mxPoint x="2690" y="2161" as="sourcePoint" />
            <mxPoint x="2220" y="1781" as="targetPoint" />
            <Array as="points">
              <mxPoint x="2170" y="2309" />
              <mxPoint x="2170" y="1940" />
            </Array>
          </mxGeometry>
        </mxCell>
        <mxCell id="duncpzKBdpz41MOlvivD-535" value="             wiki_history.lable_instance_classify(标签分类字典表)" style="swimlane;fontStyle=2;align=center;verticalAlign=top;childLayout=stackLayout;horizontal=1;startSize=26;horizontalStack=0;resizeParent=1;resizeLast=0;collapsible=1;marginBottom=0;rounded=0;shadow=0;strokeWidth=1;" vertex="1" parent="WIyWlLk6GJQsqaUBKTNV-1">
          <mxGeometry x="2229" y="2690" width="260" height="345" as="geometry">
            <mxRectangle x="503" y="240" width="277" height="22" as="alternateBounds" />
          </mxGeometry>
        </mxCell>
        <mxCell id="duncpzKBdpz41MOlvivD-536" value="lable_id:/l_101002" style="text;align=left;verticalAlign=top;spacingLeft=4;spacingRight=4;overflow=hidden;rotatable=0;points=[[0,0.5],[1,0.5]];portConstraint=eastwest;" vertex="1" parent="duncpzKBdpz41MOlvivD-535">
          <mxGeometry y="26" width="260" height="26" as="geometry" />
        </mxCell>
        <mxCell id="duncpzKBdpz41MOlvivD-537" value="atom_type:是否是原子标签/1" style="text;align=left;verticalAlign=top;spacingLeft=4;spacingRight=4;overflow=hidden;rotatable=0;points=[[0,0.5],[1,0.5]];portConstraint=eastwest;rounded=0;shadow=0;html=0;" vertex="1" parent="duncpzKBdpz41MOlvivD-535">
          <mxGeometry y="52" width="260" height="26" as="geometry" />
        </mxCell>
        <mxCell id="duncpzKBdpz41MOlvivD-538" value="lable_from:标签类型1/lt_01 实体标签" style="text;align=left;verticalAlign=top;spacingLeft=4;spacingRight=4;overflow=hidden;rotatable=0;points=[[0,0.5],[1,0.5]];portConstraint=eastwest;rounded=0;shadow=0;html=0;" vertex="1" parent="duncpzKBdpz41MOlvivD-535">
          <mxGeometry y="78" width="260" height="24" as="geometry" />
        </mxCell>
        <mxCell id="duncpzKBdpz41MOlvivD-539" value="lable_type:标签类型1/lt_10 分类标签" style="text;align=left;verticalAlign=top;spacingLeft=4;spacingRight=4;overflow=hidden;rotatable=0;points=[[0,0.5],[1,0.5]];portConstraint=eastwest;rounded=0;shadow=0;html=0;" vertex="1" parent="duncpzKBdpz41MOlvivD-535">
          <mxGeometry y="102" width="260" height="26" as="geometry" />
        </mxCell>
        <mxCell id="duncpzKBdpz41MOlvivD-540" value="value_type:/string" style="text;align=left;verticalAlign=top;spacingLeft=4;spacingRight=4;overflow=hidden;rotatable=0;points=[[0,0.5],[1,0.5]];portConstraint=eastwest;rounded=0;shadow=0;html=0;" vertex="1" parent="duncpzKBdpz41MOlvivD-535">
          <mxGeometry y="128" width="260" height="24" as="geometry" />
        </mxCell>
        <mxCell id="duncpzKBdpz41MOlvivD-541" value="name:/PolPeople" style="text;align=left;verticalAlign=top;spacingLeft=4;spacingRight=4;overflow=hidden;rotatable=0;points=[[0,0.5],[1,0.5]];portConstraint=eastwest;rounded=0;shadow=0;html=0;" vertex="1" parent="duncpzKBdpz41MOlvivD-535">
          <mxGeometry y="152" width="260" height="24" as="geometry" />
        </mxCell>
        <mxCell id="duncpzKBdpz41MOlvivD-542" value="cndesc_name:/政治人物" style="text;align=left;verticalAlign=top;spacingLeft=4;spacingRight=4;overflow=hidden;rotatable=0;points=[[0,0.5],[1,0.5]];portConstraint=eastwest;rounded=0;shadow=0;html=0;" vertex="1" parent="duncpzKBdpz41MOlvivD-535">
          <mxGeometry y="176" width="260" height="24" as="geometry" />
        </mxCell>
        <mxCell id="duncpzKBdpz41MOlvivD-543" value="up:/People" style="text;align=left;verticalAlign=top;spacingLeft=4;spacingRight=4;overflow=hidden;rotatable=0;points=[[0,0.5],[1,0.5]];portConstraint=eastwest;rounded=0;shadow=0;html=0;" vertex="1" parent="duncpzKBdpz41MOlvivD-535">
          <mxGeometry y="200" width="260" height="24" as="geometry" />
        </mxCell>
        <mxCell id="duncpzKBdpz41MOlvivD-544" value="relation:分类层级关系/LableTop,EntityAtom,People,PolPeople" style="text;align=left;verticalAlign=top;spacingLeft=4;spacingRight=4;overflow=hidden;rotatable=0;points=[[0,0.5],[1,0.5]];portConstraint=eastwest;rounded=0;shadow=0;html=0;" vertex="1" parent="duncpzKBdpz41MOlvivD-535">
          <mxGeometry y="224" width="260" height="24" as="geometry" />
        </mxCell>
        <mxCell id="duncpzKBdpz41MOlvivD-545" value="layer:分类层级/3" style="text;align=left;verticalAlign=top;spacingLeft=4;spacingRight=4;overflow=hidden;rotatable=0;points=[[0,0.5],[1,0.5]];portConstraint=eastwest;rounded=0;shadow=0;html=0;" vertex="1" parent="duncpzKBdpz41MOlvivD-535">
          <mxGeometry y="248" width="260" height="24" as="geometry" />
        </mxCell>
        <mxCell id="duncpzKBdpz41MOlvivD-547" value="islastlayer:是否是跟节点/1" style="text;align=left;verticalAlign=top;spacingLeft=4;spacingRight=4;overflow=hidden;rotatable=0;points=[[0,0.5],[1,0.5]];portConstraint=eastwest;rounded=0;shadow=0;html=0;" vertex="1" parent="duncpzKBdpz41MOlvivD-535">
          <mxGeometry y="272" width="260" height="24" as="geometry" />
        </mxCell>
        <mxCell id="duncpzKBdpz41MOlvivD-546" value="createSQL:生成sql/where ##me_003 like &quot;%Politician%&quot; and ##me_003 like &quot;%Person%&quot;" style="text;align=left;verticalAlign=top;spacingLeft=4;spacingRight=4;overflow=hidden;rotatable=0;points=[[0,0.5],[1,0.5]];portConstraint=eastwest;rounded=0;shadow=0;html=0;" vertex="1" parent="duncpzKBdpz41MOlvivD-535">
          <mxGeometry y="296" width="260" height="24" as="geometry" />
        </mxCell>
        <mxCell id="duncpzKBdpz41MOlvivD-566" value="其他:attribute/usetocreate/effectiveimmediately/defaultvalue/iscreate/insert_time/is_del/enable" style="text;align=left;verticalAlign=top;spacingLeft=4;spacingRight=4;overflow=hidden;rotatable=0;points=[[0,0.5],[1,0.5]];portConstraint=eastwest;rounded=0;shadow=0;html=0;" vertex="1" parent="duncpzKBdpz41MOlvivD-535">
          <mxGeometry y="320" width="260" height="24" as="geometry" />
        </mxCell>
        <mxCell id="duncpzKBdpz41MOlvivD-548" value="             wiki_history.lable_type(标签类型字典表)" style="swimlane;fontStyle=2;align=center;verticalAlign=top;childLayout=stackLayout;horizontal=1;startSize=26;horizontalStack=0;resizeParent=1;resizeLast=0;collapsible=1;marginBottom=0;rounded=0;shadow=0;strokeWidth=1;" vertex="1" parent="WIyWlLk6GJQsqaUBKTNV-1">
          <mxGeometry x="2229" y="2500" width="260" height="150" as="geometry">
            <mxRectangle x="503" y="240" width="277" height="22" as="alternateBounds" />
          </mxGeometry>
        </mxCell>
        <mxCell id="duncpzKBdpz41MOlvivD-549" value="labletype_id:lt_01" style="text;align=left;verticalAlign=top;spacingLeft=4;spacingRight=4;overflow=hidden;rotatable=0;points=[[0,0.5],[1,0.5]];portConstraint=eastwest;" vertex="1" parent="duncpzKBdpz41MOlvivD-548">
          <mxGeometry y="26" width="260" height="26" as="geometry" />
        </mxCell>
        <mxCell id="duncpzKBdpz41MOlvivD-550" value="lable_type_name:标签名称/实体标签" style="text;align=left;verticalAlign=top;spacingLeft=4;spacingRight=4;overflow=hidden;rotatable=0;points=[[0,0.5],[1,0.5]];portConstraint=eastwest;rounded=0;shadow=0;html=0;" vertex="1" parent="duncpzKBdpz41MOlvivD-548">
          <mxGeometry y="52" width="260" height="26" as="geometry" />
        </mxCell>
        <mxCell id="duncpzKBdpz41MOlvivD-551" value="desc:描述信息/实体标签" style="text;align=left;verticalAlign=top;spacingLeft=4;spacingRight=4;overflow=hidden;rotatable=0;points=[[0,0.5],[1,0.5]];portConstraint=eastwest;rounded=0;shadow=0;html=0;" vertex="1" parent="duncpzKBdpz41MOlvivD-548">
          <mxGeometry y="78" width="260" height="24" as="geometry" />
        </mxCell>
        <mxCell id="duncpzKBdpz41MOlvivD-557" value="version:版本号/1" style="text;align=left;verticalAlign=top;spacingLeft=4;spacingRight=4;overflow=hidden;rotatable=0;points=[[0,0.5],[1,0.5]];portConstraint=eastwest;rounded=0;shadow=0;html=0;" vertex="1" parent="duncpzKBdpz41MOlvivD-548">
          <mxGeometry y="102" width="260" height="24" as="geometry" />
        </mxCell>
        <mxCell id="duncpzKBdpz41MOlvivD-558" value="其他：insert_time/enable/is_del" style="text;align=left;verticalAlign=top;spacingLeft=4;spacingRight=4;overflow=hidden;rotatable=0;points=[[0,0.5],[1,0.5]];portConstraint=eastwest;rounded=0;shadow=0;html=0;" vertex="1" parent="duncpzKBdpz41MOlvivD-548">
          <mxGeometry y="126" width="260" height="24" as="geometry" />
        </mxCell>
        <mxCell id="duncpzKBdpz41MOlvivD-562" style="edgeStyle=orthogonalEdgeStyle;rounded=0;orthogonalLoop=1;jettySize=auto;html=1;entryX=0;entryY=0.5;entryDx=0;entryDy=0;" edge="1" parent="WIyWlLk6GJQsqaUBKTNV-1" source="duncpzKBdpz41MOlvivD-538" target="duncpzKBdpz41MOlvivD-549">
          <mxGeometry relative="1" as="geometry" />
        </mxCell>
        <mxCell id="duncpzKBdpz41MOlvivD-569" value="" style="endArrow=classic;html=1;rounded=0;entryX=0;entryY=0.5;entryDx=0;entryDy=0;exitX=0.004;exitY=0.417;exitDx=0;exitDy=0;exitPerimeter=0;" edge="1" parent="WIyWlLk6GJQsqaUBKTNV-1" source="duncpzKBdpz41MOlvivD-566" target="duncpzKBdpz41MOlvivD-522">
          <mxGeometry width="50" height="50" relative="1" as="geometry">
            <mxPoint x="2220" y="3020" as="sourcePoint" />
            <mxPoint x="2000" y="2300" as="targetPoint" />
            <Array as="points">
              <mxPoint x="2150" y="3020" />
              <mxPoint x="2150" y="2234" />
            </Array>
          </mxGeometry>
        </mxCell>
        <mxCell id="duncpzKBdpz41MOlvivD-570" value="&lt;span style=&quot;font-size: 24px;&quot;&gt;应用表生成&lt;br&gt;&lt;/span&gt;" style="swimlane;horizontal=0;whiteSpace=wrap;html=1;startSize=23;" vertex="1" parent="WIyWlLk6GJQsqaUBKTNV-1">
          <mxGeometry x="2638" y="2228" width="412" height="350" as="geometry">
            <mxRectangle x="1674" y="90" width="70" height="270" as="alternateBounds" />
          </mxGeometry>
        </mxCell>
        <mxCell id="duncpzKBdpz41MOlvivD-571" value="分类标签表生成" style="swimlane;whiteSpace=wrap;html=1;startSize=23;" vertex="1" parent="duncpzKBdpz41MOlvivD-570">
          <mxGeometry x="38" y="10" width="374" height="240" as="geometry">
            <mxRectangle x="30" y="20" width="140" height="30" as="alternateBounds" />
          </mxGeometry>
        </mxCell>
        <mxCell id="duncpzKBdpz41MOlvivD-572" value="数据来源:lable_table_list(标签数据来源字典表)&#xa;               lable_meta_list(数据来源列管理表)&#xa;               lable_type(标签类型字典表)&#xa;               lable_instance_classify(标签分类字典表)&#xa;               db_wikitype_v2(实体分类表)&#xa;               " style="text;align=left;verticalAlign=top;spacingLeft=4;spacingRight=4;overflow=hidden;rotatable=0;points=[[0,0.5],[1,0.5]];portConstraint=eastwest;" vertex="1" parent="duncpzKBdpz41MOlvivD-571">
          <mxGeometry x="4" y="56" width="370" height="134" as="geometry" />
        </mxCell>
        <mxCell id="duncpzKBdpz41MOlvivD-573" value="数据处理程序:[liyi-08]liyiwiki_update" style="text;align=left;verticalAlign=top;spacingLeft=4;spacingRight=4;overflow=hidden;rotatable=0;points=[[0,0.5],[1,0.5]];portConstraint=eastwest;" vertex="1" parent="duncpzKBdpz41MOlvivD-571">
          <mxGeometry x="4" y="28" width="380" height="28" as="geometry" />
        </mxCell>
        <mxCell id="duncpzKBdpz41MOlvivD-575" value="             wiki_history.lable_instance(实体标签表)" style="swimlane;fontStyle=2;align=center;verticalAlign=top;childLayout=stackLayout;horizontal=1;startSize=26;horizontalStack=0;resizeParent=1;resizeLast=0;collapsible=1;marginBottom=0;rounded=0;shadow=0;strokeWidth=1;fillColor=#CDA2BE;" vertex="1" parent="WIyWlLk6GJQsqaUBKTNV-1">
          <mxGeometry x="3199" y="2110" width="251" height="330" as="geometry">
            <mxRectangle x="503" y="240" width="277" height="22" as="alternateBounds" />
          </mxGeometry>
        </mxCell>
        <mxCell id="duncpzKBdpz41MOlvivD-576" value="instance_id:qid/例如Q6279" style="text;align=left;verticalAlign=top;spacingLeft=4;spacingRight=4;overflow=hidden;rotatable=0;points=[[0,0.5],[1,0.5]];portConstraint=eastwest;" vertex="1" parent="duncpzKBdpz41MOlvivD-575">
          <mxGeometry y="26" width="251" height="26" as="geometry" />
        </mxCell>
        <mxCell id="duncpzKBdpz41MOlvivD-577" value="lable_id:标签id/l101002" style="text;align=left;verticalAlign=top;spacingLeft=4;spacingRight=4;overflow=hidden;rotatable=0;points=[[0,0.5],[1,0.5]];portConstraint=eastwest;rounded=0;shadow=0;html=0;" vertex="1" parent="duncpzKBdpz41MOlvivD-575">
          <mxGeometry y="52" width="251" height="26" as="geometry" />
        </mxCell>
        <mxCell id="duncpzKBdpz41MOlvivD-578" value="lable_name:标签英文名/PolPeople" style="text;align=left;verticalAlign=top;spacingLeft=4;spacingRight=4;overflow=hidden;rotatable=0;points=[[0,0.5],[1,0.5]];portConstraint=eastwest;rounded=0;shadow=0;html=0;" vertex="1" parent="duncpzKBdpz41MOlvivD-575">
          <mxGeometry y="78" width="251" height="24" as="geometry" />
        </mxCell>
        <mxCell id="duncpzKBdpz41MOlvivD-579" value="lable_zhname:/政治人物" style="text;align=left;verticalAlign=top;spacingLeft=4;spacingRight=4;overflow=hidden;rotatable=0;points=[[0,0.5],[1,0.5]];portConstraint=eastwest;rounded=0;shadow=0;html=0;" vertex="1" parent="duncpzKBdpz41MOlvivD-575">
          <mxGeometry y="102" width="251" height="24" as="geometry" />
        </mxCell>
        <mxCell id="duncpzKBdpz41MOlvivD-580" value="lable_value:对应的qid,如果是国家保存类似Q30/" style="text;align=left;verticalAlign=top;spacingLeft=4;spacingRight=4;overflow=hidden;rotatable=0;points=[[0,0.5],[1,0.5]];portConstraint=eastwest;rounded=0;shadow=0;html=0;" vertex="1" parent="duncpzKBdpz41MOlvivD-575">
          <mxGeometry y="126" width="251" height="24" as="geometry" />
        </mxCell>
        <mxCell id="duncpzKBdpz41MOlvivD-581" value="weight:/0" style="text;align=left;verticalAlign=top;spacingLeft=4;spacingRight=4;overflow=hidden;rotatable=0;points=[[0,0.5],[1,0.5]];portConstraint=eastwest;rounded=0;shadow=0;html=0;" vertex="1" parent="duncpzKBdpz41MOlvivD-575">
          <mxGeometry y="150" width="251" height="24" as="geometry" />
        </mxCell>
        <mxCell id="duncpzKBdpz41MOlvivD-582" value="attr1:补充信息英文名/Joe Biden" style="text;align=left;verticalAlign=top;spacingLeft=4;spacingRight=4;overflow=hidden;rotatable=0;points=[[0,0.5],[1,0.5]];portConstraint=eastwest;rounded=0;shadow=0;html=0;" vertex="1" parent="duncpzKBdpz41MOlvivD-575">
          <mxGeometry y="174" width="251" height="24" as="geometry" />
        </mxCell>
        <mxCell id="duncpzKBdpz41MOlvivD-583" value="attr2:补充信息中文名/乔·拜登" style="text;align=left;verticalAlign=top;spacingLeft=4;spacingRight=4;overflow=hidden;rotatable=0;points=[[0,0.5],[1,0.5]];portConstraint=eastwest;rounded=0;shadow=0;html=0;" vertex="1" parent="duncpzKBdpz41MOlvivD-575">
          <mxGeometry y="198" width="251" height="22" as="geometry" />
        </mxCell>
        <mxCell id="duncpzKBdpz41MOlvivD-584" value="attr3:补充信息/" style="text;align=left;verticalAlign=top;spacingLeft=4;spacingRight=4;overflow=hidden;rotatable=0;points=[[0,0.5],[1,0.5]];portConstraint=eastwest;rounded=0;shadow=0;html=0;" vertex="1" parent="duncpzKBdpz41MOlvivD-575">
          <mxGeometry y="220" width="251" height="22" as="geometry" />
        </mxCell>
        <mxCell id="duncpzKBdpz41MOlvivD-585" value="attr4:补充信息全量别名/جوئي بائيڊن,ဘိုင်ဒင်,Joey Biden,Biden,جو آر بایدن,Τζόζεφ Ρόμπινετ Μπάιντεν τζιούνιορ,جوزيف روبينيت بايدن الابن,Joseph Robinette Biden,Joseph R. Biden, Jr.,JRB, Jr.,拜登,Amerikaanse president Biden,Joe R. Biden Jr.,Cosef Bayden,President Joe Biden,جۆزێف بایدن جۆنیۆر,بايدن,Joseph Robinette Biden, Jr.,جوزف بائيڊن,Joseph Robinette &quot;Joe&quot; Biden, Jr.,جوزيف بايدن,بایدن,Joseph Robinette Biden Junior,乔·拜登,President Joseph Robinette Biden Jr.,جۆو بایدن,ጆሴፍ ሮቢነት ባይደን ጁንየር,جوزف رابینت بایدن,Džozef Robinett Baiden,President Joseph Biden,JRB,Joseph Robinette &quot;Joe&quot; Biden Jr.,ໂຈເຊຟ ໂຣບິເນຕຕ໌ ໄບເດີນ ຈູນຽຣ໌,Joe Biden Jr.,POTUS 46,Joseph Robinette ”Joe” Biden, Jr.,祖·拜登,جوزف آر بائيڊن,Жозеф Байден,Жо Байден,President Joseph Biden Jr.,Джозеф Робинетт Байден,โจเซฟ โรบิเนตต์ ไบเดิน จูเนียร์,president Biden,ጆሴፍ ባይደን ጁንየር,Džozef Robinett Baiden-nrmb.,Джозеф Байден,Jozefo Biden,Джозэф Рабінэт Байдэн,جۆزێف بایدن,جوزف بيدن,Џьозеф Баиден,Joseph Robinette &quot;Joe&quot; Biden,Joe R. Biden,President Joseph R. Biden,Джо Байдэн,Joe Biden,جوزف بایدن جونیور,Joseph Robinette ”Joe” Biden,Джозеф Робинетт Байден кіші,President Biden,Joseph Robinette Biden Jr.,Iosephus Robinette Biden Iunior,جوزف بایدن,Joe Bidenas,President Joseph R. Biden Jr.,Джозеф Робинетт Байден-мл.,جوزف آر بایدن,Baiden Džo,جوزيف بيدن,Joseph R. Biden ml.,Joseph R. Biden Jr.,Байден, Джо,President Joseph Robinette Biden,Amerika tiŋgbani zuɣulana,Joseph R. Biden,Joseph Biden, Jr.,Baiden Džozef Robinett,白登,جوزيف روبينيت بايدن,Joseph Biden" style="text;align=left;verticalAlign=top;spacingLeft=4;spacingRight=4;overflow=hidden;rotatable=0;points=[[0,0.5],[1,0.5]];portConstraint=eastwest;rounded=0;shadow=0;html=0;" vertex="1" parent="duncpzKBdpz41MOlvivD-575">
          <mxGeometry y="242" width="251" height="22" as="geometry" />
        </mxCell>
        <mxCell id="duncpzKBdpz41MOlvivD-586" value="attr5:英文别名/President Joseph Robinette Biden Jr.,President Joseph Biden Jr.,President Joseph Biden,JRB,Biden,Joseph Robinette Biden,Joseph R. Biden, Jr.,Joseph R. Biden Jr.,Joe Biden Jr.,POTUS 46,President Joseph Robinette Biden,Joe R. Biden Jr.,President Joseph R. Biden,Joe R. Biden,Joseph R. Biden,President Biden,Joseph Robinette Biden Jr.,President Joe Biden,Joseph Biden,President Joseph R. Biden Jr." style="text;align=left;verticalAlign=top;spacingLeft=4;spacingRight=4;overflow=hidden;rotatable=0;points=[[0,0.5],[1,0.5]];portConstraint=eastwest;rounded=0;shadow=0;html=0;" vertex="1" parent="duncpzKBdpz41MOlvivD-575">
          <mxGeometry y="264" width="251" height="22" as="geometry" />
        </mxCell>
        <mxCell id="duncpzKBdpz41MOlvivD-587" value="attr6:补充信息/拜登" style="text;align=left;verticalAlign=top;spacingLeft=4;spacingRight=4;overflow=hidden;rotatable=0;points=[[0,0.5],[1,0.5]];portConstraint=eastwest;rounded=0;shadow=0;html=0;" vertex="1" parent="duncpzKBdpz41MOlvivD-575">
          <mxGeometry y="286" width="251" height="22" as="geometry" />
        </mxCell>
        <mxCell id="duncpzKBdpz41MOlvivD-588" value="其他:attrInt/attrFloat/attrDouble/his/lable_type/version/insert_time/is_del" style="text;align=left;verticalAlign=top;spacingLeft=4;spacingRight=4;overflow=hidden;rotatable=0;points=[[0,0.5],[1,0.5]];portConstraint=eastwest;rounded=0;shadow=0;html=0;" vertex="1" parent="duncpzKBdpz41MOlvivD-575">
          <mxGeometry y="308" width="251" height="22" as="geometry" />
        </mxCell>
        <mxCell id="duncpzKBdpz41MOlvivD-589" value="             wiki_history.lable_instance_sumrecord(标签统计记录表)" style="swimlane;fontStyle=2;align=center;verticalAlign=top;childLayout=stackLayout;horizontal=1;startSize=26;horizontalStack=0;resizeParent=1;resizeLast=0;collapsible=1;marginBottom=0;rounded=0;shadow=0;strokeWidth=1;" vertex="1" parent="WIyWlLk6GJQsqaUBKTNV-1">
          <mxGeometry x="3199" y="2491" width="231" height="159" as="geometry">
            <mxRectangle x="503" y="240" width="277" height="22" as="alternateBounds" />
          </mxGeometry>
        </mxCell>
        <mxCell id="duncpzKBdpz41MOlvivD-590" value="lable_id:标签id" style="text;align=left;verticalAlign=top;spacingLeft=4;spacingRight=4;overflow=hidden;rotatable=0;points=[[0,0.5],[1,0.5]];portConstraint=eastwest;" vertex="1" parent="duncpzKBdpz41MOlvivD-589">
          <mxGeometry y="26" width="231" height="26" as="geometry" />
        </mxCell>
        <mxCell id="duncpzKBdpz41MOlvivD-591" value="lable_name:标签英文名" style="text;align=left;verticalAlign=top;spacingLeft=4;spacingRight=4;overflow=hidden;rotatable=0;points=[[0,0.5],[1,0.5]];portConstraint=eastwest;rounded=0;shadow=0;html=0;" vertex="1" parent="duncpzKBdpz41MOlvivD-589">
          <mxGeometry y="52" width="231" height="26" as="geometry" />
        </mxCell>
        <mxCell id="duncpzKBdpz41MOlvivD-592" value="lable_zhname:标签中文名" style="text;align=left;verticalAlign=top;spacingLeft=4;spacingRight=4;overflow=hidden;rotatable=0;points=[[0,0.5],[1,0.5]];portConstraint=eastwest;rounded=0;shadow=0;html=0;" vertex="1" parent="duncpzKBdpz41MOlvivD-589">
          <mxGeometry y="78" width="231" height="24" as="geometry" />
        </mxCell>
        <mxCell id="duncpzKBdpz41MOlvivD-593" value="item_count:统计数量" style="text;align=left;verticalAlign=top;spacingLeft=4;spacingRight=4;overflow=hidden;rotatable=0;points=[[0,0.5],[1,0.5]];portConstraint=eastwest;rounded=0;shadow=0;html=0;" vertex="1" parent="duncpzKBdpz41MOlvivD-589">
          <mxGeometry y="102" width="231" height="24" as="geometry" />
        </mxCell>
        <mxCell id="duncpzKBdpz41MOlvivD-594" value="其他：version，insert_time,  is_del" style="text;align=left;verticalAlign=top;spacingLeft=4;spacingRight=4;overflow=hidden;rotatable=0;points=[[0,0.5],[1,0.5]];portConstraint=eastwest;rounded=0;shadow=0;html=0;" vertex="1" parent="duncpzKBdpz41MOlvivD-589">
          <mxGeometry y="126" width="231" height="24" as="geometry" />
        </mxCell>
        <mxCell id="duncpzKBdpz41MOlvivD-604" value="" style="endArrow=classic;html=1;rounded=0;entryX=-0.008;entryY=0.192;entryDx=0;entryDy=0;entryPerimeter=0;" edge="1" parent="WIyWlLk6GJQsqaUBKTNV-1">
          <mxGeometry width="50" height="50" relative="1" as="geometry">
            <mxPoint x="3050" y="2250" as="sourcePoint" />
            <mxPoint x="3196.992" y="2250.992" as="targetPoint" />
          </mxGeometry>
        </mxCell>
        <mxCell id="duncpzKBdpz41MOlvivD-605" value="" style="endArrow=classic;html=1;rounded=0;entryX=-0.008;entryY=0.192;entryDx=0;entryDy=0;entryPerimeter=0;" edge="1" parent="WIyWlLk6GJQsqaUBKTNV-1">
          <mxGeometry width="50" height="50" relative="1" as="geometry">
            <mxPoint x="3050" y="2510" as="sourcePoint" />
            <mxPoint x="3196.992" y="2510.992" as="targetPoint" />
          </mxGeometry>
        </mxCell>
        <mxCell id="duncpzKBdpz41MOlvivD-606" value="             wiki_history.db_wikitype_v2(实体分类表)" style="swimlane;fontStyle=2;align=center;verticalAlign=top;childLayout=stackLayout;horizontal=1;startSize=26;horizontalStack=0;resizeParent=1;resizeLast=0;collapsible=1;marginBottom=0;rounded=0;shadow=0;strokeWidth=1;fillColor=#CDA2BE;" vertex="1" parent="WIyWlLk6GJQsqaUBKTNV-1">
          <mxGeometry x="3199" y="1510" width="271" height="462" as="geometry">
            <mxRectangle x="503" y="240" width="277" height="22" as="alternateBounds" />
          </mxGeometry>
        </mxCell>
        <mxCell id="duncpzKBdpz41MOlvivD-607" value="q_id:id/例如Q6279" style="text;align=left;verticalAlign=top;spacingLeft=4;spacingRight=4;overflow=hidden;rotatable=0;points=[[0,0.5],[1,0.5]];portConstraint=eastwest;" vertex="1" parent="duncpzKBdpz41MOlvivD-606">
          <mxGeometry y="26" width="271" height="26" as="geometry" />
        </mxCell>
        <mxCell id="duncpzKBdpz41MOlvivD-608" value="instance_id:wikidata的分类id/Q5" style="text;align=left;verticalAlign=top;spacingLeft=4;spacingRight=4;overflow=hidden;rotatable=0;points=[[0,0.5],[1,0.5]];portConstraint=eastwest;rounded=0;shadow=0;html=0;" vertex="1" parent="duncpzKBdpz41MOlvivD-606">
          <mxGeometry y="52" width="271" height="26" as="geometry" />
        </mxCell>
        <mxCell id="duncpzKBdpz41MOlvivD-609" value="instance_str:分类英文名/human" style="text;align=left;verticalAlign=top;spacingLeft=4;spacingRight=4;overflow=hidden;rotatable=0;points=[[0,0.5],[1,0.5]];portConstraint=eastwest;rounded=0;shadow=0;html=0;" vertex="1" parent="duncpzKBdpz41MOlvivD-606">
          <mxGeometry y="78" width="271" height="24" as="geometry" />
        </mxCell>
        <mxCell id="duncpzKBdpz41MOlvivD-610" value="title_en:英文名称/Joe Biden" style="text;align=left;verticalAlign=top;spacingLeft=4;spacingRight=4;overflow=hidden;rotatable=0;points=[[0,0.5],[1,0.5]];portConstraint=eastwest;rounded=0;shadow=0;html=0;" vertex="1" parent="duncpzKBdpz41MOlvivD-606">
          <mxGeometry y="102" width="271" height="24" as="geometry" />
        </mxCell>
        <mxCell id="duncpzKBdpz41MOlvivD-611" value="title_zh:中文名称/乔·拜登" style="text;align=left;verticalAlign=top;spacingLeft=4;spacingRight=4;overflow=hidden;rotatable=0;points=[[0,0.5],[1,0.5]];portConstraint=eastwest;rounded=0;shadow=0;html=0;" vertex="1" parent="duncpzKBdpz41MOlvivD-606">
          <mxGeometry y="126" width="271" height="24" as="geometry" />
        </mxCell>
        <mxCell id="duncpzKBdpz41MOlvivD-612" value="dbpedia_typelist:dbpedia分类列表/Politician,Person,Animal,Eukaryote,Species,owl#Thing" style="text;align=left;verticalAlign=top;spacingLeft=4;spacingRight=4;overflow=hidden;rotatable=0;points=[[0,0.5],[1,0.5]];portConstraint=eastwest;rounded=0;shadow=0;html=0;" vertex="1" parent="duncpzKBdpz41MOlvivD-606">
          <mxGeometry y="150" width="271" height="24" as="geometry" />
        </mxCell>
        <mxCell id="duncpzKBdpz41MOlvivD-613" value="wp_infobox:infobox信息框名称/Infobox officeholder" style="text;align=left;verticalAlign=top;spacingLeft=4;spacingRight=4;overflow=hidden;rotatable=0;points=[[0,0.5],[1,0.5]];portConstraint=eastwest;rounded=0;shadow=0;html=0;" vertex="1" parent="duncpzKBdpz41MOlvivD-606">
          <mxGeometry y="174" width="271" height="24" as="geometry" />
        </mxCell>
        <mxCell id="duncpzKBdpz41MOlvivD-614" value="country:国家id/Q30" style="text;align=left;verticalAlign=top;spacingLeft=4;spacingRight=4;overflow=hidden;rotatable=0;points=[[0,0.5],[1,0.5]];portConstraint=eastwest;rounded=0;shadow=0;html=0;" vertex="1" parent="duncpzKBdpz41MOlvivD-606">
          <mxGeometry y="198" width="271" height="24" as="geometry" />
        </mxCell>
        <mxCell id="duncpzKBdpz41MOlvivD-615" value="occupation: /Q40348,Q1622272,Q15686806,Q115088092,Q82955" style="text;align=left;verticalAlign=top;spacingLeft=4;spacingRight=4;overflow=hidden;rotatable=0;points=[[0,0.5],[1,0.5]];portConstraint=eastwest;rounded=0;shadow=0;html=0;" vertex="1" parent="duncpzKBdpz41MOlvivD-606">
          <mxGeometry y="222" width="271" height="24" as="geometry" />
        </mxCell>
        <mxCell id="duncpzKBdpz41MOlvivD-616" value="subclass_of:是什么的子类" style="text;align=left;verticalAlign=top;spacingLeft=4;spacingRight=4;overflow=hidden;rotatable=0;points=[[0,0.5],[1,0.5]];portConstraint=eastwest;rounded=0;shadow=0;html=0;" vertex="1" parent="duncpzKBdpz41MOlvivD-606">
          <mxGeometry y="246" width="271" height="24" as="geometry" />
        </mxCell>
        <mxCell id="duncpzKBdpz41MOlvivD-617" value="part_of:是什么的一部分" style="text;align=left;verticalAlign=top;spacingLeft=4;spacingRight=4;overflow=hidden;rotatable=0;points=[[0,0.5],[1,0.5]];portConstraint=eastwest;rounded=0;shadow=0;html=0;" vertex="1" parent="duncpzKBdpz41MOlvivD-606">
          <mxGeometry y="270" width="271" height="24" as="geometry" />
        </mxCell>
        <mxCell id="duncpzKBdpz41MOlvivD-618" value="all_alas:所有的别名/جوئي بائيڊن,ဘိုင်ဒင်,Joey Biden,Biden,جو آر بایدن,Τζόζεφ Ρόμπινετ Μπάιντεν τζιούνιορ,جوزيف روبينيت بايدن الابن,Joseph Robinette Biden,Joseph R. Biden, Jr.,JRB, Jr.,拜登,Amerikaanse president Biden,Joe R. Biden Jr.,Cosef Bayden,President Joe Biden,جۆزێف بایدن جۆنیۆر,بايدن,Joseph Robinette Biden, Jr.,جوزف بائيڊن,Joseph Robinette &quot;Joe&quot; Biden, Jr.,جوزيف بايدن,بایدن,Joseph Robinette Biden Junior,乔·拜登,President Joseph Robinette Biden Jr.,جۆو بایدن,ጆሴፍ ሮቢነት ባይደን ጁንየር,جوزف رابینت بایدن,Džozef Robinett Baiden,President Joseph Biden,JRB,Joseph Robinette &quot;Joe&quot; Biden Jr.,ໂຈເຊຟ ໂຣບິເນຕຕ໌ ໄບເດີນ ຈູນຽຣ໌,Joe Biden Jr.,POTUS 46,Joseph Robinette ”Joe” Biden, Jr.,祖·拜登,جوزف آر بائيڊن,Жозеф Байден,Жо Байден,President Joseph Biden Jr.,Джозеф Робинетт Байден,โจเซฟ โรบิเนตต์ ไบเดิน จูเนียร์,president Biden,ጆሴፍ ባይደን ጁንየር,Džozef Robinett Baiden-nrmb.,Джозеф Байден,Jozefo Biden,Джозэф Рабінэт Байдэн,جۆزێف بایدن,جوزف بيدن,Џьозеф Баиден,Joseph Robinette &quot;Joe&quot; Biden,Joe R. Biden,President Joseph R. Biden,Джо Байдэн,Joe Biden,جوزف بایدن جونیور,Joseph Robinette ”Joe” Biden,Джозеф Робинетт Байден кіші,President Biden,Joseph Robinette Biden Jr.,Iosephus Robinette Biden Iunior,جوزف بایدن,Joe Bidenas,President Joseph R. Biden Jr.,Джозеф Робинетт Байден-мл.,جوزف آر بایدن,Baiden Džo,جوزيف بيدن,Joseph R. Biden ml.,Joseph R. Biden Jr.,Байден, Джо,President Joseph Robinette Biden,Amerika tiŋgbani zuɣulana,Joseph R. Biden,Joseph Biden, Jr.,Baiden Džozef Robinett,白登,جوزيف روبينيت بايدن,Joseph Biden" style="text;align=left;verticalAlign=top;spacingLeft=4;spacingRight=4;overflow=hidden;rotatable=0;points=[[0,0.5],[1,0.5]];portConstraint=eastwest;rounded=0;shadow=0;html=0;" vertex="1" parent="duncpzKBdpz41MOlvivD-606">
          <mxGeometry y="294" width="271" height="24" as="geometry" />
        </mxCell>
        <mxCell id="duncpzKBdpz41MOlvivD-619" value="en_alas:英文别名/President Joseph Robinette Biden Jr.,President Joseph Biden Jr.,President Joseph Biden,JRB,Biden,Joseph Robinette Biden,Joseph R. Biden, Jr.,Joseph R. Biden Jr.,Joe Biden Jr.,POTUS 46,President Joseph Robinette Biden,Joe R. Biden Jr.,President Joseph R. Biden,Joe R. Biden,Joseph R. Biden,President Biden,Joseph Robinette Biden Jr.,President Joe Biden,Joseph Biden,President Joseph R. Biden Jr." style="text;align=left;verticalAlign=top;spacingLeft=4;spacingRight=4;overflow=hidden;rotatable=0;points=[[0,0.5],[1,0.5]];portConstraint=eastwest;rounded=0;shadow=0;html=0;" vertex="1" parent="duncpzKBdpz41MOlvivD-606">
          <mxGeometry y="318" width="271" height="24" as="geometry" />
        </mxCell>
        <mxCell id="duncpzKBdpz41MOlvivD-620" value="zh_alas:中文别名/拜登" style="text;align=left;verticalAlign=top;spacingLeft=4;spacingRight=4;overflow=hidden;rotatable=0;points=[[0,0.5],[1,0.5]];portConstraint=eastwest;rounded=0;shadow=0;html=0;" vertex="1" parent="duncpzKBdpz41MOlvivD-606">
          <mxGeometry y="342" width="271" height="24" as="geometry" />
        </mxCell>
        <mxCell id="duncpzKBdpz41MOlvivD-621" value="country_name:国家名称/United States of America" style="text;align=left;verticalAlign=top;spacingLeft=4;spacingRight=4;overflow=hidden;rotatable=0;points=[[0,0.5],[1,0.5]];portConstraint=eastwest;rounded=0;shadow=0;html=0;" vertex="1" parent="duncpzKBdpz41MOlvivD-606">
          <mxGeometry y="366" width="271" height="24" as="geometry" />
        </mxCell>
        <mxCell id="duncpzKBdpz41MOlvivD-655" value="" style="endArrow=classic;html=1;rounded=0;entryX=0.5;entryY=0;entryDx=0;entryDy=0;" edge="1" parent="duncpzKBdpz41MOlvivD-606" target="duncpzKBdpz41MOlvivD-570">
          <mxGeometry width="50" height="50" relative="1" as="geometry">
            <mxPoint x="1" y="440" as="sourcePoint" />
            <mxPoint x="51" y="390" as="targetPoint" />
            <Array as="points">
              <mxPoint x="-355" y="440" />
            </Array>
          </mxGeometry>
        </mxCell>
        <mxCell id="duncpzKBdpz41MOlvivD-622" value="labels_en:lable英文名/Joe Biden" style="text;align=left;verticalAlign=top;spacingLeft=4;spacingRight=4;overflow=hidden;rotatable=0;points=[[0,0.5],[1,0.5]];portConstraint=eastwest;rounded=0;shadow=0;html=0;" vertex="1" parent="duncpzKBdpz41MOlvivD-606">
          <mxGeometry y="390" width="271" height="24" as="geometry" />
        </mxCell>
        <mxCell id="duncpzKBdpz41MOlvivD-623" value="labels_zh:lable中文名/乔·拜登" style="text;align=left;verticalAlign=top;spacingLeft=4;spacingRight=4;overflow=hidden;rotatable=0;points=[[0,0.5],[1,0.5]];portConstraint=eastwest;rounded=0;shadow=0;html=0;" vertex="1" parent="duncpzKBdpz41MOlvivD-606">
          <mxGeometry y="414" width="271" height="24" as="geometry" />
        </mxCell>
        <mxCell id="duncpzKBdpz41MOlvivD-624" value="weight:/对应的权重" style="text;align=left;verticalAlign=top;spacingLeft=4;spacingRight=4;overflow=hidden;rotatable=0;points=[[0,0.5],[1,0.5]];portConstraint=eastwest;rounded=0;shadow=0;html=0;" vertex="1" parent="duncpzKBdpz41MOlvivD-606">
          <mxGeometry y="438" width="271" height="24" as="geometry" />
        </mxCell>
        <mxCell id="duncpzKBdpz41MOlvivD-630" value="&lt;span style=&quot;font-size: 24px;&quot;&gt;应用表生成&lt;br&gt;&lt;/span&gt;" style="swimlane;horizontal=0;whiteSpace=wrap;html=1;startSize=23;" vertex="1" parent="WIyWlLk6GJQsqaUBKTNV-1">
          <mxGeometry x="2638" y="1511" width="412" height="350" as="geometry">
            <mxRectangle x="1674" y="90" width="70" height="270" as="alternateBounds" />
          </mxGeometry>
        </mxCell>
        <mxCell id="duncpzKBdpz41MOlvivD-631" value="分类表生成" style="swimlane;whiteSpace=wrap;html=1;startSize=23;" vertex="1" parent="duncpzKBdpz41MOlvivD-630">
          <mxGeometry x="38" y="10" width="372" height="240" as="geometry">
            <mxRectangle x="30" y="20" width="140" height="30" as="alternateBounds" />
          </mxGeometry>
        </mxCell>
        <mxCell id="duncpzKBdpz41MOlvivD-632" value="数据来源:wiki_relation_title(wikidata-wikipedia关系表)&#xa;               db_dbpedia_type_specific_en(实体最细分类表)&#xa;               db_instance_types_en_specific(实体最细分类表)&#xa;               db_ontology_type(dbpedia属性三元组表)&#xa;               item(实体表)&#xa;               item_property(属性表)&#xa;" style="text;align=left;verticalAlign=top;spacingLeft=4;spacingRight=4;overflow=hidden;rotatable=0;points=[[0,0.5],[1,0.5]];portConstraint=eastwest;" vertex="1" parent="duncpzKBdpz41MOlvivD-631">
          <mxGeometry y="84" width="370" height="106" as="geometry" />
        </mxCell>
        <mxCell id="duncpzKBdpz41MOlvivD-633" value="数据处理程序:[5-2]dbpedia_分类表生成_pool.py" style="text;align=left;verticalAlign=top;spacingLeft=4;spacingRight=4;overflow=hidden;rotatable=0;points=[[0,0.5],[1,0.5]];portConstraint=eastwest;" vertex="1" parent="duncpzKBdpz41MOlvivD-631">
          <mxGeometry x="4" y="28" width="380" height="28" as="geometry" />
        </mxCell>
        <mxCell id="duncpzKBdpz41MOlvivD-634" value="程序入口:dbpedia_typeget()" style="text;align=left;verticalAlign=top;spacingLeft=4;spacingRight=4;overflow=hidden;rotatable=0;points=[[0,0.5],[1,0.5]];portConstraint=eastwest;" vertex="1" parent="duncpzKBdpz41MOlvivD-631">
          <mxGeometry x="3" y="56" width="380" height="28" as="geometry" />
        </mxCell>
        <mxCell id="duncpzKBdpz41MOlvivD-635" value="" style="endArrow=classic;html=1;rounded=0;" edge="1" parent="WIyWlLk6GJQsqaUBKTNV-1">
          <mxGeometry width="50" height="50" relative="1" as="geometry">
            <mxPoint x="3050" y="1530" as="sourcePoint" />
            <mxPoint x="3180" y="1530" as="targetPoint" />
          </mxGeometry>
        </mxCell>
        <mxCell id="duncpzKBdpz41MOlvivD-641" style="edgeStyle=orthogonalEdgeStyle;rounded=0;orthogonalLoop=1;jettySize=auto;html=1;entryX=0.005;entryY=0.037;entryDx=0;entryDy=0;entryPerimeter=0;" edge="1" parent="WIyWlLk6GJQsqaUBKTNV-1" source="duncpzKBdpz41MOlvivD-637" target="duncpzKBdpz41MOlvivD-630">
          <mxGeometry relative="1" as="geometry" />
        </mxCell>
        <mxCell id="duncpzKBdpz41MOlvivD-637" value="" style="triangle;whiteSpace=wrap;html=1;" vertex="1" parent="WIyWlLk6GJQsqaUBKTNV-1">
          <mxGeometry x="2520" y="1510" width="30" height="30" as="geometry" />
        </mxCell>
        <mxCell id="duncpzKBdpz41MOlvivD-639" style="edgeStyle=orthogonalEdgeStyle;rounded=0;orthogonalLoop=1;jettySize=auto;html=1;entryX=0.5;entryY=0;entryDx=0;entryDy=0;" edge="1" parent="WIyWlLk6GJQsqaUBKTNV-1" source="duncpzKBdpz41MOlvivD-426" target="duncpzKBdpz41MOlvivD-637">
          <mxGeometry relative="1" as="geometry" />
        </mxCell>
        <mxCell id="duncpzKBdpz41MOlvivD-642" value="" style="triangle;whiteSpace=wrap;html=1;" vertex="1" parent="WIyWlLk6GJQsqaUBKTNV-1">
          <mxGeometry x="1060" y="1504" width="30" height="42" as="geometry" />
        </mxCell>
        <mxCell id="duncpzKBdpz41MOlvivD-643" value="" style="endArrow=classic;html=1;rounded=0;exitX=1;exitY=0;exitDx=0;exitDy=0;entryX=0.5;entryY=1;entryDx=0;entryDy=0;" edge="1" parent="WIyWlLk6GJQsqaUBKTNV-1" source="duncpzKBdpz41MOlvivD-390" target="duncpzKBdpz41MOlvivD-642">
          <mxGeometry width="50" height="50" relative="1" as="geometry">
            <mxPoint x="860" y="2330" as="sourcePoint" />
            <mxPoint x="1070" y="1550" as="targetPoint" />
            <Array as="points">
              <mxPoint x="1070" y="2280" />
            </Array>
          </mxGeometry>
        </mxCell>
        <mxCell id="duncpzKBdpz41MOlvivD-644" value="" style="endArrow=classic;html=1;rounded=0;" edge="1" parent="WIyWlLk6GJQsqaUBKTNV-1">
          <mxGeometry width="50" height="50" relative="1" as="geometry">
            <mxPoint x="690" y="1810" as="sourcePoint" />
            <mxPoint x="1070" y="1810" as="targetPoint" />
          </mxGeometry>
        </mxCell>
        <mxCell id="duncpzKBdpz41MOlvivD-645" value="" style="endArrow=classic;html=1;rounded=0;entryX=0.5;entryY=0;entryDx=0;entryDy=0;" edge="1" parent="WIyWlLk6GJQsqaUBKTNV-1" target="duncpzKBdpz41MOlvivD-642">
          <mxGeometry width="50" height="50" relative="1" as="geometry">
            <mxPoint x="690" y="1130" as="sourcePoint" />
            <mxPoint x="740" y="1080" as="targetPoint" />
            <Array as="points">
              <mxPoint x="1080" y="1130" />
            </Array>
          </mxGeometry>
        </mxCell>
        <mxCell id="duncpzKBdpz41MOlvivD-646" value="" style="endArrow=classic;html=1;rounded=0;exitX=1;exitY=0.5;exitDx=0;exitDy=0;entryX=0;entryY=0.5;entryDx=0;entryDy=0;" edge="1" parent="WIyWlLk6GJQsqaUBKTNV-1" source="duncpzKBdpz41MOlvivD-642" target="duncpzKBdpz41MOlvivD-637">
          <mxGeometry width="50" height="50" relative="1" as="geometry">
            <mxPoint x="1790" y="1620" as="sourcePoint" />
            <mxPoint x="1840" y="1570" as="targetPoint" />
          </mxGeometry>
        </mxCell>
        <mxCell id="duncpzKBdpz41MOlvivD-648" value="" style="endArrow=classic;html=1;rounded=0;" edge="1" parent="WIyWlLk6GJQsqaUBKTNV-1" target="duncpzKBdpz41MOlvivD-501">
          <mxGeometry width="50" height="50" relative="1" as="geometry">
            <mxPoint x="2510" y="590" as="sourcePoint" />
            <mxPoint x="2570" y="590" as="targetPoint" />
            <Array as="points">
              <mxPoint x="2570" y="590" />
            </Array>
          </mxGeometry>
        </mxCell>
        <mxCell id="duncpzKBdpz41MOlvivD-650" value="" style="endArrow=classic;html=1;rounded=0;" edge="1" parent="WIyWlLk6GJQsqaUBKTNV-1">
          <mxGeometry width="50" height="50" relative="1" as="geometry">
            <mxPoint x="2570" y="1190" as="sourcePoint" />
            <mxPoint x="2630" y="1190" as="targetPoint" />
          </mxGeometry>
        </mxCell>
        <mxCell id="duncpzKBdpz41MOlvivD-653" value="" style="endArrow=classic;html=1;rounded=0;exitX=-0.022;exitY=-0.048;exitDx=0;exitDy=0;exitPerimeter=0;entryX=0;entryY=0.25;entryDx=0;entryDy=0;" edge="1" parent="WIyWlLk6GJQsqaUBKTNV-1" target="duncpzKBdpz41MOlvivD-637">
          <mxGeometry width="50" height="50" relative="1" as="geometry">
            <mxPoint x="2238.06" y="455.75199999999995" as="sourcePoint" />
            <mxPoint x="2215" y="1513.5294117647059" as="targetPoint" />
            <Array as="points">
              <mxPoint x="2215" y="456" />
              <mxPoint x="2210" y="1518" />
            </Array>
          </mxGeometry>
        </mxCell>
        <mxCell id="duncpzKBdpz41MOlvivD-656" value="" style="endArrow=classic;html=1;rounded=0;entryX=-0.001;entryY=0.113;entryDx=0;entryDy=0;entryPerimeter=0;" edge="1" parent="WIyWlLk6GJQsqaUBKTNV-1" target="duncpzKBdpz41MOlvivD-570">
          <mxGeometry width="50" height="50" relative="1" as="geometry">
            <mxPoint x="2490" y="2040" as="sourcePoint" />
            <mxPoint x="2540" y="1990" as="targetPoint" />
            <Array as="points">
              <mxPoint x="2600" y="2040" />
              <mxPoint x="2600" y="2270" />
            </Array>
          </mxGeometry>
        </mxCell>
        <mxCell id="duncpzKBdpz41MOlvivD-657" value="" style="endArrow=classic;html=1;rounded=0;entryX=0.002;entryY=0.214;entryDx=0;entryDy=0;entryPerimeter=0;" edge="1" parent="WIyWlLk6GJQsqaUBKTNV-1" target="duncpzKBdpz41MOlvivD-570">
          <mxGeometry width="50" height="50" relative="1" as="geometry">
            <mxPoint x="2490" y="2300" as="sourcePoint" />
            <mxPoint x="2540" y="2250" as="targetPoint" />
          </mxGeometry>
        </mxCell>
        <mxCell id="duncpzKBdpz41MOlvivD-658" value="" style="endArrow=classic;html=1;rounded=0;entryX=0.002;entryY=0.836;entryDx=0;entryDy=0;entryPerimeter=0;" edge="1" parent="WIyWlLk6GJQsqaUBKTNV-1" target="duncpzKBdpz41MOlvivD-570">
          <mxGeometry width="50" height="50" relative="1" as="geometry">
            <mxPoint x="2490" y="2520" as="sourcePoint" />
            <mxPoint x="2540" y="2470" as="targetPoint" />
          </mxGeometry>
        </mxCell>
        <mxCell id="duncpzKBdpz41MOlvivD-659" value="" style="endArrow=classic;html=1;rounded=0;entryX=0.002;entryY=0.957;entryDx=0;entryDy=0;entryPerimeter=0;" edge="1" parent="WIyWlLk6GJQsqaUBKTNV-1" target="duncpzKBdpz41MOlvivD-570">
          <mxGeometry width="50" height="50" relative="1" as="geometry">
            <mxPoint x="2490" y="2710" as="sourcePoint" />
            <mxPoint x="2540" y="2660" as="targetPoint" />
            <Array as="points">
              <mxPoint x="2600" y="2710" />
              <mxPoint x="2600" y="2563" />
            </Array>
          </mxGeometry>
        </mxCell>
        <mxCell id="duncpzKBdpz41MOlvivD-662" value="" style="shape=flexArrow;endArrow=classic;html=1;rounded=0;" edge="1" parent="WIyWlLk6GJQsqaUBKTNV-1">
          <mxGeometry width="50" height="50" relative="1" as="geometry">
            <mxPoint x="779" y="1000" as="sourcePoint" />
            <mxPoint x="1659" y="1010" as="targetPoint" />
          </mxGeometry>
        </mxCell>
        <mxCell id="duncpzKBdpz41MOlvivD-666" value="" style="shape=flexArrow;endArrow=classic;html=1;rounded=0;" edge="1" parent="WIyWlLk6GJQsqaUBKTNV-1">
          <mxGeometry width="50" height="50" relative="1" as="geometry">
            <mxPoint x="430" y="2854.6" as="sourcePoint" />
            <mxPoint x="500" y="2854.6" as="targetPoint" />
          </mxGeometry>
        </mxCell>
      </root>
    </mxGraphModel>
  </diagram>
</mxfile>
